%TF.GenerationSoftware,KiCad,Pcbnew,4.0.7-e2-6376~58~ubuntu16.04.1*%
%TF.CreationDate,2017-12-27T14:53:42+01:00*%
%TF.ProjectId,Class_D_Amp,436C6173735F445F416D702E6B696361,rev?*%
%TF.FileFunction,Copper,L1,Top,Signal*%
%FSLAX46Y46*%
G04 Gerber Fmt 4.6, Leading zero omitted, Abs format (unit mm)*
G04 Created by KiCad (PCBNEW 4.0.7-e2-6376~58~ubuntu16.04.1) date Wed Dec 27 14:53:42 2017*
%MOMM*%
%LPD*%
G01*
G04 APERTURE LIST*
%ADD10C,0.150000*%
%ADD11C,3.000000*%
%ADD12R,3.000000X3.000000*%
%ADD13R,1.000000X1.250000*%
%ADD14R,1.600000X1.600000*%
%ADD15C,1.600000*%
%ADD16R,1.250000X1.000000*%
%ADD17R,2.400000X2.400000*%
%ADD18C,2.400000*%
%ADD19R,0.800000X0.900000*%
%ADD20C,2.000000*%
%ADD21R,1.200000X2.200000*%
%ADD22R,5.800000X6.400000*%
%ADD23R,2.750000X3.050000*%
%ADD24R,0.700000X1.300000*%
%ADD25R,1.300000X0.700000*%
%ADD26R,1.700000X0.900000*%
%ADD27R,1.550000X0.600000*%
%ADD28O,2.200000X4.000000*%
%ADD29O,4.000000X2.200000*%
%ADD30R,0.600000X1.550000*%
%ADD31R,0.900000X0.800000*%
%ADD32C,0.600000*%
%ADD33C,1.000000*%
%ADD34C,0.800000*%
%ADD35C,0.300000*%
%ADD36C,1.220000*%
%ADD37C,0.500000*%
%ADD38C,3.170000*%
%ADD39C,1.200000*%
%ADD40C,0.254000*%
G04 APERTURE END LIST*
D10*
X110000000Y-21000000D02*
X110000000Y-110000000D01*
X20000000Y-21000000D02*
X20000000Y-110000000D01*
X105000000Y-16000000D02*
X25000000Y-16000000D01*
X25000000Y-115000000D02*
X105000000Y-115000000D01*
X20000000Y-110000000D02*
G75*
G03X25000000Y-115000000I5000000J0D01*
G01*
X25000000Y-16000000D02*
G75*
G03X20000000Y-21000000I0J-5000000D01*
G01*
X110000000Y-21000000D02*
G75*
G03X105000000Y-16000000I-5000000J0D01*
G01*
X105000000Y-115000000D02*
G75*
G03X110000000Y-110000000I0J5000000D01*
G01*
D11*
X59920000Y-19000000D03*
X54840000Y-19000000D03*
D12*
X65000000Y-19000000D03*
D11*
X49760000Y-19000000D03*
D13*
X82600000Y-87900000D03*
X84600000Y-87900000D03*
X86600000Y-97700000D03*
X84600000Y-97700000D03*
X80600000Y-105300000D03*
X82600000Y-105300000D03*
D14*
X81700000Y-27300000D03*
D15*
X79200000Y-27300000D03*
D14*
X74300000Y-27300000D03*
D15*
X71800000Y-27300000D03*
D13*
X103625000Y-99375000D03*
X101625000Y-99375000D03*
D16*
X80700000Y-91500000D03*
X80700000Y-93500000D03*
D15*
X87000000Y-30000000D03*
X87000000Y-35000000D03*
D16*
X29000000Y-104250000D03*
X29000000Y-102250000D03*
D13*
X68250000Y-80250000D03*
X66250000Y-80250000D03*
X62250000Y-88250000D03*
X64250000Y-88250000D03*
D16*
X78800000Y-98800000D03*
X78800000Y-96800000D03*
D17*
X68500000Y-39500000D03*
D18*
X76000000Y-39500000D03*
D17*
X59000000Y-32000000D03*
D18*
X51500000Y-32000000D03*
D16*
X47900000Y-88500000D03*
X47900000Y-90500000D03*
D13*
X43050000Y-105450000D03*
X45050000Y-105450000D03*
X49050000Y-97850000D03*
X47050000Y-97850000D03*
D16*
X96250000Y-97500000D03*
X96250000Y-95500000D03*
D13*
X44300000Y-86500000D03*
X42300000Y-86500000D03*
D15*
X31000000Y-30000000D03*
X31000000Y-35000000D03*
D16*
X31750000Y-105250000D03*
X31750000Y-107250000D03*
X50850000Y-104350000D03*
X50850000Y-106350000D03*
X72000000Y-90000000D03*
X72000000Y-88000000D03*
D14*
X68000000Y-92000000D03*
D15*
X68000000Y-94000000D03*
D16*
X80000000Y-75500000D03*
X80000000Y-77500000D03*
X97300000Y-76500000D03*
X97300000Y-78500000D03*
D14*
X62000000Y-92000000D03*
D15*
X62000000Y-94000000D03*
D16*
X58000000Y-89000000D03*
X58000000Y-91000000D03*
X78800000Y-102400000D03*
X78800000Y-100400000D03*
X50850000Y-100750000D03*
X50850000Y-102750000D03*
X32800000Y-75800000D03*
X32800000Y-77800000D03*
X50500000Y-76500000D03*
X50500000Y-78500000D03*
D14*
X56500000Y-44000000D03*
D15*
X54000000Y-44000000D03*
D19*
X73750000Y-79900000D03*
X71850000Y-79900000D03*
X72800000Y-81900000D03*
X55950000Y-78500000D03*
X54050000Y-78500000D03*
X55000000Y-80500000D03*
D20*
X90200000Y-25600000D03*
X101800000Y-52400000D03*
X34200000Y-25600000D03*
X45800000Y-52400000D03*
D12*
X94000000Y-19000000D03*
D11*
X88920000Y-19000000D03*
D12*
X43000000Y-19000000D03*
D11*
X37920000Y-19000000D03*
D12*
X82000000Y-19000000D03*
D11*
X76920000Y-19000000D03*
X71840000Y-19000000D03*
D19*
X75550000Y-81900000D03*
X77450000Y-81900000D03*
X76500000Y-79900000D03*
X57750000Y-80500000D03*
X59650000Y-80500000D03*
X58700000Y-78500000D03*
D21*
X82320000Y-77400000D03*
X86880000Y-77400000D03*
D22*
X84600000Y-71100000D03*
D23*
X86125000Y-69425000D03*
X83075000Y-72775000D03*
X83075000Y-69425000D03*
X86125000Y-72775000D03*
D21*
X90420000Y-77400000D03*
X94980000Y-77400000D03*
D22*
X92700000Y-71100000D03*
D23*
X94225000Y-69425000D03*
X91175000Y-72775000D03*
X91175000Y-69425000D03*
X94225000Y-72775000D03*
D21*
X35320000Y-77100000D03*
X39880000Y-77100000D03*
D22*
X37600000Y-70800000D03*
D23*
X39125000Y-69125000D03*
X36075000Y-72475000D03*
X36075000Y-69125000D03*
X39125000Y-72475000D03*
D21*
X43420000Y-77100000D03*
X47980000Y-77100000D03*
D22*
X45700000Y-70800000D03*
D23*
X47225000Y-69125000D03*
X44175000Y-72475000D03*
X44175000Y-69125000D03*
X47225000Y-72475000D03*
D24*
X74250000Y-78100000D03*
X76150000Y-78100000D03*
X56450000Y-76700000D03*
X58350000Y-76700000D03*
D25*
X78800000Y-103850000D03*
X78800000Y-105750000D03*
D24*
X75250000Y-103800000D03*
X77150000Y-103800000D03*
D26*
X82650000Y-79750000D03*
X82650000Y-82650000D03*
D24*
X103450000Y-101250000D03*
X101550000Y-101250000D03*
X77150000Y-98900000D03*
X75250000Y-98900000D03*
D25*
X29000000Y-98800000D03*
X29000000Y-100700000D03*
D26*
X90700000Y-79750000D03*
X90700000Y-82650000D03*
D24*
X75250000Y-100800000D03*
X77150000Y-100800000D03*
D25*
X72000000Y-84550000D03*
X72000000Y-86450000D03*
X70000000Y-86450000D03*
X70000000Y-84550000D03*
X58000000Y-85550000D03*
X58000000Y-87450000D03*
X50850000Y-99300000D03*
X50850000Y-97400000D03*
D24*
X54400000Y-99450000D03*
X52500000Y-99450000D03*
D26*
X35600000Y-79450000D03*
X35600000Y-82350000D03*
D25*
X60250000Y-85200000D03*
X60250000Y-83300000D03*
X101625000Y-95675000D03*
X101625000Y-97575000D03*
D24*
X52500000Y-104350000D03*
X54400000Y-104350000D03*
X99700000Y-93750000D03*
X97800000Y-93750000D03*
D26*
X43700000Y-79450000D03*
X43700000Y-82350000D03*
D24*
X54350000Y-102400000D03*
X52450000Y-102400000D03*
D25*
X68000000Y-96550000D03*
X68000000Y-98450000D03*
X62000000Y-96550000D03*
X62000000Y-98450000D03*
D27*
X80900000Y-99595000D03*
X80900000Y-100865000D03*
X80900000Y-102135000D03*
X80900000Y-103405000D03*
X86300000Y-103405000D03*
X86300000Y-102135000D03*
X86300000Y-100865000D03*
X86300000Y-99595000D03*
X82800000Y-89695000D03*
X82800000Y-90965000D03*
X82800000Y-92235000D03*
X82800000Y-93505000D03*
X88200000Y-93505000D03*
X88200000Y-92235000D03*
X88200000Y-90965000D03*
X88200000Y-89695000D03*
X67950000Y-86155000D03*
X67950000Y-84885000D03*
X67950000Y-83615000D03*
X67950000Y-82345000D03*
X62550000Y-82345000D03*
X62550000Y-83615000D03*
X62550000Y-84885000D03*
X62550000Y-86155000D03*
D28*
X69500000Y-109000000D03*
D29*
X69000000Y-101700000D03*
D28*
X62400000Y-106100000D03*
X59700000Y-104900000D03*
D29*
X64900000Y-112900000D03*
D27*
X48750000Y-103555000D03*
X48750000Y-102285000D03*
X48750000Y-101015000D03*
X48750000Y-99745000D03*
X43350000Y-99745000D03*
X43350000Y-101015000D03*
X43350000Y-102285000D03*
X43350000Y-103555000D03*
D30*
X46105000Y-88600000D03*
X44835000Y-88600000D03*
X43565000Y-88600000D03*
X42295000Y-88600000D03*
X42295000Y-94000000D03*
X43565000Y-94000000D03*
X44835000Y-94000000D03*
X46105000Y-94000000D03*
D16*
X87000000Y-27000000D03*
X87000000Y-25000000D03*
X31000000Y-27000000D03*
X31000000Y-25000000D03*
X94250000Y-99250000D03*
X94250000Y-101250000D03*
X36500000Y-104250000D03*
X36500000Y-102250000D03*
X88750000Y-97500000D03*
X88750000Y-95500000D03*
X39250000Y-105000000D03*
X39250000Y-107000000D03*
D31*
X99875000Y-101325000D03*
X99875000Y-99425000D03*
X97875000Y-100375000D03*
X32750000Y-103450000D03*
X32750000Y-101550000D03*
X30750000Y-102500000D03*
X99875000Y-97575000D03*
X99875000Y-95675000D03*
X97875000Y-96625000D03*
X32750000Y-99700000D03*
X32750000Y-97800000D03*
X30750000Y-98750000D03*
X92375000Y-101325000D03*
X92375000Y-99425000D03*
X90375000Y-100375000D03*
X40375000Y-103325000D03*
X40375000Y-101425000D03*
X38375000Y-102375000D03*
X92375000Y-97575000D03*
X92375000Y-95675000D03*
X90375000Y-96625000D03*
X40375000Y-99575000D03*
X40375000Y-97675000D03*
X38375000Y-98625000D03*
D25*
X27000000Y-100050000D03*
X27000000Y-101950000D03*
X31000000Y-94300000D03*
X31000000Y-96200000D03*
X94250000Y-104700000D03*
X94250000Y-102800000D03*
X36500000Y-98800000D03*
X36500000Y-100700000D03*
X94250000Y-95800000D03*
X94250000Y-97700000D03*
D24*
X92200000Y-93750000D03*
X90300000Y-93750000D03*
D25*
X34500000Y-100050000D03*
X34500000Y-101950000D03*
X38250000Y-94300000D03*
X38250000Y-96200000D03*
D32*
X70900000Y-53900000D03*
X73450000Y-51400000D03*
X88650000Y-70000000D03*
X88650000Y-66500000D03*
D33*
X53500000Y-46750000D03*
X49250000Y-46750000D03*
X49500000Y-53500000D03*
X53500000Y-53500000D03*
X63750000Y-47000000D03*
X66500000Y-44250000D03*
X67000000Y-50750000D03*
X70000000Y-47750000D03*
X74000000Y-48500000D03*
X77500000Y-45000000D03*
X64750000Y-78500000D03*
X64700000Y-76100000D03*
X29000000Y-97500000D03*
X31750000Y-108750000D03*
X37500000Y-107000000D03*
X36500000Y-97250000D03*
X96250000Y-94000000D03*
X104750000Y-101250000D03*
X94250000Y-106000000D03*
X87000000Y-95500000D03*
X55000000Y-82000000D03*
X47500000Y-96300000D03*
X80000000Y-79000000D03*
X66200000Y-81900000D03*
X97300000Y-80000000D03*
X50500000Y-79900000D03*
X32800000Y-79200000D03*
X31000000Y-23500000D03*
X87000000Y-23500000D03*
X49250000Y-106350000D03*
X46450000Y-105450000D03*
X50850000Y-96150000D03*
X43350000Y-98150000D03*
X80500000Y-96800000D03*
X83100000Y-97700000D03*
X78800000Y-107000000D03*
X84100000Y-105300000D03*
X86300000Y-104900000D03*
D34*
X72600000Y-78400000D03*
D33*
X60700000Y-82000000D03*
D34*
X69800000Y-83200000D03*
D33*
X72000000Y-91500000D03*
X58000000Y-92500000D03*
X65800000Y-88300000D03*
X89000000Y-101000000D03*
X96000000Y-101250000D03*
X58500000Y-99000000D03*
X60250000Y-97500000D03*
X72250000Y-93750000D03*
X74500000Y-93750000D03*
X77250000Y-93750000D03*
X78750000Y-95250000D03*
X53300000Y-95300000D03*
X57600000Y-95300000D03*
X60700000Y-99500000D03*
X65000000Y-102900000D03*
X68800000Y-104200000D03*
X70700000Y-105600000D03*
X51700000Y-88500000D03*
X53200000Y-87000000D03*
X69250000Y-43750000D03*
X72750000Y-40250000D03*
X46500000Y-85500000D03*
X40750000Y-85750000D03*
X38500000Y-85750000D03*
X36750000Y-87500000D03*
X52500000Y-75500000D03*
X100000000Y-75500000D03*
X48000000Y-87000000D03*
X50750000Y-84500000D03*
X63250000Y-68500000D03*
X67000000Y-68500000D03*
X79500000Y-86750000D03*
X81250000Y-88500000D03*
X56500000Y-51000000D03*
X56500000Y-46000000D03*
X82500000Y-84000000D03*
X84500000Y-85500000D03*
X87000000Y-88000000D03*
X85500000Y-90750000D03*
D32*
X56800000Y-88200000D03*
X59200000Y-88100000D03*
D33*
X45500000Y-83500000D03*
X48000000Y-83500000D03*
D32*
X62500000Y-101500000D03*
D33*
X75250000Y-97250000D03*
X73750000Y-98750000D03*
X40750000Y-88250000D03*
X39500000Y-90250000D03*
X44750000Y-91500000D03*
X53000000Y-92000000D03*
D32*
X98750000Y-97500000D03*
X98750000Y-99500000D03*
X91250000Y-99500000D03*
X91250000Y-97500000D03*
X41750000Y-103250000D03*
X40750000Y-106000000D03*
X91000000Y-92250000D03*
X93250000Y-92250000D03*
X42250000Y-96500000D03*
X41000000Y-95250000D03*
X90500000Y-103000000D03*
X89500000Y-104000000D03*
D35*
X73450000Y-51400000D02*
X70950000Y-53900000D01*
X70950000Y-53900000D02*
X70900000Y-53900000D01*
X88650000Y-70000000D02*
X88650000Y-66500000D01*
D36*
X53500000Y-46750000D02*
X49250000Y-46750000D01*
X53500000Y-53500000D02*
X49500000Y-53500000D01*
X63750000Y-47000000D02*
X66500000Y-44250000D01*
X67000000Y-50750000D02*
X70000000Y-47750000D01*
D37*
X76150000Y-78100000D02*
X76150000Y-77900000D01*
X76150000Y-77900000D02*
X75000000Y-76750000D01*
X68150000Y-76750000D02*
X65850000Y-74450000D01*
X75000000Y-76750000D02*
X68150000Y-76750000D01*
X81700000Y-27300000D02*
X81700000Y-40800000D01*
X65850000Y-55650000D02*
X65850000Y-74450000D01*
X68000000Y-53500000D02*
X65850000Y-55650000D01*
X69000000Y-53500000D02*
X68000000Y-53500000D01*
X74000000Y-48500000D02*
X69000000Y-53500000D01*
X81700000Y-40800000D02*
X77500000Y-45000000D01*
X81700000Y-27300000D02*
X81700000Y-27800000D01*
X62550000Y-86155000D02*
X63345000Y-86155000D01*
X63345000Y-86155000D02*
X64700000Y-84800000D01*
X64700000Y-84800000D02*
X64750000Y-78500000D01*
X64700000Y-76100000D02*
X64700000Y-75600000D01*
X64700000Y-75600000D02*
X65850000Y-74450000D01*
X81700000Y-27300000D02*
X81700000Y-27400000D01*
X82000000Y-19000000D02*
X82000000Y-27000000D01*
X82000000Y-27000000D02*
X81700000Y-27300000D01*
X76150000Y-78100000D02*
X76150000Y-78750000D01*
X76150000Y-78750000D02*
X76500000Y-79100000D01*
X76500000Y-79100000D02*
X76500000Y-79900000D01*
X62550000Y-86155000D02*
X62550000Y-86450000D01*
X62550000Y-86450000D02*
X62250000Y-86750000D01*
X62250000Y-86750000D02*
X62250000Y-88250000D01*
D35*
X29000000Y-98800000D02*
X29000000Y-97500000D01*
X31750000Y-107250000D02*
X31750000Y-108750000D01*
X39250000Y-107000000D02*
X37500000Y-107000000D01*
X36500000Y-98800000D02*
X36500000Y-97250000D01*
X96250000Y-95500000D02*
X96250000Y-94000000D01*
X103450000Y-101250000D02*
X104750000Y-101250000D01*
X94250000Y-104700000D02*
X94250000Y-106000000D01*
X88750000Y-95500000D02*
X87000000Y-95500000D01*
D37*
X55000000Y-80500000D02*
X55000000Y-82000000D01*
X47050000Y-97850000D02*
X47050000Y-96750000D01*
X47050000Y-96750000D02*
X47500000Y-96300000D01*
X80000000Y-77500000D02*
X80000000Y-79000000D01*
X66250000Y-80250000D02*
X66250000Y-81850000D01*
X66250000Y-81850000D02*
X66200000Y-81900000D01*
X97300000Y-78500000D02*
X97300000Y-80000000D01*
X50500000Y-78500000D02*
X50500000Y-79900000D01*
X32800000Y-77800000D02*
X32800000Y-79200000D01*
X31000000Y-25000000D02*
X31000000Y-23500000D01*
X87000000Y-25000000D02*
X87000000Y-23500000D01*
X50850000Y-106350000D02*
X49250000Y-106350000D01*
X45050000Y-105450000D02*
X46450000Y-105450000D01*
X50850000Y-97400000D02*
X50850000Y-96150000D01*
X43350000Y-99745000D02*
X43350000Y-98150000D01*
X78800000Y-96800000D02*
X80500000Y-96800000D01*
X84600000Y-97700000D02*
X83100000Y-97700000D01*
X78800000Y-105750000D02*
X78800000Y-107000000D01*
X82600000Y-105300000D02*
X84100000Y-105300000D01*
X86300000Y-103405000D02*
X86300000Y-104900000D01*
X73750000Y-79900000D02*
X73750000Y-79550000D01*
X73750000Y-79550000D02*
X72600000Y-78400000D01*
X62550000Y-82345000D02*
X61045000Y-82345000D01*
X61045000Y-82345000D02*
X60700000Y-82000000D01*
X67950000Y-83615000D02*
X69385000Y-83615000D01*
X69385000Y-83615000D02*
X69800000Y-83200000D01*
X72000000Y-90000000D02*
X72000000Y-91500000D01*
X58000000Y-91000000D02*
X58000000Y-92500000D01*
X64250000Y-88250000D02*
X65750000Y-88250000D01*
X65750000Y-88250000D02*
X65800000Y-88300000D01*
D35*
X30000000Y-105250000D02*
X29750000Y-105500000D01*
X27000000Y-104750000D02*
X27000000Y-101950000D01*
X27750000Y-105500000D02*
X27000000Y-104750000D01*
X29750000Y-105500000D02*
X27750000Y-105500000D01*
X31750000Y-105250000D02*
X30000000Y-105250000D01*
X30000000Y-105250000D02*
X29000000Y-104250000D01*
X31750000Y-105250000D02*
X30750000Y-104250000D01*
X30750000Y-104250000D02*
X30750000Y-102500000D01*
X31750000Y-105250000D02*
X32500000Y-105250000D01*
X43750000Y-108250000D02*
X44250000Y-107750000D01*
X35500000Y-108250000D02*
X43750000Y-108250000D01*
X32500000Y-105250000D02*
X35500000Y-108250000D01*
X39250000Y-105000000D02*
X37250000Y-105000000D01*
X37250000Y-105000000D02*
X37000000Y-105250000D01*
X34500000Y-104500000D02*
X34500000Y-101950000D01*
X35250000Y-105250000D02*
X34500000Y-104500000D01*
X37000000Y-105250000D02*
X35250000Y-105250000D01*
X37250000Y-105000000D02*
X36500000Y-104250000D01*
X39250000Y-105000000D02*
X39250000Y-104750000D01*
X39250000Y-104750000D02*
X38375000Y-103875000D01*
X38375000Y-103875000D02*
X38375000Y-102375000D01*
X44250000Y-107750000D02*
X42500000Y-107750000D01*
X41500000Y-105000000D02*
X39250000Y-105000000D01*
X41750000Y-105250000D02*
X41500000Y-105000000D01*
X41750000Y-107000000D02*
X41750000Y-105250000D01*
X42500000Y-107750000D02*
X41750000Y-107000000D01*
X97875000Y-100375000D02*
X97875000Y-99875000D01*
X96750000Y-98750000D02*
X96750000Y-98000000D01*
X97875000Y-99875000D02*
X96750000Y-98750000D01*
X96750000Y-98000000D02*
X96250000Y-97500000D01*
X96250000Y-97500000D02*
X96250000Y-101000000D01*
X87500000Y-97500000D02*
X86850000Y-96850000D01*
X87500000Y-99500000D02*
X87500000Y-97500000D01*
X89000000Y-101000000D02*
X87500000Y-99500000D01*
X96250000Y-101000000D02*
X96000000Y-101250000D01*
X96250000Y-97500000D02*
X97250000Y-98500000D01*
X100500000Y-98500000D02*
X101425000Y-97575000D01*
X97250000Y-98500000D02*
X100500000Y-98500000D01*
X101425000Y-97575000D02*
X101825000Y-97575000D01*
X101825000Y-97575000D02*
X103625000Y-99375000D01*
X93000000Y-98500000D02*
X89750000Y-98500000D01*
X89750000Y-98500000D02*
X88750000Y-97500000D01*
X86600000Y-96850000D02*
X86850000Y-96850000D01*
X86850000Y-96850000D02*
X88100000Y-96850000D01*
X88100000Y-96850000D02*
X88750000Y-97500000D01*
X94250000Y-99250000D02*
X93750000Y-99250000D01*
X93750000Y-99250000D02*
X93000000Y-98500000D01*
X93000000Y-98500000D02*
X93800000Y-97700000D01*
X93800000Y-97700000D02*
X94250000Y-97700000D01*
X88750000Y-97500000D02*
X88750000Y-98750000D01*
X88750000Y-98750000D02*
X90375000Y-100375000D01*
X88750000Y-97500000D02*
X88500000Y-97500000D01*
D37*
X77450000Y-81900000D02*
X77450000Y-93550000D01*
X77450000Y-93550000D02*
X77250000Y-93750000D01*
X86600000Y-97700000D02*
X86600000Y-96850000D01*
X43050000Y-106550000D02*
X43050000Y-105450000D01*
X44250000Y-107750000D02*
X43050000Y-106550000D01*
X54500000Y-107750000D02*
X44250000Y-107750000D01*
X56000000Y-106250000D02*
X54500000Y-107750000D01*
X56000000Y-104500000D02*
X56000000Y-106250000D01*
X58500000Y-102000000D02*
X56000000Y-104500000D01*
X58500000Y-101750000D02*
X58500000Y-102000000D01*
X58500000Y-99000000D02*
X58500000Y-101750000D01*
X69750000Y-97500000D02*
X60250000Y-97500000D01*
X69750000Y-96750000D02*
X69750000Y-97500000D01*
X69750000Y-96250000D02*
X69750000Y-96750000D01*
X72250000Y-93750000D02*
X69750000Y-96250000D01*
X77250000Y-93750000D02*
X74500000Y-93750000D01*
X85000000Y-95250000D02*
X78750000Y-95250000D01*
X86600000Y-96850000D02*
X85000000Y-95250000D01*
X43350000Y-103555000D02*
X43350000Y-104050000D01*
X43350000Y-104050000D02*
X43050000Y-104350000D01*
X43050000Y-104350000D02*
X43050000Y-105450000D01*
X86300000Y-99595000D02*
X86300000Y-99000000D01*
X86600000Y-98700000D02*
X86600000Y-97700000D01*
X86300000Y-99000000D02*
X86600000Y-98700000D01*
X59650000Y-80500000D02*
X59650000Y-80550000D01*
X59650000Y-80550000D02*
X53200000Y-87000000D01*
X80600000Y-105300000D02*
X80600000Y-106900000D01*
X51700000Y-93700000D02*
X51700000Y-93300000D01*
X53300000Y-95300000D02*
X51700000Y-93700000D01*
X57600000Y-96400000D02*
X57600000Y-95300000D01*
X60700000Y-99500000D02*
X57600000Y-96400000D01*
X65000000Y-103200000D02*
X65000000Y-102900000D01*
X66000000Y-104200000D02*
X65000000Y-103200000D01*
X68800000Y-104200000D02*
X66000000Y-104200000D01*
X73400000Y-108300000D02*
X70700000Y-105600000D01*
X79200000Y-108300000D02*
X73400000Y-108300000D01*
X80600000Y-106900000D02*
X79200000Y-108300000D01*
X51700000Y-88500000D02*
X51700000Y-93300000D01*
X51700000Y-93300000D02*
X49050000Y-95950000D01*
X49050000Y-95950000D02*
X49050000Y-97850000D01*
X49050000Y-97850000D02*
X49050000Y-98850000D01*
X48750000Y-99150000D02*
X48750000Y-99745000D01*
X49050000Y-98850000D02*
X48750000Y-99150000D01*
X80900000Y-103405000D02*
X80900000Y-103900000D01*
X80600000Y-104200000D02*
X80600000Y-105300000D01*
X80900000Y-103900000D02*
X80600000Y-104200000D01*
X62750000Y-77250000D02*
X62000000Y-77250000D01*
X71800000Y-27300000D02*
X71800000Y-39300000D01*
X62750000Y-76250000D02*
X62750000Y-77250000D01*
X62750000Y-77250000D02*
X62750000Y-77250000D01*
X64500000Y-74500000D02*
X62750000Y-76250000D01*
X64500000Y-48500000D02*
X64500000Y-74500000D01*
X69250000Y-43750000D02*
X64500000Y-48500000D01*
X71800000Y-39300000D02*
X72750000Y-40250000D01*
X68250000Y-80250000D02*
X68250000Y-79500000D01*
X68250000Y-79500000D02*
X66000000Y-77250000D01*
X66000000Y-77250000D02*
X62750000Y-77250000D01*
X58950000Y-76700000D02*
X58350000Y-76700000D01*
X62000000Y-77250000D02*
X59500000Y-77250000D01*
X59500000Y-77250000D02*
X58950000Y-76700000D01*
X58700000Y-78500000D02*
X58700000Y-77950000D01*
X58350000Y-77600000D02*
X58350000Y-76700000D01*
X58700000Y-77950000D02*
X58350000Y-77600000D01*
X68250000Y-80250000D02*
X68250000Y-79850000D01*
X71840000Y-19000000D02*
X71840000Y-27260000D01*
X71840000Y-27260000D02*
X71800000Y-27300000D01*
X67950000Y-82345000D02*
X67950000Y-81550000D01*
X68250000Y-81250000D02*
X68250000Y-80250000D01*
X67950000Y-81550000D02*
X68250000Y-81250000D01*
D35*
X82800000Y-90965000D02*
X81935000Y-90965000D01*
X81400000Y-91500000D02*
X80700000Y-91500000D01*
X81935000Y-90965000D02*
X81400000Y-91500000D01*
X77150000Y-98900000D02*
X77150000Y-100800000D01*
X78800000Y-98800000D02*
X77250000Y-98800000D01*
X77250000Y-98800000D02*
X77150000Y-98900000D01*
X78800000Y-100400000D02*
X78800000Y-98800000D01*
X80900000Y-100865000D02*
X79965000Y-100865000D01*
X79500000Y-100400000D02*
X78800000Y-100400000D01*
X79965000Y-100865000D02*
X79500000Y-100400000D01*
D38*
X68500000Y-39500000D02*
X68500000Y-39750000D01*
D36*
X68500000Y-39750000D02*
X59750000Y-48500000D01*
X37600000Y-49900000D02*
X37600000Y-70800000D01*
X39000000Y-48500000D02*
X37600000Y-49900000D01*
X59750000Y-48500000D02*
X39000000Y-48500000D01*
X68500000Y-39500000D02*
X79600000Y-50600000D01*
D37*
X79600000Y-66100000D02*
X84600000Y-71100000D01*
D36*
X79600000Y-50600000D02*
X79600000Y-66100000D01*
D38*
X65000000Y-19000000D02*
X65000000Y-36000000D01*
X65000000Y-36000000D02*
X68500000Y-39500000D01*
D37*
X80000000Y-75500000D02*
X80000000Y-73700000D01*
X80000000Y-73700000D02*
X82600000Y-71100000D01*
X82600000Y-71100000D02*
X84600000Y-71100000D01*
D39*
X32800000Y-75800000D02*
X32800000Y-73400000D01*
X32800000Y-73100000D02*
X35100000Y-70800000D01*
X32800000Y-73400000D02*
X32800000Y-73100000D01*
X35100000Y-70800000D02*
X37600000Y-70800000D01*
D35*
X34500000Y-90800000D02*
X34500000Y-90750000D01*
D37*
X34500000Y-90750000D02*
X34750000Y-90500000D01*
D35*
X34750000Y-90800000D02*
X34500000Y-90800000D01*
D37*
X34500000Y-90800000D02*
X31000000Y-94300000D01*
X47750000Y-84750000D02*
X47250000Y-84750000D01*
X47250000Y-84750000D02*
X46500000Y-85500000D01*
X40750000Y-85750000D02*
X38500000Y-85750000D01*
X36750000Y-87500000D02*
X34750000Y-89500000D01*
X34750000Y-89500000D02*
X34750000Y-90500000D01*
X34750000Y-90800000D02*
X38250000Y-94300000D01*
D35*
X34750000Y-90500000D02*
X34750000Y-90800000D01*
X31000000Y-94300000D02*
X31000000Y-94250000D01*
D37*
X92100000Y-90400000D02*
X92100000Y-90865000D01*
X92100000Y-90865000D02*
X92200000Y-90965000D01*
D35*
X92200000Y-90965000D02*
X92200000Y-90900000D01*
X92200000Y-90900000D02*
X91900000Y-90600000D01*
D37*
X99700000Y-93750000D02*
X99700000Y-92700000D01*
X99700000Y-92700000D02*
X97965000Y-90965000D01*
X97965000Y-90965000D02*
X92200000Y-90965000D01*
X92200000Y-90965000D02*
X91500000Y-90965000D01*
X91500000Y-90965000D02*
X91500000Y-91500000D01*
X92200000Y-92200000D02*
X92200000Y-93750000D01*
X91500000Y-91500000D02*
X92200000Y-92200000D01*
D36*
X51500000Y-76500000D02*
X50500000Y-76500000D01*
X52500000Y-75500000D02*
X51500000Y-76500000D01*
X99000000Y-76500000D02*
X97300000Y-76500000D01*
X100000000Y-75500000D02*
X99000000Y-76500000D01*
D37*
X47900000Y-90500000D02*
X48750000Y-90500000D01*
X47980000Y-79020000D02*
X47980000Y-77100000D01*
X46750000Y-80250000D02*
X47980000Y-79020000D01*
X46750000Y-83750000D02*
X46750000Y-80250000D01*
X49250000Y-86250000D02*
X47750000Y-84750000D01*
X47750000Y-84750000D02*
X46750000Y-83750000D01*
X49250000Y-90000000D02*
X49250000Y-86250000D01*
X48750000Y-90500000D02*
X49250000Y-90000000D01*
X88200000Y-90965000D02*
X91500000Y-90965000D01*
X91500000Y-90965000D02*
X91535000Y-90965000D01*
X91535000Y-90965000D02*
X91900000Y-90600000D01*
X91900000Y-90600000D02*
X92100000Y-90400000D01*
X92100000Y-90400000D02*
X94980000Y-87520000D01*
X94980000Y-87520000D02*
X94980000Y-77400000D01*
D36*
X54000000Y-44000000D02*
X53000000Y-44000000D01*
X51500000Y-42400000D02*
X53000000Y-43900000D01*
X53000000Y-43900000D02*
X53000000Y-44000000D01*
X51500000Y-42400000D02*
X51500000Y-32000000D01*
D37*
X49760000Y-19000000D02*
X49600000Y-19160000D01*
D38*
X49600000Y-19160000D02*
X49600000Y-30100000D01*
X49600000Y-30100000D02*
X51500000Y-32000000D01*
D37*
X94980000Y-77400000D02*
X95200000Y-77400000D01*
X95200000Y-77400000D02*
X95965687Y-76634313D01*
X95965687Y-76634313D02*
X97134313Y-76634313D01*
X97134313Y-76634313D02*
X97300000Y-76500000D01*
X88200000Y-90965000D02*
X87465000Y-90965000D01*
X87465000Y-90965000D02*
X84600000Y-88100000D01*
X84600000Y-88100000D02*
X84600000Y-87900000D01*
X44835000Y-94000000D02*
X44835000Y-93265000D01*
X44835000Y-93265000D02*
X45900000Y-92200000D01*
X45900000Y-92200000D02*
X47200000Y-92200000D01*
X47200000Y-92200000D02*
X47900000Y-91500000D01*
X47900000Y-91500000D02*
X47900000Y-90500000D01*
D39*
X47980000Y-77100000D02*
X48100000Y-77100000D01*
X48100000Y-77100000D02*
X48700000Y-76500000D01*
X48700000Y-76500000D02*
X50500000Y-76500000D01*
D35*
X44300000Y-86500000D02*
X44300000Y-87000000D01*
X44300000Y-87000000D02*
X44835000Y-87535000D01*
X44835000Y-87535000D02*
X44835000Y-88600000D01*
X52450000Y-102400000D02*
X52450000Y-104300000D01*
X52450000Y-104300000D02*
X52500000Y-104350000D01*
X52500000Y-104350000D02*
X50850000Y-104350000D01*
X50850000Y-102750000D02*
X50850000Y-104350000D01*
X50850000Y-102750000D02*
X50250000Y-102750000D01*
X50250000Y-102750000D02*
X49785000Y-102285000D01*
X49785000Y-102285000D02*
X48750000Y-102285000D01*
X72000000Y-88000000D02*
X72000000Y-86450000D01*
X68000000Y-92000000D02*
X70500000Y-89500000D01*
X71000000Y-88000000D02*
X72000000Y-88000000D01*
X70500000Y-88500000D02*
X71000000Y-88000000D01*
X70500000Y-89500000D02*
X70500000Y-88500000D01*
X68000000Y-96550000D02*
X68000000Y-94000000D01*
X58000000Y-89000000D02*
X58000000Y-87450000D01*
X62000000Y-92000000D02*
X62000000Y-91500000D01*
X62000000Y-91500000D02*
X59500000Y-89000000D01*
X59500000Y-89000000D02*
X58000000Y-89000000D01*
X62000000Y-96550000D02*
X62000000Y-94000000D01*
X78800000Y-102400000D02*
X79600000Y-102400000D01*
X79865000Y-102135000D02*
X80900000Y-102135000D01*
X79600000Y-102400000D02*
X79865000Y-102135000D01*
X78800000Y-103850000D02*
X78800000Y-102400000D01*
X78800000Y-103850000D02*
X77200000Y-103850000D01*
X77200000Y-103850000D02*
X77150000Y-103800000D01*
X48750000Y-101015000D02*
X49685000Y-101015000D01*
X49950000Y-100750000D02*
X50850000Y-100750000D01*
X49685000Y-101015000D02*
X49950000Y-100750000D01*
X50850000Y-99300000D02*
X50850000Y-100750000D01*
X52500000Y-99450000D02*
X51850000Y-99450000D01*
X51700000Y-99300000D02*
X50850000Y-99300000D01*
X51850000Y-99450000D02*
X51700000Y-99300000D01*
D37*
X63250000Y-68500000D02*
X63250000Y-74500000D01*
X47900000Y-87100000D02*
X47900000Y-88500000D01*
X48000000Y-87000000D02*
X47900000Y-87100000D01*
X52250000Y-83000000D02*
X50750000Y-84500000D01*
X52250000Y-78000000D02*
X52250000Y-83000000D01*
X55000000Y-75250000D02*
X52250000Y-78000000D01*
X62500000Y-75250000D02*
X55000000Y-75250000D01*
X63250000Y-74500000D02*
X62500000Y-75250000D01*
X82600000Y-87900000D02*
X81850000Y-87900000D01*
X67000000Y-74250000D02*
X67000000Y-68500000D01*
X68250000Y-75500000D02*
X67000000Y-74250000D01*
X75500000Y-75500000D02*
X68250000Y-75500000D01*
X78750000Y-78750000D02*
X75500000Y-75500000D01*
X78750000Y-86000000D02*
X78750000Y-78750000D01*
X79500000Y-86750000D02*
X78750000Y-86000000D01*
X81850000Y-87900000D02*
X81250000Y-88500000D01*
X56500000Y-44000000D02*
X56500000Y-46000000D01*
X63250000Y-54500000D02*
X63250000Y-68500000D01*
X62500000Y-53750000D02*
X63250000Y-54500000D01*
X59250000Y-53750000D02*
X62500000Y-53750000D01*
X56500000Y-51000000D02*
X59250000Y-53750000D01*
X54840000Y-19000000D02*
X56500000Y-20660000D01*
D36*
X56500000Y-20660000D02*
X56500000Y-44000000D01*
D37*
X46105000Y-88600000D02*
X47800000Y-88600000D01*
X47800000Y-88600000D02*
X47900000Y-88500000D01*
X82800000Y-89695000D02*
X82800000Y-89100000D01*
X82600000Y-88900000D02*
X82600000Y-87900000D01*
X82800000Y-89100000D02*
X82600000Y-88900000D01*
X82650000Y-79750000D02*
X82650000Y-79250000D01*
X82320000Y-78920000D02*
X82320000Y-77400000D01*
X82650000Y-79250000D02*
X82320000Y-78920000D01*
X90700000Y-79750000D02*
X90700000Y-79200000D01*
X90420000Y-78920000D02*
X90420000Y-77400000D01*
X90700000Y-79200000D02*
X90420000Y-78920000D01*
X35600000Y-79450000D02*
X35600000Y-77380000D01*
D35*
X35600000Y-77380000D02*
X35320000Y-77100000D01*
D37*
X43700000Y-79450000D02*
X43700000Y-77380000D01*
D35*
X43700000Y-77380000D02*
X43420000Y-77100000D01*
D37*
X82800000Y-92235000D02*
X84015000Y-92235000D01*
X82650000Y-83850000D02*
X82650000Y-82650000D01*
X82500000Y-84000000D02*
X82650000Y-83850000D01*
X87000000Y-88000000D02*
X84500000Y-85500000D01*
X84015000Y-92235000D02*
X85500000Y-90750000D01*
D35*
X67950000Y-86155000D02*
X69145000Y-86155000D01*
X73300000Y-96950000D02*
X75250000Y-98900000D01*
X73300000Y-85700000D02*
X73300000Y-96950000D01*
X73100000Y-85500000D02*
X73300000Y-85700000D01*
X69800000Y-85500000D02*
X73100000Y-85500000D01*
X69145000Y-86155000D02*
X69800000Y-85500000D01*
X70000000Y-86450000D02*
X69450000Y-86450000D01*
X69450000Y-86450000D02*
X69155000Y-86155000D01*
X69155000Y-86155000D02*
X67950000Y-86155000D01*
D37*
X90700000Y-82650000D02*
X90700000Y-87195000D01*
X90700000Y-87195000D02*
X88200000Y-89695000D01*
D35*
X70000000Y-84550000D02*
X69450000Y-84550000D01*
X69450000Y-84550000D02*
X69115000Y-84885000D01*
X69115000Y-84885000D02*
X67950000Y-84885000D01*
X72000000Y-84550000D02*
X70000000Y-84550000D01*
X60250000Y-83300000D02*
X60450000Y-83500000D01*
X60450000Y-83500000D02*
X62435000Y-83500000D01*
X62435000Y-83500000D02*
X62550000Y-83615000D01*
X58000000Y-85550000D02*
X58000000Y-84500000D01*
X59200000Y-83300000D02*
X60250000Y-83300000D01*
X58000000Y-84500000D02*
X59200000Y-83300000D01*
D37*
X35600000Y-82350000D02*
X35600000Y-84600000D01*
X43565000Y-89935000D02*
X43565000Y-88600000D01*
X43300000Y-90200000D02*
X43565000Y-89935000D01*
X41200000Y-90200000D02*
X43300000Y-90200000D01*
X35600000Y-84600000D02*
X41200000Y-90200000D01*
D35*
X60250000Y-85200000D02*
X60000000Y-85200000D01*
X60000000Y-85200000D02*
X59200000Y-86000000D01*
X56600000Y-102150000D02*
X54400000Y-104350000D01*
X56600000Y-88400000D02*
X56600000Y-102150000D01*
X56800000Y-88200000D02*
X56600000Y-88400000D01*
X59200000Y-86000000D02*
X59200000Y-88100000D01*
X60250000Y-85200000D02*
X61300000Y-85200000D01*
X61615000Y-84885000D02*
X62550000Y-84885000D01*
X61300000Y-85200000D02*
X61615000Y-84885000D01*
D37*
X46105000Y-94000000D02*
X47750000Y-94000000D01*
X45500000Y-83500000D02*
X44350000Y-82350000D01*
X50250000Y-85750000D02*
X48000000Y-83500000D01*
X50250000Y-91500000D02*
X50250000Y-85750000D01*
X47750000Y-94000000D02*
X50250000Y-91500000D01*
X44350000Y-82350000D02*
X43700000Y-82350000D01*
D35*
X59700000Y-104900000D02*
X62100000Y-102500000D01*
X63950000Y-102500000D02*
X68000000Y-98450000D01*
X62100000Y-102500000D02*
X63950000Y-102500000D01*
X62500000Y-101500000D02*
X62500000Y-100500000D01*
X62500000Y-100500000D02*
X62000000Y-100000000D01*
X62000000Y-100000000D02*
X62000000Y-98450000D01*
X74250000Y-78100000D02*
X74250000Y-78450000D01*
X74250000Y-78450000D02*
X75550000Y-79750000D01*
X75550000Y-79750000D02*
X75550000Y-81900000D01*
X72800000Y-81900000D02*
X75550000Y-81900000D01*
X57750000Y-80500000D02*
X55950000Y-78700000D01*
X55950000Y-78700000D02*
X55950000Y-78500000D01*
X55950000Y-78500000D02*
X55950000Y-78050000D01*
X55950000Y-78050000D02*
X56450000Y-77550000D01*
X56450000Y-77550000D02*
X56450000Y-76700000D01*
D37*
X75250000Y-103800000D02*
X75250000Y-100800000D01*
X80700000Y-93500000D02*
X79800002Y-93500000D01*
X79800002Y-93500000D02*
X79371841Y-93071839D01*
X79371841Y-93071839D02*
X79371841Y-88828159D01*
X79371841Y-88828159D02*
X86880000Y-81320000D01*
X86880000Y-81320000D02*
X86880000Y-77400000D01*
X75250000Y-100800000D02*
X74550000Y-100800000D01*
X79000000Y-93500000D02*
X80700000Y-93500000D01*
X75250000Y-97250000D02*
X79000000Y-93500000D01*
X73750000Y-100000000D02*
X73750000Y-98750000D01*
X74550000Y-100800000D02*
X73750000Y-100000000D01*
X86880000Y-77400000D02*
X86880000Y-76920000D01*
D36*
X86880000Y-76920000D02*
X92700000Y-71100000D01*
X101800000Y-52400000D02*
X101800000Y-56900000D01*
D37*
X92700000Y-66000000D02*
X92700000Y-71100000D01*
X101800000Y-56900000D02*
X92700000Y-66000000D01*
X82800000Y-93505000D02*
X80705000Y-93505000D01*
D35*
X80705000Y-93505000D02*
X80700000Y-93500000D01*
D36*
X94000000Y-19000000D02*
X94000000Y-21800000D01*
X94000000Y-21800000D02*
X90200000Y-25600000D01*
X87000000Y-27000000D02*
X88000000Y-27000000D01*
D39*
X88000000Y-27000000D02*
X89000000Y-28000000D01*
X90200000Y-25600000D02*
X90200000Y-26800000D01*
D36*
X90200000Y-26800000D02*
X89000000Y-28000000D01*
X89000000Y-28000000D02*
X87000000Y-30000000D01*
D37*
X54400000Y-99450000D02*
X54400000Y-93400000D01*
X40750000Y-88050000D02*
X42300000Y-86500000D01*
X40750000Y-88250000D02*
X40750000Y-88050000D01*
X40750000Y-91500000D02*
X39500000Y-90250000D01*
X44750000Y-91500000D02*
X40750000Y-91500000D01*
X54400000Y-93400000D02*
X53000000Y-92000000D01*
X54350000Y-102400000D02*
X54350000Y-99500000D01*
X54350000Y-99500000D02*
X54400000Y-99450000D01*
X42300000Y-86500000D02*
X42300000Y-84600000D01*
X42300000Y-84600000D02*
X42300000Y-84500000D01*
X42300000Y-84500000D02*
X39880000Y-82080000D01*
X39880000Y-82080000D02*
X39880000Y-77100000D01*
D36*
X45800000Y-52400000D02*
X45800000Y-59300000D01*
D39*
X45800000Y-59300000D02*
X45800000Y-70700000D01*
X45800000Y-70700000D02*
X45700000Y-70800000D01*
D36*
X39880000Y-77100000D02*
X45700000Y-71280000D01*
D39*
X45700000Y-71280000D02*
X45700000Y-70800000D01*
D37*
X42300000Y-86500000D02*
X42300000Y-88595000D01*
D35*
X42300000Y-88595000D02*
X42295000Y-88600000D01*
D36*
X43000000Y-19000000D02*
X43000000Y-21000000D01*
X38400000Y-25600000D02*
X34200000Y-25600000D01*
X43000000Y-21000000D02*
X38400000Y-25600000D01*
X31000000Y-27000000D02*
X31500000Y-27000000D01*
X31500000Y-27000000D02*
X32750000Y-28250000D01*
D39*
X34200000Y-25600000D02*
X34200000Y-26800000D01*
D36*
X34200000Y-26800000D02*
X32750000Y-28250000D01*
X32750000Y-28250000D02*
X31000000Y-30000000D01*
D35*
X99875000Y-99425000D02*
X98825000Y-99425000D01*
X98825000Y-97575000D02*
X99875000Y-97575000D01*
X98750000Y-97500000D02*
X98825000Y-97575000D01*
X98825000Y-99425000D02*
X98750000Y-99500000D01*
X101550000Y-101250000D02*
X101250000Y-101250000D01*
X101250000Y-101250000D02*
X99875000Y-99875000D01*
X99875000Y-99875000D02*
X99875000Y-99425000D01*
X99875000Y-99425000D02*
X101575000Y-99425000D01*
X101575000Y-99425000D02*
X101625000Y-99375000D01*
X31250000Y-101250000D02*
X31250000Y-101550000D01*
X31250000Y-101550000D02*
X31250000Y-101500000D01*
X31250000Y-101500000D02*
X31250000Y-101250000D01*
X31250000Y-101250000D02*
X30950000Y-101550000D01*
X30950000Y-101550000D02*
X31200000Y-101550000D01*
X31200000Y-101550000D02*
X31250000Y-101500000D01*
X31250000Y-101500000D02*
X31250000Y-101550000D01*
X32750000Y-99700000D02*
X32750000Y-99750000D01*
X32750000Y-99750000D02*
X31250000Y-101250000D01*
X31250000Y-101250000D02*
X30950000Y-101550000D01*
X29000000Y-100700000D02*
X29000000Y-100750000D01*
X29000000Y-100750000D02*
X29875000Y-101625000D01*
X29875000Y-101625000D02*
X29950000Y-101550000D01*
X29000000Y-102250000D02*
X29250000Y-102250000D01*
X29250000Y-102250000D02*
X29950000Y-101550000D01*
X29950000Y-101550000D02*
X30950000Y-101550000D01*
X30950000Y-101550000D02*
X31250000Y-101550000D01*
X31250000Y-101550000D02*
X32750000Y-101550000D01*
X94250000Y-102800000D02*
X94050000Y-102800000D01*
X94050000Y-102800000D02*
X93250000Y-102000000D01*
X93250000Y-102000000D02*
X93250000Y-100250000D01*
X94450000Y-101450000D02*
X94250000Y-101250000D01*
X92375000Y-99425000D02*
X92425000Y-99425000D01*
X92425000Y-99425000D02*
X93250000Y-100250000D01*
X93250000Y-100250000D02*
X94250000Y-101250000D01*
X92375000Y-97575000D02*
X91325000Y-97575000D01*
X91325000Y-99425000D02*
X92375000Y-99425000D01*
X91250000Y-99500000D02*
X91325000Y-99425000D01*
X91325000Y-97575000D02*
X91250000Y-97500000D01*
X39000000Y-101425000D02*
X39000000Y-101000000D01*
X39000000Y-101000000D02*
X38750000Y-101250000D01*
X40375000Y-99575000D02*
X40375000Y-99625000D01*
X40375000Y-99625000D02*
X38750000Y-101250000D01*
X38750000Y-101250000D02*
X38575000Y-101425000D01*
X37575000Y-101425000D02*
X37225000Y-101425000D01*
X37225000Y-101425000D02*
X36500000Y-100700000D01*
X36500000Y-102250000D02*
X36750000Y-102250000D01*
X36750000Y-102250000D02*
X37575000Y-101425000D01*
X37575000Y-101425000D02*
X38575000Y-101425000D01*
X38575000Y-101425000D02*
X39000000Y-101425000D01*
X39000000Y-101425000D02*
X40375000Y-101425000D01*
X86300000Y-100865000D02*
X87365000Y-100865000D01*
X99875000Y-102125000D02*
X99875000Y-101325000D01*
X98250000Y-103750000D02*
X99875000Y-102125000D01*
X90250000Y-103750000D02*
X98250000Y-103750000D01*
X87365000Y-100865000D02*
X90250000Y-103750000D01*
X32750000Y-103450000D02*
X32750000Y-104250000D01*
X32750000Y-104250000D02*
X34500000Y-106000000D01*
X43350000Y-102285000D02*
X42715000Y-102285000D01*
X42715000Y-102285000D02*
X41750000Y-103250000D01*
X40750000Y-106000000D02*
X34500000Y-106000000D01*
X101625000Y-95675000D02*
X99875000Y-95675000D01*
X97800000Y-93750000D02*
X97800000Y-93050000D01*
X90985000Y-92235000D02*
X88200000Y-92235000D01*
X91000000Y-92250000D02*
X90985000Y-92235000D01*
X97000000Y-92250000D02*
X93250000Y-92250000D01*
X97800000Y-93050000D02*
X97000000Y-92250000D01*
X97800000Y-93750000D02*
X97800000Y-93550000D01*
X97875000Y-96625000D02*
X97875000Y-93825000D01*
X97875000Y-93825000D02*
X97800000Y-93750000D01*
X27000000Y-100050000D02*
X27700000Y-100050000D01*
X31750000Y-98800000D02*
X32750000Y-97800000D01*
X31750000Y-99250000D02*
X31750000Y-98800000D01*
X31250000Y-99750000D02*
X31750000Y-99250000D01*
X28000000Y-99750000D02*
X31250000Y-99750000D01*
X27700000Y-100050000D02*
X28000000Y-99750000D01*
X31000000Y-96200000D02*
X35800000Y-96200000D01*
X43565000Y-95185000D02*
X43565000Y-94000000D01*
X42250000Y-96500000D02*
X43565000Y-95185000D01*
X36750000Y-95250000D02*
X41000000Y-95250000D01*
X35800000Y-96200000D02*
X36750000Y-95250000D01*
X30750000Y-98750000D02*
X30750000Y-96450000D01*
X30750000Y-96450000D02*
X31000000Y-96200000D01*
X86300000Y-102135000D02*
X87635000Y-102135000D01*
X92375000Y-101875000D02*
X92375000Y-101325000D01*
X92000000Y-102250000D02*
X92375000Y-101875000D01*
X91250000Y-102250000D02*
X92000000Y-102250000D01*
X90500000Y-103000000D02*
X91250000Y-102250000D01*
X87635000Y-102135000D02*
X89500000Y-104000000D01*
X40375000Y-103325000D02*
X40375000Y-103125000D01*
X40375000Y-103125000D02*
X42485000Y-101015000D01*
X42485000Y-101015000D02*
X43350000Y-101015000D01*
X94250000Y-95800000D02*
X92500000Y-95800000D01*
X92500000Y-95800000D02*
X92375000Y-95675000D01*
X90375000Y-96625000D02*
X90375000Y-93825000D01*
X90375000Y-93825000D02*
X90300000Y-93750000D01*
X90300000Y-93750000D02*
X89250000Y-93750000D01*
X89005000Y-93505000D02*
X88200000Y-93505000D01*
X89250000Y-93750000D02*
X89005000Y-93505000D01*
X34500000Y-100050000D02*
X35200000Y-100050000D01*
X39500000Y-98550000D02*
X40375000Y-97675000D01*
X39500000Y-99250000D02*
X39500000Y-98550000D01*
X39000000Y-99750000D02*
X39500000Y-99250000D01*
X35500000Y-99750000D02*
X39000000Y-99750000D01*
X35200000Y-100050000D02*
X35500000Y-99750000D01*
X38250000Y-96200000D02*
X41550000Y-96200000D01*
X42295000Y-95455000D02*
X42295000Y-94000000D01*
X41550000Y-96200000D02*
X42295000Y-95455000D01*
X38375000Y-98625000D02*
X38375000Y-96325000D01*
X38375000Y-96325000D02*
X38250000Y-96200000D01*
X42295000Y-94000000D02*
X42295000Y-94405000D01*
D40*
G36*
X49500000Y-54745000D02*
X53500000Y-54745000D01*
X53590492Y-54727000D01*
X62073000Y-54727000D01*
X62073000Y-74365000D01*
X55000000Y-74365000D01*
X54661325Y-74432367D01*
X54600513Y-74473000D01*
X53160868Y-74473000D01*
X52976441Y-74349770D01*
X52500000Y-74255000D01*
X52023560Y-74349770D01*
X51839133Y-74473000D01*
X42327000Y-74473000D01*
X42327000Y-54727000D01*
X49409508Y-54727000D01*
X49500000Y-54745000D01*
X49500000Y-54745000D01*
G37*
X49500000Y-54745000D02*
X53500000Y-54745000D01*
X53590492Y-54727000D01*
X62073000Y-54727000D01*
X62073000Y-74365000D01*
X55000000Y-74365000D01*
X54661325Y-74432367D01*
X54600513Y-74473000D01*
X53160868Y-74473000D01*
X52976441Y-74349770D01*
X52500000Y-74255000D01*
X52023560Y-74349770D01*
X51839133Y-74473000D01*
X42327000Y-74473000D01*
X42327000Y-54727000D01*
X49409508Y-54727000D01*
X49500000Y-54745000D01*
G36*
X40973000Y-74246304D02*
X40746304Y-74473000D01*
X21227000Y-74473000D01*
X21227000Y-54727000D01*
X40973000Y-54727000D01*
X40973000Y-74246304D01*
X40973000Y-74246304D01*
G37*
X40973000Y-74246304D02*
X40746304Y-74473000D01*
X21227000Y-74473000D01*
X21227000Y-54727000D01*
X40973000Y-54727000D01*
X40973000Y-74246304D01*
G36*
X70713201Y-54834838D02*
X71085167Y-54835162D01*
X71346940Y-54727000D01*
X87973000Y-54727000D01*
X87973000Y-65854682D01*
X87857808Y-65969673D01*
X87715162Y-66313201D01*
X87714838Y-66685167D01*
X87856883Y-67028943D01*
X87865000Y-67037074D01*
X87865000Y-69462494D01*
X87857808Y-69469673D01*
X87715162Y-69813201D01*
X87714838Y-70185167D01*
X87856883Y-70528943D01*
X87973000Y-70645263D01*
X87973000Y-74066304D01*
X87566304Y-74473000D01*
X68474579Y-74473000D01*
X68227000Y-74225420D01*
X68227000Y-54727000D01*
X70453500Y-54727000D01*
X70713201Y-54834838D01*
X70713201Y-54834838D01*
G37*
X70713201Y-54834838D02*
X71085167Y-54835162D01*
X71346940Y-54727000D01*
X87973000Y-54727000D01*
X87973000Y-65854682D01*
X87857808Y-65969673D01*
X87715162Y-66313201D01*
X87714838Y-66685167D01*
X87856883Y-67028943D01*
X87865000Y-67037074D01*
X87865000Y-69462494D01*
X87857808Y-69469673D01*
X87715162Y-69813201D01*
X87714838Y-70185167D01*
X87856883Y-70528943D01*
X87973000Y-70645263D01*
X87973000Y-74066304D01*
X87566304Y-74473000D01*
X68474579Y-74473000D01*
X68227000Y-74225420D01*
X68227000Y-54727000D01*
X70453500Y-54727000D01*
X70713201Y-54834838D01*
G36*
X109073000Y-74473000D02*
X100660868Y-74473000D01*
X100476441Y-74349770D01*
X100000000Y-74255000D01*
X99523560Y-74349770D01*
X99339133Y-74473000D01*
X89327000Y-74473000D01*
X89327000Y-70645318D01*
X89442192Y-70530327D01*
X89584838Y-70186799D01*
X89585162Y-69814833D01*
X89443117Y-69471057D01*
X89435000Y-69462926D01*
X89435000Y-67037506D01*
X89442192Y-67030327D01*
X89584838Y-66686799D01*
X89585162Y-66314833D01*
X89443117Y-65971057D01*
X89327000Y-65854737D01*
X89327000Y-54727000D01*
X109073000Y-54727000D01*
X109073000Y-74473000D01*
X109073000Y-74473000D01*
G37*
X109073000Y-74473000D02*
X100660868Y-74473000D01*
X100476441Y-74349770D01*
X100000000Y-74255000D01*
X99523560Y-74349770D01*
X99339133Y-74473000D01*
X89327000Y-74473000D01*
X89327000Y-70645318D01*
X89442192Y-70530327D01*
X89584838Y-70186799D01*
X89585162Y-69814833D01*
X89443117Y-69471057D01*
X89435000Y-69462926D01*
X89435000Y-67037506D01*
X89442192Y-67030327D01*
X89584838Y-66686799D01*
X89585162Y-66314833D01*
X89443117Y-65971057D01*
X89327000Y-65854737D01*
X89327000Y-54727000D01*
X109073000Y-54727000D01*
X109073000Y-74473000D01*
M02*
