%TF.GenerationSoftware,KiCad,Pcbnew,4.0.7-e2-6376~58~ubuntu16.04.1*%
%TF.CreationDate,2017-12-27T15:38:07+01:00*%
%TF.ProjectId,Class_D_Amp,436C6173735F445F416D702E6B696361,rev?*%
%TF.FileFunction,Soldermask,Top*%
%FSLAX46Y46*%
G04 Gerber Fmt 4.6, Leading zero omitted, Abs format (unit mm)*
G04 Created by KiCad (PCBNEW 4.0.7-e2-6376~58~ubuntu16.04.1) date Wed Dec 27 15:38:07 2017*
%MOMM*%
%LPD*%
G01*
G04 APERTURE LIST*
%ADD10C,0.150000*%
%ADD11C,3.400000*%
%ADD12R,3.400000X3.400000*%
%ADD13R,1.400000X1.650000*%
%ADD14R,2.000000X2.000000*%
%ADD15C,2.000000*%
%ADD16R,1.650000X1.400000*%
%ADD17R,2.800000X2.800000*%
%ADD18C,2.800000*%
%ADD19R,1.200000X1.300000*%
%ADD20C,2.400000*%
%ADD21R,1.600000X2.600000*%
%ADD22R,6.200000X6.800000*%
%ADD23R,1.100000X1.700000*%
%ADD24R,1.700000X1.100000*%
%ADD25R,2.100000X1.300000*%
%ADD26R,1.950000X1.000000*%
%ADD27O,2.600000X4.400000*%
%ADD28O,4.400000X2.600000*%
%ADD29R,1.000000X1.950000*%
%ADD30R,1.300000X1.200000*%
%ADD31C,3.600000*%
G04 APERTURE END LIST*
D10*
X110000000Y-21000000D02*
X110000000Y-110000000D01*
X20000000Y-21000000D02*
X20000000Y-110000000D01*
X105000000Y-16000000D02*
X25000000Y-16000000D01*
X25000000Y-115000000D02*
X105000000Y-115000000D01*
X20000000Y-110000000D02*
G75*
G03X25000000Y-115000000I5000000J0D01*
G01*
X25000000Y-16000000D02*
G75*
G03X20000000Y-21000000I0J-5000000D01*
G01*
X110000000Y-21000000D02*
G75*
G03X105000000Y-16000000I-5000000J0D01*
G01*
X105000000Y-115000000D02*
G75*
G03X110000000Y-110000000I0J5000000D01*
G01*
D11*
X59920000Y-19000000D03*
X54840000Y-19000000D03*
D12*
X65000000Y-19000000D03*
D11*
X49760000Y-19000000D03*
D13*
X82600000Y-87900000D03*
X84600000Y-87900000D03*
X86600000Y-97700000D03*
X84600000Y-97700000D03*
X80600000Y-105300000D03*
X82600000Y-105300000D03*
D14*
X81700000Y-27300000D03*
D15*
X79200000Y-27300000D03*
D14*
X74300000Y-27300000D03*
D15*
X71800000Y-27300000D03*
D13*
X103625000Y-99375000D03*
X101625000Y-99375000D03*
D16*
X80700000Y-91500000D03*
X80700000Y-93500000D03*
D15*
X87000000Y-30000000D03*
X87000000Y-35000000D03*
D16*
X29000000Y-104250000D03*
X29000000Y-102250000D03*
D13*
X68250000Y-80250000D03*
X66250000Y-80250000D03*
X62250000Y-88250000D03*
X64250000Y-88250000D03*
D16*
X78800000Y-98800000D03*
X78800000Y-96800000D03*
D17*
X68500000Y-39500000D03*
D18*
X76000000Y-39500000D03*
D17*
X59000000Y-32000000D03*
D18*
X51500000Y-32000000D03*
D16*
X47900000Y-88500000D03*
X47900000Y-90500000D03*
D13*
X43050000Y-105450000D03*
X45050000Y-105450000D03*
X49050000Y-97850000D03*
X47050000Y-97850000D03*
D16*
X96250000Y-97500000D03*
X96250000Y-95500000D03*
D13*
X44300000Y-86500000D03*
X42300000Y-86500000D03*
D15*
X31000000Y-30000000D03*
X31000000Y-35000000D03*
D16*
X31750000Y-105250000D03*
X31750000Y-107250000D03*
X50850000Y-104350000D03*
X50850000Y-106350000D03*
X72000000Y-90000000D03*
X72000000Y-88000000D03*
D14*
X68000000Y-92000000D03*
D15*
X68000000Y-94000000D03*
D16*
X80000000Y-75500000D03*
X80000000Y-77500000D03*
X97300000Y-76500000D03*
X97300000Y-78500000D03*
D14*
X62000000Y-92000000D03*
D15*
X62000000Y-94000000D03*
D16*
X58000000Y-89000000D03*
X58000000Y-91000000D03*
X78800000Y-102400000D03*
X78800000Y-100400000D03*
X50850000Y-100750000D03*
X50850000Y-102750000D03*
X32800000Y-75800000D03*
X32800000Y-77800000D03*
X50500000Y-76500000D03*
X50500000Y-78500000D03*
D14*
X56500000Y-44000000D03*
D15*
X54000000Y-44000000D03*
D19*
X73750000Y-79900000D03*
X71850000Y-79900000D03*
X72800000Y-81900000D03*
X55950000Y-78500000D03*
X54050000Y-78500000D03*
X55000000Y-80500000D03*
D20*
X90200000Y-25600000D03*
X101800000Y-52400000D03*
X34200000Y-25600000D03*
X45800000Y-52400000D03*
D12*
X94000000Y-19000000D03*
D11*
X88920000Y-19000000D03*
D12*
X43000000Y-19000000D03*
D11*
X37920000Y-19000000D03*
D12*
X82000000Y-19000000D03*
D11*
X76920000Y-19000000D03*
X71840000Y-19000000D03*
D19*
X75550000Y-81900000D03*
X77450000Y-81900000D03*
X76500000Y-79900000D03*
X57750000Y-80500000D03*
X59650000Y-80500000D03*
X58700000Y-78500000D03*
D21*
X82320000Y-77400000D03*
X86880000Y-77400000D03*
D22*
X84600000Y-71100000D03*
D21*
X90420000Y-77400000D03*
X94980000Y-77400000D03*
D22*
X92700000Y-71100000D03*
D21*
X35320000Y-77100000D03*
X39880000Y-77100000D03*
D22*
X37600000Y-70800000D03*
D21*
X43420000Y-77100000D03*
X47980000Y-77100000D03*
D22*
X45700000Y-70800000D03*
D23*
X74250000Y-78100000D03*
X76150000Y-78100000D03*
X56450000Y-76700000D03*
X58350000Y-76700000D03*
D24*
X78800000Y-103850000D03*
X78800000Y-105750000D03*
D23*
X75250000Y-103800000D03*
X77150000Y-103800000D03*
D25*
X82650000Y-79750000D03*
X82650000Y-82650000D03*
D23*
X103450000Y-101250000D03*
X101550000Y-101250000D03*
X77150000Y-98900000D03*
X75250000Y-98900000D03*
D24*
X29000000Y-98800000D03*
X29000000Y-100700000D03*
D25*
X90700000Y-79750000D03*
X90700000Y-82650000D03*
D23*
X75250000Y-100800000D03*
X77150000Y-100800000D03*
D24*
X72000000Y-84550000D03*
X72000000Y-86450000D03*
X70000000Y-86450000D03*
X70000000Y-84550000D03*
X58000000Y-85550000D03*
X58000000Y-87450000D03*
X50850000Y-99300000D03*
X50850000Y-97400000D03*
D23*
X54400000Y-99450000D03*
X52500000Y-99450000D03*
D25*
X35600000Y-79450000D03*
X35600000Y-82350000D03*
D24*
X60250000Y-85200000D03*
X60250000Y-83300000D03*
X101625000Y-95675000D03*
X101625000Y-97575000D03*
D23*
X52500000Y-104350000D03*
X54400000Y-104350000D03*
X99700000Y-93750000D03*
X97800000Y-93750000D03*
D25*
X43700000Y-79450000D03*
X43700000Y-82350000D03*
D23*
X54350000Y-102400000D03*
X52450000Y-102400000D03*
D24*
X68000000Y-96550000D03*
X68000000Y-98450000D03*
X62000000Y-96550000D03*
X62000000Y-98450000D03*
D26*
X80900000Y-99595000D03*
X80900000Y-100865000D03*
X80900000Y-102135000D03*
X80900000Y-103405000D03*
X86300000Y-103405000D03*
X86300000Y-102135000D03*
X86300000Y-100865000D03*
X86300000Y-99595000D03*
X82800000Y-89695000D03*
X82800000Y-90965000D03*
X82800000Y-92235000D03*
X82800000Y-93505000D03*
X88200000Y-93505000D03*
X88200000Y-92235000D03*
X88200000Y-90965000D03*
X88200000Y-89695000D03*
X67950000Y-86155000D03*
X67950000Y-84885000D03*
X67950000Y-83615000D03*
X67950000Y-82345000D03*
X62550000Y-82345000D03*
X62550000Y-83615000D03*
X62550000Y-84885000D03*
X62550000Y-86155000D03*
D27*
X69500000Y-109000000D03*
D28*
X69000000Y-101700000D03*
D27*
X62400000Y-106100000D03*
X59700000Y-104900000D03*
D28*
X64900000Y-112900000D03*
D26*
X48750000Y-103555000D03*
X48750000Y-102285000D03*
X48750000Y-101015000D03*
X48750000Y-99745000D03*
X43350000Y-99745000D03*
X43350000Y-101015000D03*
X43350000Y-102285000D03*
X43350000Y-103555000D03*
D29*
X46105000Y-88600000D03*
X44835000Y-88600000D03*
X43565000Y-88600000D03*
X42295000Y-88600000D03*
X42295000Y-94000000D03*
X43565000Y-94000000D03*
X44835000Y-94000000D03*
X46105000Y-94000000D03*
D16*
X87000000Y-27000000D03*
X87000000Y-25000000D03*
X31000000Y-27000000D03*
X31000000Y-25000000D03*
X94250000Y-99250000D03*
X94250000Y-101250000D03*
X36500000Y-104250000D03*
X36500000Y-102250000D03*
X88750000Y-97500000D03*
X88750000Y-95500000D03*
X39250000Y-105000000D03*
X39250000Y-107000000D03*
D30*
X99875000Y-101325000D03*
X99875000Y-99425000D03*
X97875000Y-100375000D03*
X32750000Y-103450000D03*
X32750000Y-101550000D03*
X30750000Y-102500000D03*
X99875000Y-97575000D03*
X99875000Y-95675000D03*
X97875000Y-96625000D03*
X32750000Y-99700000D03*
X32750000Y-97800000D03*
X30750000Y-98750000D03*
X92375000Y-101325000D03*
X92375000Y-99425000D03*
X90375000Y-100375000D03*
X40375000Y-103325000D03*
X40375000Y-101425000D03*
X38375000Y-102375000D03*
X92375000Y-97575000D03*
X92375000Y-95675000D03*
X90375000Y-96625000D03*
X40375000Y-99575000D03*
X40375000Y-97675000D03*
X38375000Y-98625000D03*
D24*
X27000000Y-100050000D03*
X27000000Y-101950000D03*
X31000000Y-94300000D03*
X31000000Y-96200000D03*
X94250000Y-104700000D03*
X94250000Y-102800000D03*
X36500000Y-98800000D03*
X36500000Y-100700000D03*
X94250000Y-95800000D03*
X94250000Y-97700000D03*
D23*
X92200000Y-93750000D03*
X90300000Y-93750000D03*
D24*
X34500000Y-100050000D03*
X34500000Y-101950000D03*
X38250000Y-94300000D03*
X38250000Y-96200000D03*
D31*
X105000000Y-21000000D03*
X105000000Y-110000000D03*
X25000000Y-110000000D03*
X25000000Y-21000000D03*
M02*
