M48
;DRILL file {KiCad 4.0.7-e2-6376~58~ubuntu16.04.1} date Sat Dec 23 19:49:31 2017
;FORMAT={-:-/ absolute / inch / decimal}
FMAT,2
INCH,TZ
T1C0.016
T2C0.024
T3C0.031
T4C0.039
T5C0.047
T6C0.051
T7C0.060
%
G90
G05
M72
T1
X2.2362Y-3.4724
X2.3307Y-3.4685
X2.4606Y-3.9961
X2.7913Y-2.122
X2.8917Y-2.0236
X3.4902Y-2.6181
X3.4902Y-2.7559
T2
X1.2205Y-0.9252
X1.2913Y-3.1181
X1.4449Y-3.8307
X1.4449Y-4.1732
X1.5551Y-3.5531
X1.6043Y-3.4744
X1.7067Y-3.8642
X1.7618Y-3.6024
X1.7913Y-3.2874
X1.8287Y-4.1516
X1.8701Y-3.7913
X1.8898Y-3.2874
X1.8898Y-3.4252
X1.939Y-1.8406
X1.939Y-4.187
X1.9488Y-2.1063
X1.9882Y-3.1457
X1.998Y-3.3268
X2.002Y-3.7854
X2.0354Y-3.4843
X2.0669Y-2.9724
X2.0866Y-3.622
X2.0945Y-3.4252
X2.0984Y-3.752
X2.1063Y-1.8406
X2.1063Y-2.1063
X2.1654Y-3.2283
X2.2244Y-1.811
X2.2244Y-2.0079
X2.2677Y-3.752
X2.2835Y-3.6417
X2.3031Y-3.8976
X2.372Y-3.8386
X2.3898Y-3.2283
X2.3898Y-3.9173
X2.4902Y-2.6969
X2.5098Y-1.8504
X2.5472Y-2.9961
X2.5492Y-3.0906
X2.5591Y-4.0512
X2.5906Y-3.4764
X2.6063Y-3.2244
X2.6181Y-1.7421
X2.6378Y-1.998
X2.6378Y-2.6969
X2.7087Y-4.1024
X2.7264Y-1.7224
X2.748Y-3.2756
X2.7559Y-1.8799
X2.7835Y-4.1575
X2.8346Y-3.6024
X2.8445Y-3.6909
X2.8583Y-3.0866
X2.8642Y-1.5846
X2.9035Y-3.8878
X2.9134Y-1.9094
X2.9331Y-3.6909
X2.9626Y-3.8287
X3.0413Y-3.6909
X3.0512Y-1.7717
X3.1004Y-3.75
X3.1024Y-4.2126
X3.1299Y-3.4154
X3.1496Y-3.1102
X3.1693Y-3.811
X3.1988Y-3.4843
X3.248Y-3.3071
X3.2717Y-3.8465
X3.311Y-4.1457
X3.3268Y-3.3661
X3.3661Y-3.5728
X3.3976Y-4.1299
X3.4252Y-0.9252
X3.4252Y-3.4646
X3.6496Y-3.8189
X3.6496Y-4.1614
X3.8307Y-3.1496
X3.937Y-2.9724
T3
X1.2205Y-1.1811
X1.2205Y-1.378
X2.126Y-1.7323
X2.2244Y-1.7323
X2.4409Y-3.622
X2.4409Y-3.7008
X2.6772Y-3.622
X2.6772Y-3.7008
X2.8268Y-1.0748
X2.9252Y-1.0748
X3.1181Y-1.0748
X3.2165Y-1.0748
X3.4252Y-1.1811
X3.4252Y-1.378
T4
X1.3465Y-1.0079
X1.8031Y-2.063
X3.5512Y-1.0079
X4.0079Y-2.063
T5
X2.0276Y-1.2598
X2.3228Y-1.2598
X2.6969Y-1.5551
X2.9921Y-1.5551
T6
X2.3504Y-4.1299
X2.4567Y-4.1772
X2.5551Y-4.4449
X2.7165Y-4.0039
X2.7362Y-4.2913
T7
X1.4929Y-0.748
X1.6929Y-0.748
X1.9591Y-0.748
X2.1591Y-0.748
X2.3591Y-0.748
X2.5591Y-0.748
X2.8283Y-0.748
X3.0283Y-0.748
X3.2283Y-0.748
X3.5008Y-0.748
X3.7008Y-0.748
T0
M30
