%TF.GenerationSoftware,KiCad,Pcbnew,4.0.7-e2-6376~58~ubuntu16.04.1*%
%TF.CreationDate,2017-12-27T15:38:07+01:00*%
%TF.ProjectId,Class_D_Amp,436C6173735F445F416D702E6B696361,rev?*%
%TF.FileFunction,Copper,L2,Bot,Signal*%
%FSLAX46Y46*%
G04 Gerber Fmt 4.6, Leading zero omitted, Abs format (unit mm)*
G04 Created by KiCad (PCBNEW 4.0.7-e2-6376~58~ubuntu16.04.1) date Wed Dec 27 15:38:07 2017*
%MOMM*%
%LPD*%
G01*
G04 APERTURE LIST*
%ADD10C,0.150000*%
%ADD11C,3.000000*%
%ADD12R,3.000000X3.000000*%
%ADD13R,1.600000X1.600000*%
%ADD14C,1.600000*%
%ADD15R,2.400000X2.400000*%
%ADD16C,2.400000*%
%ADD17C,2.000000*%
%ADD18O,2.200000X4.000000*%
%ADD19O,4.000000X2.200000*%
%ADD20C,0.600000*%
%ADD21C,1.000000*%
%ADD22C,0.800000*%
%ADD23C,1.220000*%
%ADD24C,0.500000*%
%ADD25C,0.300000*%
%ADD26C,0.254000*%
G04 APERTURE END LIST*
D10*
X110000000Y-21000000D02*
X110000000Y-110000000D01*
X20000000Y-21000000D02*
X20000000Y-110000000D01*
X105000000Y-16000000D02*
X25000000Y-16000000D01*
X25000000Y-115000000D02*
X105000000Y-115000000D01*
X20000000Y-110000000D02*
G75*
G03X25000000Y-115000000I5000000J0D01*
G01*
X25000000Y-16000000D02*
G75*
G03X20000000Y-21000000I0J-5000000D01*
G01*
X110000000Y-21000000D02*
G75*
G03X105000000Y-16000000I-5000000J0D01*
G01*
X105000000Y-115000000D02*
G75*
G03X110000000Y-110000000I0J5000000D01*
G01*
D11*
X59920000Y-19000000D03*
X54840000Y-19000000D03*
D12*
X65000000Y-19000000D03*
D11*
X49760000Y-19000000D03*
D13*
X81700000Y-27300000D03*
D14*
X79200000Y-27300000D03*
D13*
X74300000Y-27300000D03*
D14*
X71800000Y-27300000D03*
X87000000Y-30000000D03*
X87000000Y-35000000D03*
D15*
X68500000Y-39500000D03*
D16*
X76000000Y-39500000D03*
D15*
X59000000Y-32000000D03*
D16*
X51500000Y-32000000D03*
D14*
X31000000Y-30000000D03*
X31000000Y-35000000D03*
D13*
X68000000Y-92000000D03*
D14*
X68000000Y-94000000D03*
D13*
X62000000Y-92000000D03*
D14*
X62000000Y-94000000D03*
D13*
X56500000Y-44000000D03*
D14*
X54000000Y-44000000D03*
D17*
X90200000Y-25600000D03*
X101800000Y-52400000D03*
X34200000Y-25600000D03*
X45800000Y-52400000D03*
D12*
X94000000Y-19000000D03*
D11*
X88920000Y-19000000D03*
D12*
X43000000Y-19000000D03*
D11*
X37920000Y-19000000D03*
D12*
X82000000Y-19000000D03*
D11*
X76920000Y-19000000D03*
X71840000Y-19000000D03*
D18*
X69500000Y-109000000D03*
D19*
X69000000Y-101700000D03*
D18*
X62400000Y-106100000D03*
X59700000Y-104900000D03*
D19*
X64900000Y-112900000D03*
D20*
X70900000Y-53900000D03*
X73450000Y-51400000D03*
X88650000Y-70000000D03*
X88650000Y-66500000D03*
D21*
X53500000Y-46750000D03*
X49250000Y-46750000D03*
X49500000Y-53500000D03*
X53500000Y-53500000D03*
X63750000Y-47000000D03*
X66500000Y-44250000D03*
X67000000Y-50750000D03*
X70000000Y-47750000D03*
X74000000Y-48500000D03*
X77500000Y-45000000D03*
X64750000Y-78500000D03*
X64700000Y-76100000D03*
X29000000Y-97500000D03*
X31750000Y-108750000D03*
X37500000Y-107000000D03*
X36500000Y-97250000D03*
X96250000Y-94000000D03*
X104750000Y-101250000D03*
X94250000Y-106000000D03*
X87000000Y-95500000D03*
X55000000Y-82000000D03*
X47500000Y-96300000D03*
X80000000Y-79000000D03*
X66200000Y-81900000D03*
X97300000Y-80000000D03*
X50500000Y-79900000D03*
X32800000Y-79200000D03*
X31000000Y-23500000D03*
X87000000Y-23500000D03*
X49250000Y-106350000D03*
X46450000Y-105450000D03*
X50850000Y-96150000D03*
X43350000Y-98150000D03*
X80500000Y-96800000D03*
X83100000Y-97700000D03*
X78800000Y-107000000D03*
X84100000Y-105300000D03*
X86300000Y-104900000D03*
D22*
X72600000Y-78400000D03*
D21*
X60700000Y-82000000D03*
D22*
X69800000Y-83200000D03*
D21*
X72000000Y-91500000D03*
X58000000Y-92500000D03*
X65800000Y-88300000D03*
X89000000Y-101000000D03*
X96000000Y-101250000D03*
X58500000Y-99000000D03*
X60250000Y-97500000D03*
X72250000Y-93750000D03*
X74500000Y-93750000D03*
X77250000Y-93750000D03*
X78750000Y-95250000D03*
X53300000Y-95300000D03*
X57600000Y-95300000D03*
X60700000Y-99500000D03*
X65000000Y-102900000D03*
X68800000Y-104200000D03*
X70700000Y-105600000D03*
X51700000Y-88500000D03*
X53200000Y-87000000D03*
X69250000Y-43750000D03*
X72750000Y-40250000D03*
X46500000Y-85500000D03*
X40750000Y-85750000D03*
X38500000Y-85750000D03*
X36750000Y-87500000D03*
X52500000Y-75500000D03*
X100000000Y-75500000D03*
X48000000Y-87000000D03*
X50750000Y-84500000D03*
X63250000Y-68500000D03*
X67000000Y-68500000D03*
X79500000Y-86750000D03*
X81250000Y-88500000D03*
X56500000Y-51000000D03*
X56500000Y-46000000D03*
X82500000Y-84000000D03*
X84500000Y-85500000D03*
X87000000Y-88000000D03*
X85500000Y-90750000D03*
D20*
X56800000Y-88200000D03*
X59200000Y-88100000D03*
D21*
X45500000Y-83500000D03*
X48000000Y-83500000D03*
D20*
X62500000Y-101500000D03*
D21*
X75250000Y-97250000D03*
X73750000Y-98750000D03*
X40750000Y-88250000D03*
X39500000Y-90250000D03*
X44750000Y-91500000D03*
X53000000Y-92000000D03*
D20*
X98750000Y-97500000D03*
X98750000Y-99500000D03*
X91250000Y-99500000D03*
X91250000Y-97500000D03*
X41750000Y-103250000D03*
X40750000Y-106000000D03*
X91000000Y-92250000D03*
X93250000Y-92250000D03*
X42250000Y-96500000D03*
X41000000Y-95250000D03*
X90500000Y-103000000D03*
X89500000Y-104000000D03*
D23*
X53750000Y-53500000D02*
X53500000Y-53500000D01*
D24*
X77500000Y-45000000D02*
X74000000Y-48500000D01*
X64750000Y-78500000D02*
X64700000Y-76100000D01*
D25*
X95750000Y-101000000D02*
X89000000Y-101000000D01*
X96000000Y-101250000D02*
X95750000Y-101000000D01*
D24*
X60000000Y-97500000D02*
X58500000Y-99000000D01*
X60250000Y-97500000D02*
X60000000Y-97500000D01*
X74500000Y-93750000D02*
X72250000Y-93750000D01*
X78750000Y-95250000D02*
X77250000Y-93750000D01*
X57600000Y-95300000D02*
X53300000Y-95300000D01*
X63000000Y-99500000D02*
X60700000Y-99500000D01*
X63600000Y-100100000D02*
X63000000Y-99500000D01*
X63600000Y-101500000D02*
X63600000Y-100100000D01*
X65000000Y-102900000D02*
X63600000Y-101500000D01*
X69300000Y-104200000D02*
X68800000Y-104200000D01*
X70700000Y-105600000D02*
X69300000Y-104200000D01*
X53200000Y-87000000D02*
X51700000Y-88500000D01*
X72750000Y-40250000D02*
X69250000Y-43750000D01*
D25*
X46500000Y-85500000D02*
X46250000Y-85750000D01*
D24*
X46250000Y-85750000D02*
X40750000Y-85750000D01*
X38500000Y-85750000D02*
X36750000Y-87500000D01*
D23*
X51500000Y-32000000D02*
X51500000Y-74500000D01*
X51500000Y-74500000D02*
X52500000Y-75500000D01*
X51500000Y-32000000D02*
X87750000Y-68250000D01*
X92750000Y-68250000D02*
X100000000Y-75500000D01*
X87750000Y-68250000D02*
X92750000Y-68250000D01*
D24*
X48250000Y-87000000D02*
X48000000Y-87000000D01*
X50750000Y-84500000D02*
X48250000Y-87000000D01*
X67000000Y-68500000D02*
X63250000Y-68500000D01*
X81250000Y-88500000D02*
X79500000Y-86750000D01*
X56500000Y-46000000D02*
X56500000Y-51000000D01*
X83000000Y-84000000D02*
X82500000Y-84000000D01*
X84500000Y-85500000D02*
X83000000Y-84000000D01*
X87000000Y-89250000D02*
X87000000Y-88000000D01*
X85500000Y-90750000D02*
X87000000Y-89250000D01*
D25*
X59100000Y-88200000D02*
X56800000Y-88200000D01*
X59200000Y-88100000D02*
X59100000Y-88200000D01*
D24*
X48000000Y-83500000D02*
X45500000Y-83500000D01*
D25*
X62400000Y-106100000D02*
X62500000Y-106000000D01*
X62500000Y-106000000D02*
X62500000Y-101500000D01*
D24*
X73750000Y-98750000D02*
X75250000Y-97250000D01*
X39500000Y-89500000D02*
X40750000Y-88250000D01*
X39500000Y-90250000D02*
X39500000Y-89500000D01*
X52500000Y-91500000D02*
X44750000Y-91500000D01*
X53000000Y-92000000D02*
X52500000Y-91500000D01*
D25*
X98750000Y-99500000D02*
X98750000Y-97500000D01*
X91250000Y-97500000D02*
X91250000Y-99500000D01*
X41750000Y-103250000D02*
X40750000Y-104250000D01*
X40750000Y-104250000D02*
X40750000Y-106000000D01*
X93250000Y-92250000D02*
X91000000Y-92250000D01*
X41000000Y-95250000D02*
X42250000Y-96500000D01*
X89500000Y-104000000D02*
X90500000Y-103000000D01*
D26*
G36*
X106636390Y-17049408D02*
X108023654Y-17976349D01*
X108950592Y-19363610D01*
X109290000Y-21069931D01*
X109290000Y-109930069D01*
X108950592Y-111636390D01*
X108023654Y-113023651D01*
X106636390Y-113950592D01*
X104930069Y-114290000D01*
X66792102Y-114290000D01*
X67116632Y-114037028D01*
X67451531Y-113446624D01*
X67489175Y-113296122D01*
X67371125Y-113027000D01*
X65027000Y-113027000D01*
X65027000Y-113047000D01*
X64773000Y-113047000D01*
X64773000Y-113027000D01*
X62428875Y-113027000D01*
X62310825Y-113296122D01*
X62348469Y-113446624D01*
X62683368Y-114037028D01*
X63007898Y-114290000D01*
X25069931Y-114290000D01*
X23363610Y-113950592D01*
X21976349Y-113023654D01*
X21629046Y-112503878D01*
X62310825Y-112503878D01*
X62428875Y-112773000D01*
X64773000Y-112773000D01*
X64773000Y-111165000D01*
X65027000Y-111165000D01*
X65027000Y-112773000D01*
X67371125Y-112773000D01*
X67489175Y-112503878D01*
X67451531Y-112353376D01*
X67116632Y-111762972D01*
X66581288Y-111345670D01*
X65927000Y-111165000D01*
X65027000Y-111165000D01*
X64773000Y-111165000D01*
X63873000Y-111165000D01*
X63218712Y-111345670D01*
X62683368Y-111762972D01*
X62348469Y-112353376D01*
X62310825Y-112503878D01*
X21629046Y-112503878D01*
X21049408Y-111636390D01*
X20811953Y-110442619D01*
X22764613Y-110442619D01*
X23104155Y-111264372D01*
X23732321Y-111893636D01*
X24553481Y-112234611D01*
X25442619Y-112235387D01*
X26264372Y-111895845D01*
X26893636Y-111267679D01*
X27234611Y-110446519D01*
X27235387Y-109557381D01*
X27057557Y-109127000D01*
X67765000Y-109127000D01*
X67765000Y-110027000D01*
X67945670Y-110681288D01*
X68362972Y-111216632D01*
X68953376Y-111551531D01*
X69103878Y-111589175D01*
X69373000Y-111471125D01*
X69373000Y-109127000D01*
X69627000Y-109127000D01*
X69627000Y-111471125D01*
X69896122Y-111589175D01*
X70046624Y-111551531D01*
X70637028Y-111216632D01*
X71054330Y-110681288D01*
X71120234Y-110442619D01*
X102764613Y-110442619D01*
X103104155Y-111264372D01*
X103732321Y-111893636D01*
X104553481Y-112234611D01*
X105442619Y-112235387D01*
X106264372Y-111895845D01*
X106893636Y-111267679D01*
X107234611Y-110446519D01*
X107235387Y-109557381D01*
X106895845Y-108735628D01*
X106267679Y-108106364D01*
X105446519Y-107765389D01*
X104557381Y-107764613D01*
X103735628Y-108104155D01*
X103106364Y-108732321D01*
X102765389Y-109553481D01*
X102764613Y-110442619D01*
X71120234Y-110442619D01*
X71235000Y-110027000D01*
X71235000Y-109127000D01*
X69627000Y-109127000D01*
X69373000Y-109127000D01*
X67765000Y-109127000D01*
X27057557Y-109127000D01*
X26895845Y-108735628D01*
X26267679Y-108106364D01*
X25446519Y-107765389D01*
X24557381Y-107764613D01*
X23735628Y-108104155D01*
X23106364Y-108732321D01*
X22765389Y-109553481D01*
X22764613Y-110442619D01*
X20811953Y-110442619D01*
X20710000Y-109930069D01*
X20710000Y-106185167D01*
X39814838Y-106185167D01*
X39956883Y-106528943D01*
X40219673Y-106792192D01*
X40563201Y-106934838D01*
X40935167Y-106935162D01*
X41278943Y-106793117D01*
X41542192Y-106530327D01*
X41684838Y-106186799D01*
X41685162Y-105814833D01*
X41543117Y-105471057D01*
X41535000Y-105462926D01*
X41535000Y-104575158D01*
X41925005Y-104185153D01*
X41935167Y-104185162D01*
X42278943Y-104043117D01*
X42542192Y-103780327D01*
X42684838Y-103436799D01*
X42685162Y-103064833D01*
X42543117Y-102721057D01*
X42280327Y-102457808D01*
X41936799Y-102315162D01*
X41564833Y-102314838D01*
X41221057Y-102456883D01*
X40957808Y-102719673D01*
X40815162Y-103063201D01*
X40815152Y-103074690D01*
X40194921Y-103694921D01*
X40024755Y-103949593D01*
X40007806Y-104034803D01*
X39965000Y-104250000D01*
X39965000Y-105462494D01*
X39957808Y-105469673D01*
X39815162Y-105813201D01*
X39814838Y-106185167D01*
X20710000Y-106185167D01*
X20710000Y-99224775D01*
X57364803Y-99224775D01*
X57537233Y-99642086D01*
X57856235Y-99961645D01*
X58273244Y-100134803D01*
X58724775Y-100135197D01*
X59142086Y-99962767D01*
X59461645Y-99643765D01*
X59565091Y-99394640D01*
X59564803Y-99724775D01*
X59737233Y-100142086D01*
X60056235Y-100461645D01*
X60473244Y-100634803D01*
X60924775Y-100635197D01*
X61342086Y-100462767D01*
X61419989Y-100385000D01*
X62633420Y-100385000D01*
X62715000Y-100466579D01*
X62715000Y-100576872D01*
X62686799Y-100565162D01*
X62314833Y-100564838D01*
X61971057Y-100706883D01*
X61707808Y-100969673D01*
X61565162Y-101313201D01*
X61564838Y-101685167D01*
X61706883Y-102028943D01*
X61715000Y-102037074D01*
X61715000Y-103559507D01*
X61399572Y-103770270D01*
X61302931Y-103284421D01*
X60926830Y-102721547D01*
X60363956Y-102345446D01*
X59700000Y-102213377D01*
X59036044Y-102345446D01*
X58473170Y-102721547D01*
X58097069Y-103284421D01*
X57965000Y-103948377D01*
X57965000Y-105851623D01*
X58097069Y-106515579D01*
X58473170Y-107078453D01*
X59036044Y-107454554D01*
X59700000Y-107586623D01*
X60363956Y-107454554D01*
X60700428Y-107229730D01*
X60797069Y-107715579D01*
X61173170Y-108278453D01*
X61736044Y-108654554D01*
X62400000Y-108786623D01*
X63063956Y-108654554D01*
X63626830Y-108278453D01*
X63830927Y-107973000D01*
X67765000Y-107973000D01*
X67765000Y-108873000D01*
X69373000Y-108873000D01*
X69373000Y-106528875D01*
X69103878Y-106410825D01*
X68953376Y-106448469D01*
X68362972Y-106783368D01*
X67945670Y-107318712D01*
X67765000Y-107973000D01*
X63830927Y-107973000D01*
X64002931Y-107715579D01*
X64135000Y-107051623D01*
X64135000Y-105148377D01*
X64002931Y-104484421D01*
X63626830Y-103921547D01*
X63285000Y-103693143D01*
X63285000Y-102436580D01*
X63864897Y-103016477D01*
X63864803Y-103124775D01*
X64037233Y-103542086D01*
X64356235Y-103861645D01*
X64773244Y-104034803D01*
X65224775Y-104035197D01*
X65642086Y-103862767D01*
X65961645Y-103543765D01*
X66134803Y-103126756D01*
X66135197Y-102675225D01*
X65962767Y-102257914D01*
X65801258Y-102096122D01*
X66410825Y-102096122D01*
X66448469Y-102246624D01*
X66783368Y-102837028D01*
X67318712Y-103254330D01*
X67962661Y-103432145D01*
X67838355Y-103556235D01*
X67665197Y-103973244D01*
X67664803Y-104424775D01*
X67837233Y-104842086D01*
X68156235Y-105161645D01*
X68573244Y-105334803D01*
X69024775Y-105335197D01*
X69137175Y-105288754D01*
X69564897Y-105716477D01*
X69564803Y-105824775D01*
X69737233Y-106242086D01*
X69908858Y-106414011D01*
X69896122Y-106410825D01*
X69627000Y-106528875D01*
X69627000Y-108873000D01*
X71235000Y-108873000D01*
X71235000Y-107973000D01*
X71054330Y-107318712D01*
X70637028Y-106783368D01*
X70551532Y-106734871D01*
X70924775Y-106735197D01*
X71342086Y-106562767D01*
X71661645Y-106243765D01*
X71834803Y-105826756D01*
X71835197Y-105375225D01*
X71662767Y-104957914D01*
X71343765Y-104638355D01*
X70926756Y-104465197D01*
X70816680Y-104465101D01*
X70536747Y-104185167D01*
X88564838Y-104185167D01*
X88706883Y-104528943D01*
X88969673Y-104792192D01*
X89313201Y-104934838D01*
X89685167Y-104935162D01*
X90028943Y-104793117D01*
X90292192Y-104530327D01*
X90434838Y-104186799D01*
X90434848Y-104175310D01*
X90675005Y-103935153D01*
X90685167Y-103935162D01*
X91028943Y-103793117D01*
X91292192Y-103530327D01*
X91434838Y-103186799D01*
X91435162Y-102814833D01*
X91293117Y-102471057D01*
X91030327Y-102207808D01*
X90686799Y-102065162D01*
X90314833Y-102064838D01*
X89971057Y-102206883D01*
X89707808Y-102469673D01*
X89565162Y-102813201D01*
X89565152Y-102824690D01*
X89324995Y-103064847D01*
X89314833Y-103064838D01*
X88971057Y-103206883D01*
X88707808Y-103469673D01*
X88565162Y-103813201D01*
X88564838Y-104185167D01*
X70536747Y-104185167D01*
X69925790Y-103574210D01*
X69897158Y-103555079D01*
X69717446Y-103435000D01*
X70027000Y-103435000D01*
X70681288Y-103254330D01*
X71216632Y-102837028D01*
X71551531Y-102246624D01*
X71589175Y-102096122D01*
X71471125Y-101827000D01*
X69127000Y-101827000D01*
X69127000Y-101847000D01*
X68873000Y-101847000D01*
X68873000Y-101827000D01*
X66528875Y-101827000D01*
X66410825Y-102096122D01*
X65801258Y-102096122D01*
X65643765Y-101938355D01*
X65226756Y-101765197D01*
X65116680Y-101765101D01*
X64655458Y-101303878D01*
X66410825Y-101303878D01*
X66528875Y-101573000D01*
X68873000Y-101573000D01*
X68873000Y-99965000D01*
X69127000Y-99965000D01*
X69127000Y-101573000D01*
X71471125Y-101573000D01*
X71589175Y-101303878D01*
X71569390Y-101224775D01*
X87864803Y-101224775D01*
X88037233Y-101642086D01*
X88356235Y-101961645D01*
X88773244Y-102134803D01*
X89224775Y-102135197D01*
X89642086Y-101962767D01*
X89820163Y-101785000D01*
X94992986Y-101785000D01*
X95037233Y-101892086D01*
X95356235Y-102211645D01*
X95773244Y-102384803D01*
X96224775Y-102385197D01*
X96642086Y-102212767D01*
X96961645Y-101893765D01*
X97134803Y-101476756D01*
X97135197Y-101025225D01*
X96962767Y-100607914D01*
X96643765Y-100288355D01*
X96226756Y-100115197D01*
X95775225Y-100114803D01*
X95532731Y-100215000D01*
X91857196Y-100215000D01*
X92042192Y-100030327D01*
X92184838Y-99686799D01*
X92185162Y-99314833D01*
X92043117Y-98971057D01*
X92035000Y-98962926D01*
X92035000Y-98037506D01*
X92042192Y-98030327D01*
X92184838Y-97686799D01*
X92184839Y-97685167D01*
X97814838Y-97685167D01*
X97956883Y-98028943D01*
X97965000Y-98037074D01*
X97965000Y-98962494D01*
X97957808Y-98969673D01*
X97815162Y-99313201D01*
X97814838Y-99685167D01*
X97956883Y-100028943D01*
X98219673Y-100292192D01*
X98563201Y-100434838D01*
X98935167Y-100435162D01*
X99278943Y-100293117D01*
X99542192Y-100030327D01*
X99684838Y-99686799D01*
X99685162Y-99314833D01*
X99543117Y-98971057D01*
X99535000Y-98962926D01*
X99535000Y-98037506D01*
X99542192Y-98030327D01*
X99684838Y-97686799D01*
X99685162Y-97314833D01*
X99543117Y-96971057D01*
X99280327Y-96707808D01*
X98936799Y-96565162D01*
X98564833Y-96564838D01*
X98221057Y-96706883D01*
X97957808Y-96969673D01*
X97815162Y-97313201D01*
X97814838Y-97685167D01*
X92184839Y-97685167D01*
X92185162Y-97314833D01*
X92043117Y-96971057D01*
X91780327Y-96707808D01*
X91436799Y-96565162D01*
X91064833Y-96564838D01*
X90721057Y-96706883D01*
X90457808Y-96969673D01*
X90315162Y-97313201D01*
X90314838Y-97685167D01*
X90456883Y-98028943D01*
X90465000Y-98037074D01*
X90465000Y-98962494D01*
X90457808Y-98969673D01*
X90315162Y-99313201D01*
X90314838Y-99685167D01*
X90456883Y-100028943D01*
X90642616Y-100215000D01*
X89820102Y-100215000D01*
X89643765Y-100038355D01*
X89226756Y-99865197D01*
X88775225Y-99864803D01*
X88357914Y-100037233D01*
X88038355Y-100356235D01*
X87865197Y-100773244D01*
X87864803Y-101224775D01*
X71569390Y-101224775D01*
X71551531Y-101153376D01*
X71216632Y-100562972D01*
X70681288Y-100145670D01*
X70027000Y-99965000D01*
X69127000Y-99965000D01*
X68873000Y-99965000D01*
X67973000Y-99965000D01*
X67318712Y-100145670D01*
X66783368Y-100562972D01*
X66448469Y-101153376D01*
X66410825Y-101303878D01*
X64655458Y-101303878D01*
X64485000Y-101133420D01*
X64485000Y-100100005D01*
X64485001Y-100100000D01*
X64417633Y-99761325D01*
X64384438Y-99711645D01*
X64225790Y-99474210D01*
X64225787Y-99474208D01*
X63726355Y-98974775D01*
X72614803Y-98974775D01*
X72787233Y-99392086D01*
X73106235Y-99711645D01*
X73523244Y-99884803D01*
X73974775Y-99885197D01*
X74392086Y-99712767D01*
X74711645Y-99393765D01*
X74884803Y-98976756D01*
X74884899Y-98866681D01*
X75366477Y-98385103D01*
X75474775Y-98385197D01*
X75892086Y-98212767D01*
X76211645Y-97893765D01*
X76384803Y-97476756D01*
X76385197Y-97025225D01*
X76212767Y-96607914D01*
X75893765Y-96288355D01*
X75476756Y-96115197D01*
X75025225Y-96114803D01*
X74607914Y-96287233D01*
X74288355Y-96606235D01*
X74115197Y-97023244D01*
X74115101Y-97133320D01*
X73633523Y-97614897D01*
X73525225Y-97614803D01*
X73107914Y-97787233D01*
X72788355Y-98106235D01*
X72615197Y-98523244D01*
X72614803Y-98974775D01*
X63726355Y-98974775D01*
X63625790Y-98874210D01*
X63598888Y-98856235D01*
X63338675Y-98682367D01*
X63282484Y-98671190D01*
X63000000Y-98614999D01*
X62999995Y-98615000D01*
X61420276Y-98615000D01*
X61343765Y-98538355D01*
X60971298Y-98383693D01*
X61211645Y-98143765D01*
X61384803Y-97726756D01*
X61385197Y-97275225D01*
X61212767Y-96857914D01*
X60893765Y-96538355D01*
X60476756Y-96365197D01*
X60025225Y-96364803D01*
X59607914Y-96537233D01*
X59288355Y-96856235D01*
X59214625Y-97033796D01*
X58383523Y-97864897D01*
X58275225Y-97864803D01*
X57857914Y-98037233D01*
X57538355Y-98356235D01*
X57365197Y-98773244D01*
X57364803Y-99224775D01*
X20710000Y-99224775D01*
X20710000Y-95435167D01*
X40064838Y-95435167D01*
X40206883Y-95778943D01*
X40469673Y-96042192D01*
X40813201Y-96184838D01*
X40824690Y-96184848D01*
X41314847Y-96675005D01*
X41314838Y-96685167D01*
X41456883Y-97028943D01*
X41719673Y-97292192D01*
X42063201Y-97434838D01*
X42435167Y-97435162D01*
X42778943Y-97293117D01*
X43042192Y-97030327D01*
X43184838Y-96686799D01*
X43185162Y-96314833D01*
X43043117Y-95971057D01*
X42780327Y-95707808D01*
X42436799Y-95565162D01*
X42425310Y-95565152D01*
X42384933Y-95524775D01*
X52164803Y-95524775D01*
X52337233Y-95942086D01*
X52656235Y-96261645D01*
X53073244Y-96434803D01*
X53524775Y-96435197D01*
X53942086Y-96262767D01*
X54019989Y-96185000D01*
X56879724Y-96185000D01*
X56956235Y-96261645D01*
X57373244Y-96434803D01*
X57824775Y-96435197D01*
X58242086Y-96262767D01*
X58561645Y-95943765D01*
X58734803Y-95526756D01*
X58735197Y-95075225D01*
X58562767Y-94657914D01*
X58243765Y-94338355D01*
X57826756Y-94165197D01*
X57375225Y-94164803D01*
X56957914Y-94337233D01*
X56880011Y-94415000D01*
X54020276Y-94415000D01*
X53943765Y-94338355D01*
X53526756Y-94165197D01*
X53075225Y-94164803D01*
X52657914Y-94337233D01*
X52338355Y-94656235D01*
X52165197Y-95073244D01*
X52164803Y-95524775D01*
X42384933Y-95524775D01*
X41935153Y-95074995D01*
X41935162Y-95064833D01*
X41793117Y-94721057D01*
X41530327Y-94457808D01*
X41186799Y-94315162D01*
X40814833Y-94314838D01*
X40471057Y-94456883D01*
X40207808Y-94719673D01*
X40065162Y-95063201D01*
X40064838Y-95435167D01*
X20710000Y-95435167D01*
X20710000Y-91724775D01*
X43614803Y-91724775D01*
X43787233Y-92142086D01*
X44106235Y-92461645D01*
X44523244Y-92634803D01*
X44974775Y-92635197D01*
X45392086Y-92462767D01*
X45469989Y-92385000D01*
X51931007Y-92385000D01*
X52037233Y-92642086D01*
X52356235Y-92961645D01*
X52773244Y-93134803D01*
X53224775Y-93135197D01*
X53642086Y-92962767D01*
X53961645Y-92643765D01*
X54134803Y-92226756D01*
X54135197Y-91775225D01*
X53962767Y-91357914D01*
X53805129Y-91200000D01*
X60552560Y-91200000D01*
X60552560Y-92800000D01*
X60596838Y-93035317D01*
X60735910Y-93251441D01*
X60752366Y-93262685D01*
X60565250Y-93713309D01*
X60564752Y-94284187D01*
X60782757Y-94811800D01*
X61186077Y-95215824D01*
X61713309Y-95434750D01*
X62284187Y-95435248D01*
X62811800Y-95217243D01*
X63215824Y-94813923D01*
X63434750Y-94286691D01*
X63435248Y-93715813D01*
X63249197Y-93265534D01*
X63251441Y-93264090D01*
X63396431Y-93051890D01*
X63447440Y-92800000D01*
X63447440Y-91200000D01*
X66552560Y-91200000D01*
X66552560Y-92800000D01*
X66596838Y-93035317D01*
X66735910Y-93251441D01*
X66752366Y-93262685D01*
X66565250Y-93713309D01*
X66564752Y-94284187D01*
X66782757Y-94811800D01*
X67186077Y-95215824D01*
X67713309Y-95434750D01*
X68284187Y-95435248D01*
X68811800Y-95217243D01*
X69215824Y-94813923D01*
X69434750Y-94286691D01*
X69435022Y-93974775D01*
X71114803Y-93974775D01*
X71287233Y-94392086D01*
X71606235Y-94711645D01*
X72023244Y-94884803D01*
X72474775Y-94885197D01*
X72892086Y-94712767D01*
X72969989Y-94635000D01*
X73779724Y-94635000D01*
X73856235Y-94711645D01*
X74273244Y-94884803D01*
X74724775Y-94885197D01*
X75142086Y-94712767D01*
X75461645Y-94393765D01*
X75634803Y-93976756D01*
X75634804Y-93974775D01*
X76114803Y-93974775D01*
X76287233Y-94392086D01*
X76606235Y-94711645D01*
X77023244Y-94884803D01*
X77133319Y-94884899D01*
X77614897Y-95366477D01*
X77614803Y-95474775D01*
X77787233Y-95892086D01*
X78106235Y-96211645D01*
X78523244Y-96384803D01*
X78974775Y-96385197D01*
X79392086Y-96212767D01*
X79711645Y-95893765D01*
X79884803Y-95476756D01*
X79885197Y-95025225D01*
X79712767Y-94607914D01*
X79393765Y-94288355D01*
X78976756Y-94115197D01*
X78866680Y-94115101D01*
X78385103Y-93633523D01*
X78385197Y-93525225D01*
X78212767Y-93107914D01*
X77893765Y-92788355D01*
X77476756Y-92615197D01*
X77025225Y-92614803D01*
X76607914Y-92787233D01*
X76288355Y-93106235D01*
X76115197Y-93523244D01*
X76114803Y-93974775D01*
X75634804Y-93974775D01*
X75635197Y-93525225D01*
X75462767Y-93107914D01*
X75143765Y-92788355D01*
X74726756Y-92615197D01*
X74275225Y-92614803D01*
X73857914Y-92787233D01*
X73780011Y-92865000D01*
X72970276Y-92865000D01*
X72893765Y-92788355D01*
X72476756Y-92615197D01*
X72025225Y-92614803D01*
X71607914Y-92787233D01*
X71288355Y-93106235D01*
X71115197Y-93523244D01*
X71114803Y-93974775D01*
X69435022Y-93974775D01*
X69435248Y-93715813D01*
X69249197Y-93265534D01*
X69251441Y-93264090D01*
X69396431Y-93051890D01*
X69447440Y-92800000D01*
X69447440Y-92435167D01*
X90064838Y-92435167D01*
X90206883Y-92778943D01*
X90469673Y-93042192D01*
X90813201Y-93184838D01*
X91185167Y-93185162D01*
X91528943Y-93043117D01*
X91537074Y-93035000D01*
X92712494Y-93035000D01*
X92719673Y-93042192D01*
X93063201Y-93184838D01*
X93435167Y-93185162D01*
X93778943Y-93043117D01*
X94042192Y-92780327D01*
X94184838Y-92436799D01*
X94185162Y-92064833D01*
X94043117Y-91721057D01*
X93780327Y-91457808D01*
X93436799Y-91315162D01*
X93064833Y-91314838D01*
X92721057Y-91456883D01*
X92712926Y-91465000D01*
X91537506Y-91465000D01*
X91530327Y-91457808D01*
X91186799Y-91315162D01*
X90814833Y-91314838D01*
X90471057Y-91456883D01*
X90207808Y-91719673D01*
X90065162Y-92063201D01*
X90064838Y-92435167D01*
X69447440Y-92435167D01*
X69447440Y-91200000D01*
X69405061Y-90974775D01*
X84364803Y-90974775D01*
X84537233Y-91392086D01*
X84856235Y-91711645D01*
X85273244Y-91884803D01*
X85724775Y-91885197D01*
X86142086Y-91712767D01*
X86461645Y-91393765D01*
X86634803Y-90976756D01*
X86634899Y-90866681D01*
X87625787Y-89875792D01*
X87625790Y-89875790D01*
X87817633Y-89588675D01*
X87885000Y-89250000D01*
X87885000Y-88720276D01*
X87961645Y-88643765D01*
X88134803Y-88226756D01*
X88135197Y-87775225D01*
X87962767Y-87357914D01*
X87643765Y-87038355D01*
X87226756Y-86865197D01*
X86775225Y-86864803D01*
X86357914Y-87037233D01*
X86038355Y-87356235D01*
X85865197Y-87773244D01*
X85864803Y-88224775D01*
X86037233Y-88642086D01*
X86115000Y-88719989D01*
X86115000Y-88883421D01*
X85383523Y-89614897D01*
X85275225Y-89614803D01*
X84857914Y-89787233D01*
X84538355Y-90106235D01*
X84365197Y-90523244D01*
X84364803Y-90974775D01*
X69405061Y-90974775D01*
X69403162Y-90964683D01*
X69264090Y-90748559D01*
X69051890Y-90603569D01*
X68800000Y-90552560D01*
X67200000Y-90552560D01*
X66964683Y-90596838D01*
X66748559Y-90735910D01*
X66603569Y-90948110D01*
X66552560Y-91200000D01*
X63447440Y-91200000D01*
X63403162Y-90964683D01*
X63264090Y-90748559D01*
X63051890Y-90603569D01*
X62800000Y-90552560D01*
X61200000Y-90552560D01*
X60964683Y-90596838D01*
X60748559Y-90735910D01*
X60603569Y-90948110D01*
X60552560Y-91200000D01*
X53805129Y-91200000D01*
X53643765Y-91038355D01*
X53226756Y-90865197D01*
X53112151Y-90865097D01*
X53098888Y-90856235D01*
X52838675Y-90682367D01*
X52782484Y-90671190D01*
X52500000Y-90614999D01*
X52499995Y-90615000D01*
X45470276Y-90615000D01*
X45393765Y-90538355D01*
X44976756Y-90365197D01*
X44525225Y-90364803D01*
X44107914Y-90537233D01*
X43788355Y-90856235D01*
X43615197Y-91273244D01*
X43614803Y-91724775D01*
X20710000Y-91724775D01*
X20710000Y-90474775D01*
X38364803Y-90474775D01*
X38537233Y-90892086D01*
X38856235Y-91211645D01*
X39273244Y-91384803D01*
X39724775Y-91385197D01*
X40142086Y-91212767D01*
X40461645Y-90893765D01*
X40634803Y-90476756D01*
X40635197Y-90025225D01*
X40515659Y-89735921D01*
X40866477Y-89385103D01*
X40974775Y-89385197D01*
X41392086Y-89212767D01*
X41711645Y-88893765D01*
X41781816Y-88724775D01*
X50564803Y-88724775D01*
X50737233Y-89142086D01*
X51056235Y-89461645D01*
X51473244Y-89634803D01*
X51924775Y-89635197D01*
X52342086Y-89462767D01*
X52661645Y-89143765D01*
X52834803Y-88726756D01*
X52834899Y-88616681D01*
X53066413Y-88385167D01*
X55864838Y-88385167D01*
X56006883Y-88728943D01*
X56269673Y-88992192D01*
X56613201Y-89134838D01*
X56985167Y-89135162D01*
X57328943Y-88993117D01*
X57337074Y-88985000D01*
X58893178Y-88985000D01*
X59013201Y-89034838D01*
X59385167Y-89035162D01*
X59728943Y-88893117D01*
X59992192Y-88630327D01*
X60134838Y-88286799D01*
X60135162Y-87914833D01*
X59993117Y-87571057D01*
X59730327Y-87307808D01*
X59386799Y-87165162D01*
X59014833Y-87164838D01*
X58671057Y-87306883D01*
X58562751Y-87415000D01*
X57337506Y-87415000D01*
X57330327Y-87407808D01*
X56986799Y-87265162D01*
X56614833Y-87264838D01*
X56271057Y-87406883D01*
X56007808Y-87669673D01*
X55865162Y-88013201D01*
X55864838Y-88385167D01*
X53066413Y-88385167D01*
X53316477Y-88135103D01*
X53424775Y-88135197D01*
X53842086Y-87962767D01*
X54161645Y-87643765D01*
X54334803Y-87226756D01*
X54335022Y-86974775D01*
X78364803Y-86974775D01*
X78537233Y-87392086D01*
X78856235Y-87711645D01*
X79273244Y-87884803D01*
X79383319Y-87884899D01*
X80114897Y-88616477D01*
X80114803Y-88724775D01*
X80287233Y-89142086D01*
X80606235Y-89461645D01*
X81023244Y-89634803D01*
X81474775Y-89635197D01*
X81892086Y-89462767D01*
X82211645Y-89143765D01*
X82384803Y-88726756D01*
X82385197Y-88275225D01*
X82212767Y-87857914D01*
X81893765Y-87538355D01*
X81476756Y-87365197D01*
X81366680Y-87365101D01*
X80635103Y-86633523D01*
X80635197Y-86525225D01*
X80462767Y-86107914D01*
X80143765Y-85788355D01*
X79726756Y-85615197D01*
X79275225Y-85614803D01*
X78857914Y-85787233D01*
X78538355Y-86106235D01*
X78365197Y-86523244D01*
X78364803Y-86974775D01*
X54335022Y-86974775D01*
X54335197Y-86775225D01*
X54162767Y-86357914D01*
X53843765Y-86038355D01*
X53426756Y-85865197D01*
X52975225Y-85864803D01*
X52557914Y-86037233D01*
X52238355Y-86356235D01*
X52065197Y-86773244D01*
X52065101Y-86883320D01*
X51583523Y-87364897D01*
X51475225Y-87364803D01*
X51057914Y-87537233D01*
X50738355Y-87856235D01*
X50565197Y-88273244D01*
X50564803Y-88724775D01*
X41781816Y-88724775D01*
X41884803Y-88476756D01*
X41885197Y-88025225D01*
X41712767Y-87607914D01*
X41393765Y-87288355D01*
X40976756Y-87115197D01*
X40525225Y-87114803D01*
X40107914Y-87287233D01*
X39788355Y-87606235D01*
X39615197Y-88023244D01*
X39615101Y-88133320D01*
X38874210Y-88874210D01*
X38682367Y-89161325D01*
X38671190Y-89217516D01*
X38614999Y-89500000D01*
X38615000Y-89500005D01*
X38615000Y-89529724D01*
X38538355Y-89606235D01*
X38365197Y-90023244D01*
X38364803Y-90474775D01*
X20710000Y-90474775D01*
X20710000Y-87724775D01*
X35614803Y-87724775D01*
X35787233Y-88142086D01*
X36106235Y-88461645D01*
X36523244Y-88634803D01*
X36974775Y-88635197D01*
X37392086Y-88462767D01*
X37711645Y-88143765D01*
X37884803Y-87726756D01*
X37884899Y-87616681D01*
X38616477Y-86885103D01*
X38724775Y-86885197D01*
X39142086Y-86712767D01*
X39461645Y-86393765D01*
X39625189Y-85999910D01*
X39787233Y-86392086D01*
X40106235Y-86711645D01*
X40523244Y-86884803D01*
X40974775Y-86885197D01*
X41392086Y-86712767D01*
X41469989Y-86635000D01*
X46250000Y-86635000D01*
X46266036Y-86631810D01*
X46273244Y-86634803D01*
X46724775Y-86635197D01*
X46963474Y-86536568D01*
X46865197Y-86773244D01*
X46864803Y-87224775D01*
X47037233Y-87642086D01*
X47356235Y-87961645D01*
X47773244Y-88134803D01*
X48224775Y-88135197D01*
X48642086Y-87962767D01*
X48961645Y-87643765D01*
X49035374Y-87466205D01*
X50866477Y-85635103D01*
X50974775Y-85635197D01*
X51392086Y-85462767D01*
X51711645Y-85143765D01*
X51884803Y-84726756D01*
X51885197Y-84275225D01*
X51864352Y-84224775D01*
X81364803Y-84224775D01*
X81537233Y-84642086D01*
X81856235Y-84961645D01*
X82273244Y-85134803D01*
X82724775Y-85135197D01*
X82837175Y-85088754D01*
X83364897Y-85616477D01*
X83364803Y-85724775D01*
X83537233Y-86142086D01*
X83856235Y-86461645D01*
X84273244Y-86634803D01*
X84724775Y-86635197D01*
X85142086Y-86462767D01*
X85461645Y-86143765D01*
X85634803Y-85726756D01*
X85635197Y-85275225D01*
X85462767Y-84857914D01*
X85143765Y-84538355D01*
X84726756Y-84365197D01*
X84616680Y-84365101D01*
X83625790Y-83374210D01*
X83598888Y-83356235D01*
X83338675Y-83182367D01*
X83282484Y-83171190D01*
X83274853Y-83169672D01*
X83143765Y-83038355D01*
X82726756Y-82865197D01*
X82275225Y-82864803D01*
X81857914Y-83037233D01*
X81538355Y-83356235D01*
X81365197Y-83773244D01*
X81364803Y-84224775D01*
X51864352Y-84224775D01*
X51712767Y-83857914D01*
X51393765Y-83538355D01*
X50976756Y-83365197D01*
X50525225Y-83364803D01*
X50107914Y-83537233D01*
X49788355Y-83856235D01*
X49615197Y-84273244D01*
X49615101Y-84383320D01*
X48133305Y-85865115D01*
X47775225Y-85864803D01*
X47536526Y-85963432D01*
X47634803Y-85726756D01*
X47635197Y-85275225D01*
X47462767Y-84857914D01*
X47143765Y-84538355D01*
X46774447Y-84385000D01*
X47279724Y-84385000D01*
X47356235Y-84461645D01*
X47773244Y-84634803D01*
X48224775Y-84635197D01*
X48642086Y-84462767D01*
X48961645Y-84143765D01*
X49134803Y-83726756D01*
X49135197Y-83275225D01*
X48962767Y-82857914D01*
X48643765Y-82538355D01*
X48226756Y-82365197D01*
X47775225Y-82364803D01*
X47357914Y-82537233D01*
X47280011Y-82615000D01*
X46220276Y-82615000D01*
X46143765Y-82538355D01*
X45726756Y-82365197D01*
X45275225Y-82364803D01*
X44857914Y-82537233D01*
X44538355Y-82856235D01*
X44365197Y-83273244D01*
X44364803Y-83724775D01*
X44537233Y-84142086D01*
X44856235Y-84461645D01*
X45273244Y-84634803D01*
X45724775Y-84635197D01*
X45784500Y-84610519D01*
X45538355Y-84856235D01*
X45534715Y-84865000D01*
X41470276Y-84865000D01*
X41393765Y-84788355D01*
X40976756Y-84615197D01*
X40525225Y-84614803D01*
X40107914Y-84787233D01*
X39788355Y-85106235D01*
X39624811Y-85500090D01*
X39462767Y-85107914D01*
X39143765Y-84788355D01*
X38726756Y-84615197D01*
X38275225Y-84614803D01*
X37857914Y-84787233D01*
X37538355Y-85106235D01*
X37365197Y-85523244D01*
X37365101Y-85633320D01*
X36633523Y-86364897D01*
X36525225Y-86364803D01*
X36107914Y-86537233D01*
X35788355Y-86856235D01*
X35615197Y-87273244D01*
X35614803Y-87724775D01*
X20710000Y-87724775D01*
X20710000Y-52723795D01*
X44164716Y-52723795D01*
X44413106Y-53324943D01*
X44872637Y-53785278D01*
X45473352Y-54034716D01*
X46123795Y-54035284D01*
X46724943Y-53786894D01*
X47185278Y-53327363D01*
X47434716Y-52726648D01*
X47435284Y-52076205D01*
X47186894Y-51475057D01*
X46727363Y-51014722D01*
X46126648Y-50765284D01*
X45476205Y-50764716D01*
X44875057Y-51013106D01*
X44414722Y-51472637D01*
X44165284Y-52073352D01*
X44164716Y-52723795D01*
X20710000Y-52723795D01*
X20710000Y-46974775D01*
X48114803Y-46974775D01*
X48287233Y-47392086D01*
X48606235Y-47711645D01*
X49023244Y-47884803D01*
X49474775Y-47885197D01*
X49892086Y-47712767D01*
X50211645Y-47393765D01*
X50255000Y-47289355D01*
X50255000Y-52649784D01*
X50143765Y-52538355D01*
X49726756Y-52365197D01*
X49275225Y-52364803D01*
X48857914Y-52537233D01*
X48538355Y-52856235D01*
X48365197Y-53273244D01*
X48364803Y-53724775D01*
X48537233Y-54142086D01*
X48856235Y-54461645D01*
X49273244Y-54634803D01*
X49724775Y-54635197D01*
X50142086Y-54462767D01*
X50255000Y-54350050D01*
X50255000Y-74500000D01*
X50349770Y-74976441D01*
X50619652Y-75380348D01*
X51619652Y-76380348D01*
X52023560Y-76650230D01*
X52500000Y-76745000D01*
X52976441Y-76650230D01*
X53380348Y-76380348D01*
X53417480Y-76324775D01*
X63564803Y-76324775D01*
X63737233Y-76742086D01*
X63830123Y-76835139D01*
X63850112Y-77794586D01*
X63788355Y-77856235D01*
X63615197Y-78273244D01*
X63614803Y-78724775D01*
X63787233Y-79142086D01*
X64106235Y-79461645D01*
X64523244Y-79634803D01*
X64974775Y-79635197D01*
X65392086Y-79462767D01*
X65711645Y-79143765D01*
X65884803Y-78726756D01*
X65885197Y-78275225D01*
X65712767Y-77857914D01*
X65619877Y-77764861D01*
X65599888Y-76805414D01*
X65661645Y-76743765D01*
X65834803Y-76326756D01*
X65835197Y-75875225D01*
X65662767Y-75457914D01*
X65343765Y-75138355D01*
X64926756Y-74965197D01*
X64475225Y-74964803D01*
X64057914Y-75137233D01*
X63738355Y-75456235D01*
X63565197Y-75873244D01*
X63564803Y-76324775D01*
X53417480Y-76324775D01*
X53650230Y-75976441D01*
X53745000Y-75500000D01*
X53650230Y-75023560D01*
X53380348Y-74619652D01*
X52745000Y-73984304D01*
X52745000Y-68724775D01*
X62114803Y-68724775D01*
X62287233Y-69142086D01*
X62606235Y-69461645D01*
X63023244Y-69634803D01*
X63474775Y-69635197D01*
X63892086Y-69462767D01*
X63969989Y-69385000D01*
X66279724Y-69385000D01*
X66356235Y-69461645D01*
X66773244Y-69634803D01*
X67224775Y-69635197D01*
X67642086Y-69462767D01*
X67961645Y-69143765D01*
X68134803Y-68726756D01*
X68135197Y-68275225D01*
X67962767Y-67857914D01*
X67643765Y-67538355D01*
X67226756Y-67365197D01*
X66775225Y-67364803D01*
X66357914Y-67537233D01*
X66280011Y-67615000D01*
X63970276Y-67615000D01*
X63893765Y-67538355D01*
X63476756Y-67365197D01*
X63025225Y-67364803D01*
X62607914Y-67537233D01*
X62288355Y-67856235D01*
X62115197Y-68273244D01*
X62114803Y-68724775D01*
X52745000Y-68724775D01*
X52745000Y-54464103D01*
X53023559Y-54650230D01*
X53500000Y-54745000D01*
X53750000Y-54745000D01*
X54226441Y-54650230D01*
X54630348Y-54380348D01*
X54900230Y-53976441D01*
X54995000Y-53500000D01*
X54900230Y-53023559D01*
X54630348Y-52619652D01*
X54226441Y-52349770D01*
X53750000Y-52255000D01*
X53500000Y-52255000D01*
X53023559Y-52349770D01*
X52745000Y-52535897D01*
X52745000Y-47600216D01*
X52856235Y-47711645D01*
X53273244Y-47884803D01*
X53724775Y-47885197D01*
X54142086Y-47712767D01*
X54461645Y-47393765D01*
X54634803Y-46976756D01*
X54635197Y-46525225D01*
X54462767Y-46107914D01*
X54143765Y-45788355D01*
X53726756Y-45615197D01*
X53275225Y-45614803D01*
X52857914Y-45787233D01*
X52745000Y-45899950D01*
X52745000Y-44720421D01*
X52782757Y-44811800D01*
X53186077Y-45215824D01*
X53713309Y-45434750D01*
X54284187Y-45435248D01*
X54811800Y-45217243D01*
X55080583Y-44948928D01*
X55096838Y-45035317D01*
X55235910Y-45251441D01*
X55448110Y-45396431D01*
X55515959Y-45410171D01*
X55365197Y-45773244D01*
X55364803Y-46224775D01*
X55537233Y-46642086D01*
X55615000Y-46719989D01*
X55615000Y-50279724D01*
X55538355Y-50356235D01*
X55365197Y-50773244D01*
X55364803Y-51224775D01*
X55537233Y-51642086D01*
X55856235Y-51961645D01*
X56273244Y-52134803D01*
X56724775Y-52135197D01*
X57142086Y-51962767D01*
X57461645Y-51643765D01*
X57634803Y-51226756D01*
X57635197Y-50775225D01*
X57462767Y-50357914D01*
X57385000Y-50280011D01*
X57385000Y-46720276D01*
X57461645Y-46643765D01*
X57634803Y-46226756D01*
X57635197Y-45775225D01*
X57485348Y-45412564D01*
X57535317Y-45403162D01*
X57751441Y-45264090D01*
X57896431Y-45051890D01*
X57947440Y-44800000D01*
X57947440Y-43200000D01*
X57903162Y-42964683D01*
X57764090Y-42748559D01*
X57551890Y-42603569D01*
X57300000Y-42552560D01*
X55700000Y-42552560D01*
X55464683Y-42596838D01*
X55248559Y-42735910D01*
X55103569Y-42948110D01*
X55082320Y-43053041D01*
X54813923Y-42784176D01*
X54286691Y-42565250D01*
X53715813Y-42564752D01*
X53188200Y-42782757D01*
X52784176Y-43186077D01*
X52745000Y-43280423D01*
X52745000Y-35005696D01*
X63604176Y-45864872D01*
X63525225Y-45864803D01*
X63107914Y-46037233D01*
X62788355Y-46356235D01*
X62615197Y-46773244D01*
X62614803Y-47224775D01*
X62787233Y-47642086D01*
X63106235Y-47961645D01*
X63523244Y-48134803D01*
X63974775Y-48135197D01*
X64392086Y-47962767D01*
X64711645Y-47643765D01*
X64884803Y-47226756D01*
X64884874Y-47145570D01*
X67445212Y-49705908D01*
X67226756Y-49615197D01*
X66775225Y-49614803D01*
X66357914Y-49787233D01*
X66038355Y-50106235D01*
X65865197Y-50523244D01*
X65864803Y-50974775D01*
X66037233Y-51392086D01*
X66356235Y-51711645D01*
X66773244Y-51884803D01*
X67224775Y-51885197D01*
X67642086Y-51712767D01*
X67961645Y-51393765D01*
X68134803Y-50976756D01*
X68135197Y-50525225D01*
X68044129Y-50304825D01*
X70707268Y-52967964D01*
X70371057Y-53106883D01*
X70107808Y-53369673D01*
X69965162Y-53713201D01*
X69964838Y-54085167D01*
X70106883Y-54428943D01*
X70369673Y-54692192D01*
X70713201Y-54834838D01*
X71085167Y-54835162D01*
X71428943Y-54693117D01*
X71692192Y-54430327D01*
X71832275Y-54092971D01*
X86869652Y-69130348D01*
X87273559Y-69400230D01*
X87750000Y-69495000D01*
X87847291Y-69495000D01*
X87715162Y-69813201D01*
X87714838Y-70185167D01*
X87856883Y-70528943D01*
X88119673Y-70792192D01*
X88463201Y-70934838D01*
X88835167Y-70935162D01*
X89178943Y-70793117D01*
X89442192Y-70530327D01*
X89584838Y-70186799D01*
X89585162Y-69814833D01*
X89453010Y-69495000D01*
X92234304Y-69495000D01*
X99119652Y-76380348D01*
X99523559Y-76650230D01*
X100000000Y-76745000D01*
X100476441Y-76650230D01*
X100880348Y-76380348D01*
X101150230Y-75976441D01*
X101245000Y-75500000D01*
X101150230Y-75023559D01*
X100880348Y-74619652D01*
X93630348Y-67369652D01*
X93226441Y-67099770D01*
X92750000Y-67005000D01*
X89452709Y-67005000D01*
X89584838Y-66686799D01*
X89585162Y-66314833D01*
X89443117Y-65971057D01*
X89180327Y-65707808D01*
X88836799Y-65565162D01*
X88464833Y-65564838D01*
X88121057Y-65706883D01*
X87857808Y-65969673D01*
X87715162Y-66313201D01*
X87715039Y-66454343D01*
X73984491Y-52723795D01*
X100164716Y-52723795D01*
X100413106Y-53324943D01*
X100872637Y-53785278D01*
X101473352Y-54034716D01*
X102123795Y-54035284D01*
X102724943Y-53786894D01*
X103185278Y-53327363D01*
X103434716Y-52726648D01*
X103435284Y-52076205D01*
X103186894Y-51475057D01*
X102727363Y-51014722D01*
X102126648Y-50765284D01*
X101476205Y-50764716D01*
X100875057Y-51013106D01*
X100414722Y-51472637D01*
X100165284Y-52073352D01*
X100164716Y-52723795D01*
X73984491Y-52723795D01*
X73595824Y-52335128D01*
X73635167Y-52335162D01*
X73978943Y-52193117D01*
X74242192Y-51930327D01*
X74384838Y-51586799D01*
X74385162Y-51214833D01*
X74243117Y-50871057D01*
X73980327Y-50607808D01*
X73636799Y-50465162D01*
X73264833Y-50464838D01*
X72921057Y-50606883D01*
X72657808Y-50869673D01*
X72515162Y-51213201D01*
X72515126Y-51254430D01*
X70145824Y-48885128D01*
X70224775Y-48885197D01*
X70613024Y-48724775D01*
X72864803Y-48724775D01*
X73037233Y-49142086D01*
X73356235Y-49461645D01*
X73773244Y-49634803D01*
X74224775Y-49635197D01*
X74642086Y-49462767D01*
X74961645Y-49143765D01*
X75134803Y-48726756D01*
X75134899Y-48616681D01*
X77616477Y-46135103D01*
X77724775Y-46135197D01*
X78142086Y-45962767D01*
X78461645Y-45643765D01*
X78634803Y-45226756D01*
X78635197Y-44775225D01*
X78462767Y-44357914D01*
X78143765Y-44038355D01*
X77726756Y-43865197D01*
X77275225Y-43864803D01*
X76857914Y-44037233D01*
X76538355Y-44356235D01*
X76365197Y-44773244D01*
X76365101Y-44883320D01*
X73883523Y-47364897D01*
X73775225Y-47364803D01*
X73357914Y-47537233D01*
X73038355Y-47856235D01*
X72865197Y-48273244D01*
X72864803Y-48724775D01*
X70613024Y-48724775D01*
X70642086Y-48712767D01*
X70961645Y-48393765D01*
X71134803Y-47976756D01*
X71135197Y-47525225D01*
X70962767Y-47107914D01*
X70643765Y-46788355D01*
X70226756Y-46615197D01*
X69775225Y-46614803D01*
X69357914Y-46787233D01*
X69038355Y-47106235D01*
X68865197Y-47523244D01*
X68865126Y-47604430D01*
X66645824Y-45385128D01*
X66724775Y-45385197D01*
X67142086Y-45212767D01*
X67461645Y-44893765D01*
X67634803Y-44476756D01*
X67635197Y-44025225D01*
X67614352Y-43974775D01*
X68114803Y-43974775D01*
X68287233Y-44392086D01*
X68606235Y-44711645D01*
X69023244Y-44884803D01*
X69474775Y-44885197D01*
X69892086Y-44712767D01*
X70211645Y-44393765D01*
X70384803Y-43976756D01*
X70384899Y-43866681D01*
X72866477Y-41385103D01*
X72974775Y-41385197D01*
X73392086Y-41212767D01*
X73711645Y-40893765D01*
X73751752Y-40797175D01*
X74882430Y-40797175D01*
X75005565Y-41084788D01*
X75687734Y-41344707D01*
X76417443Y-41323786D01*
X76994435Y-41084788D01*
X77117570Y-40797175D01*
X76000000Y-39679605D01*
X74882430Y-40797175D01*
X73751752Y-40797175D01*
X73884803Y-40476756D01*
X73885197Y-40025225D01*
X73712767Y-39607914D01*
X73393765Y-39288355D01*
X73151444Y-39187734D01*
X74155293Y-39187734D01*
X74176214Y-39917443D01*
X74415212Y-40494435D01*
X74702825Y-40617570D01*
X75820395Y-39500000D01*
X76179605Y-39500000D01*
X77297175Y-40617570D01*
X77584788Y-40494435D01*
X77844707Y-39812266D01*
X77823786Y-39082557D01*
X77584788Y-38505565D01*
X77297175Y-38382430D01*
X76179605Y-39500000D01*
X75820395Y-39500000D01*
X74702825Y-38382430D01*
X74415212Y-38505565D01*
X74155293Y-39187734D01*
X73151444Y-39187734D01*
X72976756Y-39115197D01*
X72525225Y-39114803D01*
X72107914Y-39287233D01*
X71788355Y-39606235D01*
X71615197Y-40023244D01*
X71615101Y-40133320D01*
X69133523Y-42614897D01*
X69025225Y-42614803D01*
X68607914Y-42787233D01*
X68288355Y-43106235D01*
X68115197Y-43523244D01*
X68114803Y-43974775D01*
X67614352Y-43974775D01*
X67462767Y-43607914D01*
X67143765Y-43288355D01*
X66726756Y-43115197D01*
X66275225Y-43114803D01*
X65857914Y-43287233D01*
X65538355Y-43606235D01*
X65365197Y-44023244D01*
X65365126Y-44104430D01*
X59560696Y-38300000D01*
X66652560Y-38300000D01*
X66652560Y-40700000D01*
X66696838Y-40935317D01*
X66835910Y-41151441D01*
X67048110Y-41296431D01*
X67300000Y-41347440D01*
X69700000Y-41347440D01*
X69935317Y-41303162D01*
X70151441Y-41164090D01*
X70296431Y-40951890D01*
X70347440Y-40700000D01*
X70347440Y-38300000D01*
X70329156Y-38202825D01*
X74882430Y-38202825D01*
X76000000Y-39320395D01*
X77117570Y-38202825D01*
X76994435Y-37915212D01*
X76312266Y-37655293D01*
X75582557Y-37676214D01*
X75005565Y-37915212D01*
X74882430Y-38202825D01*
X70329156Y-38202825D01*
X70303162Y-38064683D01*
X70164090Y-37848559D01*
X69951890Y-37703569D01*
X69700000Y-37652560D01*
X67300000Y-37652560D01*
X67064683Y-37696838D01*
X66848559Y-37835910D01*
X66703569Y-38048110D01*
X66652560Y-38300000D01*
X59560696Y-38300000D01*
X57268441Y-36007745D01*
X86171861Y-36007745D01*
X86245995Y-36253864D01*
X86783223Y-36446965D01*
X87353454Y-36419778D01*
X87754005Y-36253864D01*
X87828139Y-36007745D01*
X87000000Y-35179605D01*
X86171861Y-36007745D01*
X57268441Y-36007745D01*
X56043919Y-34783223D01*
X85553035Y-34783223D01*
X85580222Y-35353454D01*
X85746136Y-35754005D01*
X85992255Y-35828139D01*
X86820395Y-35000000D01*
X87179605Y-35000000D01*
X88007745Y-35828139D01*
X88253864Y-35754005D01*
X88446965Y-35216777D01*
X88419778Y-34646546D01*
X88253864Y-34245995D01*
X88007745Y-34171861D01*
X87179605Y-35000000D01*
X86820395Y-35000000D01*
X85992255Y-34171861D01*
X85746136Y-34245995D01*
X85553035Y-34783223D01*
X56043919Y-34783223D01*
X55252951Y-33992255D01*
X86171861Y-33992255D01*
X87000000Y-34820395D01*
X87828139Y-33992255D01*
X87754005Y-33746136D01*
X87216777Y-33553035D01*
X86646546Y-33580222D01*
X86245995Y-33746136D01*
X86171861Y-33992255D01*
X55252951Y-33992255D01*
X53546446Y-32285750D01*
X57165000Y-32285750D01*
X57165000Y-33326310D01*
X57261673Y-33559699D01*
X57440302Y-33738327D01*
X57673691Y-33835000D01*
X58714250Y-33835000D01*
X58873000Y-33676250D01*
X58873000Y-32127000D01*
X59127000Y-32127000D01*
X59127000Y-33676250D01*
X59285750Y-33835000D01*
X60326309Y-33835000D01*
X60559698Y-33738327D01*
X60738327Y-33559699D01*
X60835000Y-33326310D01*
X60835000Y-32285750D01*
X60676250Y-32127000D01*
X59127000Y-32127000D01*
X58873000Y-32127000D01*
X57323750Y-32127000D01*
X57165000Y-32285750D01*
X53546446Y-32285750D01*
X53334936Y-32074240D01*
X53335318Y-31636597D01*
X53056545Y-30961914D01*
X52768824Y-30673690D01*
X57165000Y-30673690D01*
X57165000Y-31714250D01*
X57323750Y-31873000D01*
X58873000Y-31873000D01*
X58873000Y-30323750D01*
X59127000Y-30323750D01*
X59127000Y-31873000D01*
X60676250Y-31873000D01*
X60835000Y-31714250D01*
X60835000Y-30673690D01*
X60738327Y-30440301D01*
X60582213Y-30284187D01*
X85564752Y-30284187D01*
X85782757Y-30811800D01*
X86186077Y-31215824D01*
X86713309Y-31434750D01*
X87284187Y-31435248D01*
X87811800Y-31217243D01*
X88215824Y-30813923D01*
X88434750Y-30286691D01*
X88435248Y-29715813D01*
X88217243Y-29188200D01*
X87813923Y-28784176D01*
X87286691Y-28565250D01*
X86715813Y-28564752D01*
X86188200Y-28782757D01*
X85784176Y-29186077D01*
X85565250Y-29713309D01*
X85564752Y-30284187D01*
X60582213Y-30284187D01*
X60559698Y-30261673D01*
X60326309Y-30165000D01*
X59285750Y-30165000D01*
X59127000Y-30323750D01*
X58873000Y-30323750D01*
X58714250Y-30165000D01*
X57673691Y-30165000D01*
X57440302Y-30261673D01*
X57261673Y-30440301D01*
X57165000Y-30673690D01*
X52768824Y-30673690D01*
X52540801Y-30445270D01*
X51866605Y-30165319D01*
X51136597Y-30164682D01*
X50461914Y-30443455D01*
X49945270Y-30959199D01*
X49665319Y-31633395D01*
X49664682Y-32363403D01*
X49943455Y-33038086D01*
X50255000Y-33350175D01*
X50255000Y-46210125D01*
X50212767Y-46107914D01*
X49893765Y-45788355D01*
X49476756Y-45615197D01*
X49025225Y-45614803D01*
X48607914Y-45787233D01*
X48288355Y-46106235D01*
X48115197Y-46523244D01*
X48114803Y-46974775D01*
X20710000Y-46974775D01*
X20710000Y-36007745D01*
X30171861Y-36007745D01*
X30245995Y-36253864D01*
X30783223Y-36446965D01*
X31353454Y-36419778D01*
X31754005Y-36253864D01*
X31828139Y-36007745D01*
X31000000Y-35179605D01*
X30171861Y-36007745D01*
X20710000Y-36007745D01*
X20710000Y-34783223D01*
X29553035Y-34783223D01*
X29580222Y-35353454D01*
X29746136Y-35754005D01*
X29992255Y-35828139D01*
X30820395Y-35000000D01*
X31179605Y-35000000D01*
X32007745Y-35828139D01*
X32253864Y-35754005D01*
X32446965Y-35216777D01*
X32419778Y-34646546D01*
X32253864Y-34245995D01*
X32007745Y-34171861D01*
X31179605Y-35000000D01*
X30820395Y-35000000D01*
X29992255Y-34171861D01*
X29746136Y-34245995D01*
X29553035Y-34783223D01*
X20710000Y-34783223D01*
X20710000Y-33992255D01*
X30171861Y-33992255D01*
X31000000Y-34820395D01*
X31828139Y-33992255D01*
X31754005Y-33746136D01*
X31216777Y-33553035D01*
X30646546Y-33580222D01*
X30245995Y-33746136D01*
X30171861Y-33992255D01*
X20710000Y-33992255D01*
X20710000Y-30284187D01*
X29564752Y-30284187D01*
X29782757Y-30811800D01*
X30186077Y-31215824D01*
X30713309Y-31434750D01*
X31284187Y-31435248D01*
X31811800Y-31217243D01*
X32215824Y-30813923D01*
X32434750Y-30286691D01*
X32435248Y-29715813D01*
X32217243Y-29188200D01*
X31813923Y-28784176D01*
X31286691Y-28565250D01*
X30715813Y-28564752D01*
X30188200Y-28782757D01*
X29784176Y-29186077D01*
X29565250Y-29713309D01*
X29564752Y-30284187D01*
X20710000Y-30284187D01*
X20710000Y-27584187D01*
X70364752Y-27584187D01*
X70582757Y-28111800D01*
X70986077Y-28515824D01*
X71513309Y-28734750D01*
X72084187Y-28735248D01*
X72611800Y-28517243D01*
X72876187Y-28253317D01*
X72961673Y-28459699D01*
X73140302Y-28638327D01*
X73373691Y-28735000D01*
X74014250Y-28735000D01*
X74173000Y-28576250D01*
X74173000Y-27427000D01*
X74427000Y-27427000D01*
X74427000Y-28576250D01*
X74585750Y-28735000D01*
X75226309Y-28735000D01*
X75459698Y-28638327D01*
X75638327Y-28459699D01*
X75701268Y-28307745D01*
X78371861Y-28307745D01*
X78445995Y-28553864D01*
X78983223Y-28746965D01*
X79553454Y-28719778D01*
X79954005Y-28553864D01*
X80028139Y-28307745D01*
X79200000Y-27479605D01*
X78371861Y-28307745D01*
X75701268Y-28307745D01*
X75735000Y-28226310D01*
X75735000Y-27585750D01*
X75576250Y-27427000D01*
X74427000Y-27427000D01*
X74173000Y-27427000D01*
X74153000Y-27427000D01*
X74153000Y-27173000D01*
X74173000Y-27173000D01*
X74173000Y-26023750D01*
X74427000Y-26023750D01*
X74427000Y-27173000D01*
X75576250Y-27173000D01*
X75666027Y-27083223D01*
X77753035Y-27083223D01*
X77780222Y-27653454D01*
X77946136Y-28054005D01*
X78192255Y-28128139D01*
X79020395Y-27300000D01*
X79379605Y-27300000D01*
X80207745Y-28128139D01*
X80255167Y-28113855D01*
X80296838Y-28335317D01*
X80435910Y-28551441D01*
X80648110Y-28696431D01*
X80900000Y-28747440D01*
X82500000Y-28747440D01*
X82735317Y-28703162D01*
X82951441Y-28564090D01*
X83096431Y-28351890D01*
X83147440Y-28100000D01*
X83147440Y-26500000D01*
X83103162Y-26264683D01*
X82964090Y-26048559D01*
X82781492Y-25923795D01*
X88564716Y-25923795D01*
X88813106Y-26524943D01*
X89272637Y-26985278D01*
X89873352Y-27234716D01*
X90523795Y-27235284D01*
X91124943Y-26986894D01*
X91585278Y-26527363D01*
X91834716Y-25926648D01*
X91835284Y-25276205D01*
X91586894Y-24675057D01*
X91127363Y-24214722D01*
X90526648Y-23965284D01*
X89876205Y-23964716D01*
X89275057Y-24213106D01*
X88814722Y-24672637D01*
X88565284Y-25273352D01*
X88564716Y-25923795D01*
X82781492Y-25923795D01*
X82751890Y-25903569D01*
X82500000Y-25852560D01*
X80900000Y-25852560D01*
X80664683Y-25896838D01*
X80448559Y-26035910D01*
X80303569Y-26248110D01*
X80255354Y-26486201D01*
X80207745Y-26471861D01*
X79379605Y-27300000D01*
X79020395Y-27300000D01*
X78192255Y-26471861D01*
X77946136Y-26545995D01*
X77753035Y-27083223D01*
X75666027Y-27083223D01*
X75735000Y-27014250D01*
X75735000Y-26373690D01*
X75701269Y-26292255D01*
X78371861Y-26292255D01*
X79200000Y-27120395D01*
X80028139Y-26292255D01*
X79954005Y-26046136D01*
X79416777Y-25853035D01*
X78846546Y-25880222D01*
X78445995Y-26046136D01*
X78371861Y-26292255D01*
X75701269Y-26292255D01*
X75638327Y-26140301D01*
X75459698Y-25961673D01*
X75226309Y-25865000D01*
X74585750Y-25865000D01*
X74427000Y-26023750D01*
X74173000Y-26023750D01*
X74014250Y-25865000D01*
X73373691Y-25865000D01*
X73140302Y-25961673D01*
X72961673Y-26140301D01*
X72876124Y-26346835D01*
X72613923Y-26084176D01*
X72086691Y-25865250D01*
X71515813Y-25864752D01*
X70988200Y-26082757D01*
X70584176Y-26486077D01*
X70365250Y-27013309D01*
X70364752Y-27584187D01*
X20710000Y-27584187D01*
X20710000Y-25923795D01*
X32564716Y-25923795D01*
X32813106Y-26524943D01*
X33272637Y-26985278D01*
X33873352Y-27234716D01*
X34523795Y-27235284D01*
X35124943Y-26986894D01*
X35585278Y-26527363D01*
X35834716Y-25926648D01*
X35835284Y-25276205D01*
X35586894Y-24675057D01*
X35127363Y-24214722D01*
X34526648Y-23965284D01*
X33876205Y-23964716D01*
X33275057Y-24213106D01*
X32814722Y-24672637D01*
X32565284Y-25273352D01*
X32564716Y-25923795D01*
X20710000Y-25923795D01*
X20710000Y-21442619D01*
X22764613Y-21442619D01*
X23104155Y-22264372D01*
X23732321Y-22893636D01*
X24553481Y-23234611D01*
X25442619Y-23235387D01*
X26264372Y-22895845D01*
X26893636Y-22267679D01*
X27234611Y-21446519D01*
X27234614Y-21442619D01*
X102764613Y-21442619D01*
X103104155Y-22264372D01*
X103732321Y-22893636D01*
X104553481Y-23234611D01*
X105442619Y-23235387D01*
X106264372Y-22895845D01*
X106893636Y-22267679D01*
X107234611Y-21446519D01*
X107235387Y-20557381D01*
X106895845Y-19735628D01*
X106267679Y-19106364D01*
X105446519Y-18765389D01*
X104557381Y-18764613D01*
X103735628Y-19104155D01*
X103106364Y-19732321D01*
X102765389Y-20553481D01*
X102764613Y-21442619D01*
X27234614Y-21442619D01*
X27235387Y-20557381D01*
X27217450Y-20513970D01*
X36585635Y-20513970D01*
X36745418Y-20832739D01*
X37536187Y-21142723D01*
X38385387Y-21126497D01*
X39094582Y-20832739D01*
X39254365Y-20513970D01*
X37920000Y-19179605D01*
X36585635Y-20513970D01*
X27217450Y-20513970D01*
X26895845Y-19735628D01*
X26267679Y-19106364D01*
X25446519Y-18765389D01*
X24557381Y-18764613D01*
X23735628Y-19104155D01*
X23106364Y-19732321D01*
X22765389Y-20553481D01*
X22764613Y-21442619D01*
X20710000Y-21442619D01*
X20710000Y-21069931D01*
X21049408Y-19363610D01*
X21548820Y-18616187D01*
X35777277Y-18616187D01*
X35793503Y-19465387D01*
X36087261Y-20174582D01*
X36406030Y-20334365D01*
X37740395Y-19000000D01*
X38099605Y-19000000D01*
X39433970Y-20334365D01*
X39752739Y-20174582D01*
X40062723Y-19383813D01*
X40046497Y-18534613D01*
X39752739Y-17825418D01*
X39433970Y-17665635D01*
X38099605Y-19000000D01*
X37740395Y-19000000D01*
X36406030Y-17665635D01*
X36087261Y-17825418D01*
X35777277Y-18616187D01*
X21548820Y-18616187D01*
X21976349Y-17976346D01*
X22710158Y-17486030D01*
X36585635Y-17486030D01*
X37920000Y-18820395D01*
X39240395Y-17500000D01*
X40852560Y-17500000D01*
X40852560Y-20500000D01*
X40896838Y-20735317D01*
X41035910Y-20951441D01*
X41248110Y-21096431D01*
X41500000Y-21147440D01*
X44500000Y-21147440D01*
X44735317Y-21103162D01*
X44951441Y-20964090D01*
X45096431Y-20751890D01*
X45147440Y-20500000D01*
X45147440Y-19422815D01*
X47624630Y-19422815D01*
X47948980Y-20207800D01*
X48549041Y-20808909D01*
X49333459Y-21134628D01*
X50182815Y-21135370D01*
X50967800Y-20811020D01*
X51568909Y-20210959D01*
X51894628Y-19426541D01*
X51894631Y-19422815D01*
X52704630Y-19422815D01*
X53028980Y-20207800D01*
X53629041Y-20808909D01*
X54413459Y-21134628D01*
X55262815Y-21135370D01*
X56047800Y-20811020D01*
X56345368Y-20513970D01*
X58585635Y-20513970D01*
X58745418Y-20832739D01*
X59536187Y-21142723D01*
X60385387Y-21126497D01*
X61094582Y-20832739D01*
X61254365Y-20513970D01*
X59920000Y-19179605D01*
X58585635Y-20513970D01*
X56345368Y-20513970D01*
X56648909Y-20210959D01*
X56974628Y-19426541D01*
X56975335Y-18616187D01*
X57777277Y-18616187D01*
X57793503Y-19465387D01*
X58087261Y-20174582D01*
X58406030Y-20334365D01*
X59740395Y-19000000D01*
X60099605Y-19000000D01*
X61433970Y-20334365D01*
X61752739Y-20174582D01*
X62062723Y-19383813D01*
X62046497Y-18534613D01*
X61752739Y-17825418D01*
X61433970Y-17665635D01*
X60099605Y-19000000D01*
X59740395Y-19000000D01*
X58406030Y-17665635D01*
X58087261Y-17825418D01*
X57777277Y-18616187D01*
X56975335Y-18616187D01*
X56975370Y-18577185D01*
X56651020Y-17792200D01*
X56345384Y-17486030D01*
X58585635Y-17486030D01*
X59920000Y-18820395D01*
X61240395Y-17500000D01*
X62852560Y-17500000D01*
X62852560Y-20500000D01*
X62896838Y-20735317D01*
X63035910Y-20951441D01*
X63248110Y-21096431D01*
X63500000Y-21147440D01*
X66500000Y-21147440D01*
X66735317Y-21103162D01*
X66951441Y-20964090D01*
X67096431Y-20751890D01*
X67147440Y-20500000D01*
X67147440Y-19422815D01*
X69704630Y-19422815D01*
X70028980Y-20207800D01*
X70629041Y-20808909D01*
X71413459Y-21134628D01*
X72262815Y-21135370D01*
X73047800Y-20811020D01*
X73345368Y-20513970D01*
X75585635Y-20513970D01*
X75745418Y-20832739D01*
X76536187Y-21142723D01*
X77385387Y-21126497D01*
X78094582Y-20832739D01*
X78254365Y-20513970D01*
X76920000Y-19179605D01*
X75585635Y-20513970D01*
X73345368Y-20513970D01*
X73648909Y-20210959D01*
X73974628Y-19426541D01*
X73975335Y-18616187D01*
X74777277Y-18616187D01*
X74793503Y-19465387D01*
X75087261Y-20174582D01*
X75406030Y-20334365D01*
X76740395Y-19000000D01*
X77099605Y-19000000D01*
X78433970Y-20334365D01*
X78752739Y-20174582D01*
X79062723Y-19383813D01*
X79046497Y-18534613D01*
X78752739Y-17825418D01*
X78433970Y-17665635D01*
X77099605Y-19000000D01*
X76740395Y-19000000D01*
X75406030Y-17665635D01*
X75087261Y-17825418D01*
X74777277Y-18616187D01*
X73975335Y-18616187D01*
X73975370Y-18577185D01*
X73651020Y-17792200D01*
X73345384Y-17486030D01*
X75585635Y-17486030D01*
X76920000Y-18820395D01*
X78240395Y-17500000D01*
X79852560Y-17500000D01*
X79852560Y-20500000D01*
X79896838Y-20735317D01*
X80035910Y-20951441D01*
X80248110Y-21096431D01*
X80500000Y-21147440D01*
X83500000Y-21147440D01*
X83735317Y-21103162D01*
X83951441Y-20964090D01*
X84096431Y-20751890D01*
X84144611Y-20513970D01*
X87585635Y-20513970D01*
X87745418Y-20832739D01*
X88536187Y-21142723D01*
X89385387Y-21126497D01*
X90094582Y-20832739D01*
X90254365Y-20513970D01*
X88920000Y-19179605D01*
X87585635Y-20513970D01*
X84144611Y-20513970D01*
X84147440Y-20500000D01*
X84147440Y-18616187D01*
X86777277Y-18616187D01*
X86793503Y-19465387D01*
X87087261Y-20174582D01*
X87406030Y-20334365D01*
X88740395Y-19000000D01*
X89099605Y-19000000D01*
X90433970Y-20334365D01*
X90752739Y-20174582D01*
X91062723Y-19383813D01*
X91046497Y-18534613D01*
X90752739Y-17825418D01*
X90433970Y-17665635D01*
X89099605Y-19000000D01*
X88740395Y-19000000D01*
X87406030Y-17665635D01*
X87087261Y-17825418D01*
X86777277Y-18616187D01*
X84147440Y-18616187D01*
X84147440Y-17500000D01*
X84144812Y-17486030D01*
X87585635Y-17486030D01*
X88920000Y-18820395D01*
X90240395Y-17500000D01*
X91852560Y-17500000D01*
X91852560Y-20500000D01*
X91896838Y-20735317D01*
X92035910Y-20951441D01*
X92248110Y-21096431D01*
X92500000Y-21147440D01*
X95500000Y-21147440D01*
X95735317Y-21103162D01*
X95951441Y-20964090D01*
X96096431Y-20751890D01*
X96147440Y-20500000D01*
X96147440Y-17500000D01*
X96103162Y-17264683D01*
X95964090Y-17048559D01*
X95751890Y-16903569D01*
X95500000Y-16852560D01*
X92500000Y-16852560D01*
X92264683Y-16896838D01*
X92048559Y-17035910D01*
X91903569Y-17248110D01*
X91852560Y-17500000D01*
X90240395Y-17500000D01*
X90254365Y-17486030D01*
X90094582Y-17167261D01*
X89303813Y-16857277D01*
X88454613Y-16873503D01*
X87745418Y-17167261D01*
X87585635Y-17486030D01*
X84144812Y-17486030D01*
X84103162Y-17264683D01*
X83964090Y-17048559D01*
X83751890Y-16903569D01*
X83500000Y-16852560D01*
X80500000Y-16852560D01*
X80264683Y-16896838D01*
X80048559Y-17035910D01*
X79903569Y-17248110D01*
X79852560Y-17500000D01*
X78240395Y-17500000D01*
X78254365Y-17486030D01*
X78094582Y-17167261D01*
X77303813Y-16857277D01*
X76454613Y-16873503D01*
X75745418Y-17167261D01*
X75585635Y-17486030D01*
X73345384Y-17486030D01*
X73050959Y-17191091D01*
X72266541Y-16865372D01*
X71417185Y-16864630D01*
X70632200Y-17188980D01*
X70031091Y-17789041D01*
X69705372Y-18573459D01*
X69704630Y-19422815D01*
X67147440Y-19422815D01*
X67147440Y-17500000D01*
X67103162Y-17264683D01*
X66964090Y-17048559D01*
X66751890Y-16903569D01*
X66500000Y-16852560D01*
X63500000Y-16852560D01*
X63264683Y-16896838D01*
X63048559Y-17035910D01*
X62903569Y-17248110D01*
X62852560Y-17500000D01*
X61240395Y-17500000D01*
X61254365Y-17486030D01*
X61094582Y-17167261D01*
X60303813Y-16857277D01*
X59454613Y-16873503D01*
X58745418Y-17167261D01*
X58585635Y-17486030D01*
X56345384Y-17486030D01*
X56050959Y-17191091D01*
X55266541Y-16865372D01*
X54417185Y-16864630D01*
X53632200Y-17188980D01*
X53031091Y-17789041D01*
X52705372Y-18573459D01*
X52704630Y-19422815D01*
X51894631Y-19422815D01*
X51895370Y-18577185D01*
X51571020Y-17792200D01*
X50970959Y-17191091D01*
X50186541Y-16865372D01*
X49337185Y-16864630D01*
X48552200Y-17188980D01*
X47951091Y-17789041D01*
X47625372Y-18573459D01*
X47624630Y-19422815D01*
X45147440Y-19422815D01*
X45147440Y-17500000D01*
X45103162Y-17264683D01*
X44964090Y-17048559D01*
X44751890Y-16903569D01*
X44500000Y-16852560D01*
X41500000Y-16852560D01*
X41264683Y-16896838D01*
X41048559Y-17035910D01*
X40903569Y-17248110D01*
X40852560Y-17500000D01*
X39240395Y-17500000D01*
X39254365Y-17486030D01*
X39094582Y-17167261D01*
X38303813Y-16857277D01*
X37454613Y-16873503D01*
X36745418Y-17167261D01*
X36585635Y-17486030D01*
X22710158Y-17486030D01*
X23363610Y-17049408D01*
X25069931Y-16710000D01*
X104930069Y-16710000D01*
X106636390Y-17049408D01*
X106636390Y-17049408D01*
G37*
X106636390Y-17049408D02*
X108023654Y-17976349D01*
X108950592Y-19363610D01*
X109290000Y-21069931D01*
X109290000Y-109930069D01*
X108950592Y-111636390D01*
X108023654Y-113023651D01*
X106636390Y-113950592D01*
X104930069Y-114290000D01*
X66792102Y-114290000D01*
X67116632Y-114037028D01*
X67451531Y-113446624D01*
X67489175Y-113296122D01*
X67371125Y-113027000D01*
X65027000Y-113027000D01*
X65027000Y-113047000D01*
X64773000Y-113047000D01*
X64773000Y-113027000D01*
X62428875Y-113027000D01*
X62310825Y-113296122D01*
X62348469Y-113446624D01*
X62683368Y-114037028D01*
X63007898Y-114290000D01*
X25069931Y-114290000D01*
X23363610Y-113950592D01*
X21976349Y-113023654D01*
X21629046Y-112503878D01*
X62310825Y-112503878D01*
X62428875Y-112773000D01*
X64773000Y-112773000D01*
X64773000Y-111165000D01*
X65027000Y-111165000D01*
X65027000Y-112773000D01*
X67371125Y-112773000D01*
X67489175Y-112503878D01*
X67451531Y-112353376D01*
X67116632Y-111762972D01*
X66581288Y-111345670D01*
X65927000Y-111165000D01*
X65027000Y-111165000D01*
X64773000Y-111165000D01*
X63873000Y-111165000D01*
X63218712Y-111345670D01*
X62683368Y-111762972D01*
X62348469Y-112353376D01*
X62310825Y-112503878D01*
X21629046Y-112503878D01*
X21049408Y-111636390D01*
X20811953Y-110442619D01*
X22764613Y-110442619D01*
X23104155Y-111264372D01*
X23732321Y-111893636D01*
X24553481Y-112234611D01*
X25442619Y-112235387D01*
X26264372Y-111895845D01*
X26893636Y-111267679D01*
X27234611Y-110446519D01*
X27235387Y-109557381D01*
X27057557Y-109127000D01*
X67765000Y-109127000D01*
X67765000Y-110027000D01*
X67945670Y-110681288D01*
X68362972Y-111216632D01*
X68953376Y-111551531D01*
X69103878Y-111589175D01*
X69373000Y-111471125D01*
X69373000Y-109127000D01*
X69627000Y-109127000D01*
X69627000Y-111471125D01*
X69896122Y-111589175D01*
X70046624Y-111551531D01*
X70637028Y-111216632D01*
X71054330Y-110681288D01*
X71120234Y-110442619D01*
X102764613Y-110442619D01*
X103104155Y-111264372D01*
X103732321Y-111893636D01*
X104553481Y-112234611D01*
X105442619Y-112235387D01*
X106264372Y-111895845D01*
X106893636Y-111267679D01*
X107234611Y-110446519D01*
X107235387Y-109557381D01*
X106895845Y-108735628D01*
X106267679Y-108106364D01*
X105446519Y-107765389D01*
X104557381Y-107764613D01*
X103735628Y-108104155D01*
X103106364Y-108732321D01*
X102765389Y-109553481D01*
X102764613Y-110442619D01*
X71120234Y-110442619D01*
X71235000Y-110027000D01*
X71235000Y-109127000D01*
X69627000Y-109127000D01*
X69373000Y-109127000D01*
X67765000Y-109127000D01*
X27057557Y-109127000D01*
X26895845Y-108735628D01*
X26267679Y-108106364D01*
X25446519Y-107765389D01*
X24557381Y-107764613D01*
X23735628Y-108104155D01*
X23106364Y-108732321D01*
X22765389Y-109553481D01*
X22764613Y-110442619D01*
X20811953Y-110442619D01*
X20710000Y-109930069D01*
X20710000Y-106185167D01*
X39814838Y-106185167D01*
X39956883Y-106528943D01*
X40219673Y-106792192D01*
X40563201Y-106934838D01*
X40935167Y-106935162D01*
X41278943Y-106793117D01*
X41542192Y-106530327D01*
X41684838Y-106186799D01*
X41685162Y-105814833D01*
X41543117Y-105471057D01*
X41535000Y-105462926D01*
X41535000Y-104575158D01*
X41925005Y-104185153D01*
X41935167Y-104185162D01*
X42278943Y-104043117D01*
X42542192Y-103780327D01*
X42684838Y-103436799D01*
X42685162Y-103064833D01*
X42543117Y-102721057D01*
X42280327Y-102457808D01*
X41936799Y-102315162D01*
X41564833Y-102314838D01*
X41221057Y-102456883D01*
X40957808Y-102719673D01*
X40815162Y-103063201D01*
X40815152Y-103074690D01*
X40194921Y-103694921D01*
X40024755Y-103949593D01*
X40007806Y-104034803D01*
X39965000Y-104250000D01*
X39965000Y-105462494D01*
X39957808Y-105469673D01*
X39815162Y-105813201D01*
X39814838Y-106185167D01*
X20710000Y-106185167D01*
X20710000Y-99224775D01*
X57364803Y-99224775D01*
X57537233Y-99642086D01*
X57856235Y-99961645D01*
X58273244Y-100134803D01*
X58724775Y-100135197D01*
X59142086Y-99962767D01*
X59461645Y-99643765D01*
X59565091Y-99394640D01*
X59564803Y-99724775D01*
X59737233Y-100142086D01*
X60056235Y-100461645D01*
X60473244Y-100634803D01*
X60924775Y-100635197D01*
X61342086Y-100462767D01*
X61419989Y-100385000D01*
X62633420Y-100385000D01*
X62715000Y-100466579D01*
X62715000Y-100576872D01*
X62686799Y-100565162D01*
X62314833Y-100564838D01*
X61971057Y-100706883D01*
X61707808Y-100969673D01*
X61565162Y-101313201D01*
X61564838Y-101685167D01*
X61706883Y-102028943D01*
X61715000Y-102037074D01*
X61715000Y-103559507D01*
X61399572Y-103770270D01*
X61302931Y-103284421D01*
X60926830Y-102721547D01*
X60363956Y-102345446D01*
X59700000Y-102213377D01*
X59036044Y-102345446D01*
X58473170Y-102721547D01*
X58097069Y-103284421D01*
X57965000Y-103948377D01*
X57965000Y-105851623D01*
X58097069Y-106515579D01*
X58473170Y-107078453D01*
X59036044Y-107454554D01*
X59700000Y-107586623D01*
X60363956Y-107454554D01*
X60700428Y-107229730D01*
X60797069Y-107715579D01*
X61173170Y-108278453D01*
X61736044Y-108654554D01*
X62400000Y-108786623D01*
X63063956Y-108654554D01*
X63626830Y-108278453D01*
X63830927Y-107973000D01*
X67765000Y-107973000D01*
X67765000Y-108873000D01*
X69373000Y-108873000D01*
X69373000Y-106528875D01*
X69103878Y-106410825D01*
X68953376Y-106448469D01*
X68362972Y-106783368D01*
X67945670Y-107318712D01*
X67765000Y-107973000D01*
X63830927Y-107973000D01*
X64002931Y-107715579D01*
X64135000Y-107051623D01*
X64135000Y-105148377D01*
X64002931Y-104484421D01*
X63626830Y-103921547D01*
X63285000Y-103693143D01*
X63285000Y-102436580D01*
X63864897Y-103016477D01*
X63864803Y-103124775D01*
X64037233Y-103542086D01*
X64356235Y-103861645D01*
X64773244Y-104034803D01*
X65224775Y-104035197D01*
X65642086Y-103862767D01*
X65961645Y-103543765D01*
X66134803Y-103126756D01*
X66135197Y-102675225D01*
X65962767Y-102257914D01*
X65801258Y-102096122D01*
X66410825Y-102096122D01*
X66448469Y-102246624D01*
X66783368Y-102837028D01*
X67318712Y-103254330D01*
X67962661Y-103432145D01*
X67838355Y-103556235D01*
X67665197Y-103973244D01*
X67664803Y-104424775D01*
X67837233Y-104842086D01*
X68156235Y-105161645D01*
X68573244Y-105334803D01*
X69024775Y-105335197D01*
X69137175Y-105288754D01*
X69564897Y-105716477D01*
X69564803Y-105824775D01*
X69737233Y-106242086D01*
X69908858Y-106414011D01*
X69896122Y-106410825D01*
X69627000Y-106528875D01*
X69627000Y-108873000D01*
X71235000Y-108873000D01*
X71235000Y-107973000D01*
X71054330Y-107318712D01*
X70637028Y-106783368D01*
X70551532Y-106734871D01*
X70924775Y-106735197D01*
X71342086Y-106562767D01*
X71661645Y-106243765D01*
X71834803Y-105826756D01*
X71835197Y-105375225D01*
X71662767Y-104957914D01*
X71343765Y-104638355D01*
X70926756Y-104465197D01*
X70816680Y-104465101D01*
X70536747Y-104185167D01*
X88564838Y-104185167D01*
X88706883Y-104528943D01*
X88969673Y-104792192D01*
X89313201Y-104934838D01*
X89685167Y-104935162D01*
X90028943Y-104793117D01*
X90292192Y-104530327D01*
X90434838Y-104186799D01*
X90434848Y-104175310D01*
X90675005Y-103935153D01*
X90685167Y-103935162D01*
X91028943Y-103793117D01*
X91292192Y-103530327D01*
X91434838Y-103186799D01*
X91435162Y-102814833D01*
X91293117Y-102471057D01*
X91030327Y-102207808D01*
X90686799Y-102065162D01*
X90314833Y-102064838D01*
X89971057Y-102206883D01*
X89707808Y-102469673D01*
X89565162Y-102813201D01*
X89565152Y-102824690D01*
X89324995Y-103064847D01*
X89314833Y-103064838D01*
X88971057Y-103206883D01*
X88707808Y-103469673D01*
X88565162Y-103813201D01*
X88564838Y-104185167D01*
X70536747Y-104185167D01*
X69925790Y-103574210D01*
X69897158Y-103555079D01*
X69717446Y-103435000D01*
X70027000Y-103435000D01*
X70681288Y-103254330D01*
X71216632Y-102837028D01*
X71551531Y-102246624D01*
X71589175Y-102096122D01*
X71471125Y-101827000D01*
X69127000Y-101827000D01*
X69127000Y-101847000D01*
X68873000Y-101847000D01*
X68873000Y-101827000D01*
X66528875Y-101827000D01*
X66410825Y-102096122D01*
X65801258Y-102096122D01*
X65643765Y-101938355D01*
X65226756Y-101765197D01*
X65116680Y-101765101D01*
X64655458Y-101303878D01*
X66410825Y-101303878D01*
X66528875Y-101573000D01*
X68873000Y-101573000D01*
X68873000Y-99965000D01*
X69127000Y-99965000D01*
X69127000Y-101573000D01*
X71471125Y-101573000D01*
X71589175Y-101303878D01*
X71569390Y-101224775D01*
X87864803Y-101224775D01*
X88037233Y-101642086D01*
X88356235Y-101961645D01*
X88773244Y-102134803D01*
X89224775Y-102135197D01*
X89642086Y-101962767D01*
X89820163Y-101785000D01*
X94992986Y-101785000D01*
X95037233Y-101892086D01*
X95356235Y-102211645D01*
X95773244Y-102384803D01*
X96224775Y-102385197D01*
X96642086Y-102212767D01*
X96961645Y-101893765D01*
X97134803Y-101476756D01*
X97135197Y-101025225D01*
X96962767Y-100607914D01*
X96643765Y-100288355D01*
X96226756Y-100115197D01*
X95775225Y-100114803D01*
X95532731Y-100215000D01*
X91857196Y-100215000D01*
X92042192Y-100030327D01*
X92184838Y-99686799D01*
X92185162Y-99314833D01*
X92043117Y-98971057D01*
X92035000Y-98962926D01*
X92035000Y-98037506D01*
X92042192Y-98030327D01*
X92184838Y-97686799D01*
X92184839Y-97685167D01*
X97814838Y-97685167D01*
X97956883Y-98028943D01*
X97965000Y-98037074D01*
X97965000Y-98962494D01*
X97957808Y-98969673D01*
X97815162Y-99313201D01*
X97814838Y-99685167D01*
X97956883Y-100028943D01*
X98219673Y-100292192D01*
X98563201Y-100434838D01*
X98935167Y-100435162D01*
X99278943Y-100293117D01*
X99542192Y-100030327D01*
X99684838Y-99686799D01*
X99685162Y-99314833D01*
X99543117Y-98971057D01*
X99535000Y-98962926D01*
X99535000Y-98037506D01*
X99542192Y-98030327D01*
X99684838Y-97686799D01*
X99685162Y-97314833D01*
X99543117Y-96971057D01*
X99280327Y-96707808D01*
X98936799Y-96565162D01*
X98564833Y-96564838D01*
X98221057Y-96706883D01*
X97957808Y-96969673D01*
X97815162Y-97313201D01*
X97814838Y-97685167D01*
X92184839Y-97685167D01*
X92185162Y-97314833D01*
X92043117Y-96971057D01*
X91780327Y-96707808D01*
X91436799Y-96565162D01*
X91064833Y-96564838D01*
X90721057Y-96706883D01*
X90457808Y-96969673D01*
X90315162Y-97313201D01*
X90314838Y-97685167D01*
X90456883Y-98028943D01*
X90465000Y-98037074D01*
X90465000Y-98962494D01*
X90457808Y-98969673D01*
X90315162Y-99313201D01*
X90314838Y-99685167D01*
X90456883Y-100028943D01*
X90642616Y-100215000D01*
X89820102Y-100215000D01*
X89643765Y-100038355D01*
X89226756Y-99865197D01*
X88775225Y-99864803D01*
X88357914Y-100037233D01*
X88038355Y-100356235D01*
X87865197Y-100773244D01*
X87864803Y-101224775D01*
X71569390Y-101224775D01*
X71551531Y-101153376D01*
X71216632Y-100562972D01*
X70681288Y-100145670D01*
X70027000Y-99965000D01*
X69127000Y-99965000D01*
X68873000Y-99965000D01*
X67973000Y-99965000D01*
X67318712Y-100145670D01*
X66783368Y-100562972D01*
X66448469Y-101153376D01*
X66410825Y-101303878D01*
X64655458Y-101303878D01*
X64485000Y-101133420D01*
X64485000Y-100100005D01*
X64485001Y-100100000D01*
X64417633Y-99761325D01*
X64384438Y-99711645D01*
X64225790Y-99474210D01*
X64225787Y-99474208D01*
X63726355Y-98974775D01*
X72614803Y-98974775D01*
X72787233Y-99392086D01*
X73106235Y-99711645D01*
X73523244Y-99884803D01*
X73974775Y-99885197D01*
X74392086Y-99712767D01*
X74711645Y-99393765D01*
X74884803Y-98976756D01*
X74884899Y-98866681D01*
X75366477Y-98385103D01*
X75474775Y-98385197D01*
X75892086Y-98212767D01*
X76211645Y-97893765D01*
X76384803Y-97476756D01*
X76385197Y-97025225D01*
X76212767Y-96607914D01*
X75893765Y-96288355D01*
X75476756Y-96115197D01*
X75025225Y-96114803D01*
X74607914Y-96287233D01*
X74288355Y-96606235D01*
X74115197Y-97023244D01*
X74115101Y-97133320D01*
X73633523Y-97614897D01*
X73525225Y-97614803D01*
X73107914Y-97787233D01*
X72788355Y-98106235D01*
X72615197Y-98523244D01*
X72614803Y-98974775D01*
X63726355Y-98974775D01*
X63625790Y-98874210D01*
X63598888Y-98856235D01*
X63338675Y-98682367D01*
X63282484Y-98671190D01*
X63000000Y-98614999D01*
X62999995Y-98615000D01*
X61420276Y-98615000D01*
X61343765Y-98538355D01*
X60971298Y-98383693D01*
X61211645Y-98143765D01*
X61384803Y-97726756D01*
X61385197Y-97275225D01*
X61212767Y-96857914D01*
X60893765Y-96538355D01*
X60476756Y-96365197D01*
X60025225Y-96364803D01*
X59607914Y-96537233D01*
X59288355Y-96856235D01*
X59214625Y-97033796D01*
X58383523Y-97864897D01*
X58275225Y-97864803D01*
X57857914Y-98037233D01*
X57538355Y-98356235D01*
X57365197Y-98773244D01*
X57364803Y-99224775D01*
X20710000Y-99224775D01*
X20710000Y-95435167D01*
X40064838Y-95435167D01*
X40206883Y-95778943D01*
X40469673Y-96042192D01*
X40813201Y-96184838D01*
X40824690Y-96184848D01*
X41314847Y-96675005D01*
X41314838Y-96685167D01*
X41456883Y-97028943D01*
X41719673Y-97292192D01*
X42063201Y-97434838D01*
X42435167Y-97435162D01*
X42778943Y-97293117D01*
X43042192Y-97030327D01*
X43184838Y-96686799D01*
X43185162Y-96314833D01*
X43043117Y-95971057D01*
X42780327Y-95707808D01*
X42436799Y-95565162D01*
X42425310Y-95565152D01*
X42384933Y-95524775D01*
X52164803Y-95524775D01*
X52337233Y-95942086D01*
X52656235Y-96261645D01*
X53073244Y-96434803D01*
X53524775Y-96435197D01*
X53942086Y-96262767D01*
X54019989Y-96185000D01*
X56879724Y-96185000D01*
X56956235Y-96261645D01*
X57373244Y-96434803D01*
X57824775Y-96435197D01*
X58242086Y-96262767D01*
X58561645Y-95943765D01*
X58734803Y-95526756D01*
X58735197Y-95075225D01*
X58562767Y-94657914D01*
X58243765Y-94338355D01*
X57826756Y-94165197D01*
X57375225Y-94164803D01*
X56957914Y-94337233D01*
X56880011Y-94415000D01*
X54020276Y-94415000D01*
X53943765Y-94338355D01*
X53526756Y-94165197D01*
X53075225Y-94164803D01*
X52657914Y-94337233D01*
X52338355Y-94656235D01*
X52165197Y-95073244D01*
X52164803Y-95524775D01*
X42384933Y-95524775D01*
X41935153Y-95074995D01*
X41935162Y-95064833D01*
X41793117Y-94721057D01*
X41530327Y-94457808D01*
X41186799Y-94315162D01*
X40814833Y-94314838D01*
X40471057Y-94456883D01*
X40207808Y-94719673D01*
X40065162Y-95063201D01*
X40064838Y-95435167D01*
X20710000Y-95435167D01*
X20710000Y-91724775D01*
X43614803Y-91724775D01*
X43787233Y-92142086D01*
X44106235Y-92461645D01*
X44523244Y-92634803D01*
X44974775Y-92635197D01*
X45392086Y-92462767D01*
X45469989Y-92385000D01*
X51931007Y-92385000D01*
X52037233Y-92642086D01*
X52356235Y-92961645D01*
X52773244Y-93134803D01*
X53224775Y-93135197D01*
X53642086Y-92962767D01*
X53961645Y-92643765D01*
X54134803Y-92226756D01*
X54135197Y-91775225D01*
X53962767Y-91357914D01*
X53805129Y-91200000D01*
X60552560Y-91200000D01*
X60552560Y-92800000D01*
X60596838Y-93035317D01*
X60735910Y-93251441D01*
X60752366Y-93262685D01*
X60565250Y-93713309D01*
X60564752Y-94284187D01*
X60782757Y-94811800D01*
X61186077Y-95215824D01*
X61713309Y-95434750D01*
X62284187Y-95435248D01*
X62811800Y-95217243D01*
X63215824Y-94813923D01*
X63434750Y-94286691D01*
X63435248Y-93715813D01*
X63249197Y-93265534D01*
X63251441Y-93264090D01*
X63396431Y-93051890D01*
X63447440Y-92800000D01*
X63447440Y-91200000D01*
X66552560Y-91200000D01*
X66552560Y-92800000D01*
X66596838Y-93035317D01*
X66735910Y-93251441D01*
X66752366Y-93262685D01*
X66565250Y-93713309D01*
X66564752Y-94284187D01*
X66782757Y-94811800D01*
X67186077Y-95215824D01*
X67713309Y-95434750D01*
X68284187Y-95435248D01*
X68811800Y-95217243D01*
X69215824Y-94813923D01*
X69434750Y-94286691D01*
X69435022Y-93974775D01*
X71114803Y-93974775D01*
X71287233Y-94392086D01*
X71606235Y-94711645D01*
X72023244Y-94884803D01*
X72474775Y-94885197D01*
X72892086Y-94712767D01*
X72969989Y-94635000D01*
X73779724Y-94635000D01*
X73856235Y-94711645D01*
X74273244Y-94884803D01*
X74724775Y-94885197D01*
X75142086Y-94712767D01*
X75461645Y-94393765D01*
X75634803Y-93976756D01*
X75634804Y-93974775D01*
X76114803Y-93974775D01*
X76287233Y-94392086D01*
X76606235Y-94711645D01*
X77023244Y-94884803D01*
X77133319Y-94884899D01*
X77614897Y-95366477D01*
X77614803Y-95474775D01*
X77787233Y-95892086D01*
X78106235Y-96211645D01*
X78523244Y-96384803D01*
X78974775Y-96385197D01*
X79392086Y-96212767D01*
X79711645Y-95893765D01*
X79884803Y-95476756D01*
X79885197Y-95025225D01*
X79712767Y-94607914D01*
X79393765Y-94288355D01*
X78976756Y-94115197D01*
X78866680Y-94115101D01*
X78385103Y-93633523D01*
X78385197Y-93525225D01*
X78212767Y-93107914D01*
X77893765Y-92788355D01*
X77476756Y-92615197D01*
X77025225Y-92614803D01*
X76607914Y-92787233D01*
X76288355Y-93106235D01*
X76115197Y-93523244D01*
X76114803Y-93974775D01*
X75634804Y-93974775D01*
X75635197Y-93525225D01*
X75462767Y-93107914D01*
X75143765Y-92788355D01*
X74726756Y-92615197D01*
X74275225Y-92614803D01*
X73857914Y-92787233D01*
X73780011Y-92865000D01*
X72970276Y-92865000D01*
X72893765Y-92788355D01*
X72476756Y-92615197D01*
X72025225Y-92614803D01*
X71607914Y-92787233D01*
X71288355Y-93106235D01*
X71115197Y-93523244D01*
X71114803Y-93974775D01*
X69435022Y-93974775D01*
X69435248Y-93715813D01*
X69249197Y-93265534D01*
X69251441Y-93264090D01*
X69396431Y-93051890D01*
X69447440Y-92800000D01*
X69447440Y-92435167D01*
X90064838Y-92435167D01*
X90206883Y-92778943D01*
X90469673Y-93042192D01*
X90813201Y-93184838D01*
X91185167Y-93185162D01*
X91528943Y-93043117D01*
X91537074Y-93035000D01*
X92712494Y-93035000D01*
X92719673Y-93042192D01*
X93063201Y-93184838D01*
X93435167Y-93185162D01*
X93778943Y-93043117D01*
X94042192Y-92780327D01*
X94184838Y-92436799D01*
X94185162Y-92064833D01*
X94043117Y-91721057D01*
X93780327Y-91457808D01*
X93436799Y-91315162D01*
X93064833Y-91314838D01*
X92721057Y-91456883D01*
X92712926Y-91465000D01*
X91537506Y-91465000D01*
X91530327Y-91457808D01*
X91186799Y-91315162D01*
X90814833Y-91314838D01*
X90471057Y-91456883D01*
X90207808Y-91719673D01*
X90065162Y-92063201D01*
X90064838Y-92435167D01*
X69447440Y-92435167D01*
X69447440Y-91200000D01*
X69405061Y-90974775D01*
X84364803Y-90974775D01*
X84537233Y-91392086D01*
X84856235Y-91711645D01*
X85273244Y-91884803D01*
X85724775Y-91885197D01*
X86142086Y-91712767D01*
X86461645Y-91393765D01*
X86634803Y-90976756D01*
X86634899Y-90866681D01*
X87625787Y-89875792D01*
X87625790Y-89875790D01*
X87817633Y-89588675D01*
X87885000Y-89250000D01*
X87885000Y-88720276D01*
X87961645Y-88643765D01*
X88134803Y-88226756D01*
X88135197Y-87775225D01*
X87962767Y-87357914D01*
X87643765Y-87038355D01*
X87226756Y-86865197D01*
X86775225Y-86864803D01*
X86357914Y-87037233D01*
X86038355Y-87356235D01*
X85865197Y-87773244D01*
X85864803Y-88224775D01*
X86037233Y-88642086D01*
X86115000Y-88719989D01*
X86115000Y-88883421D01*
X85383523Y-89614897D01*
X85275225Y-89614803D01*
X84857914Y-89787233D01*
X84538355Y-90106235D01*
X84365197Y-90523244D01*
X84364803Y-90974775D01*
X69405061Y-90974775D01*
X69403162Y-90964683D01*
X69264090Y-90748559D01*
X69051890Y-90603569D01*
X68800000Y-90552560D01*
X67200000Y-90552560D01*
X66964683Y-90596838D01*
X66748559Y-90735910D01*
X66603569Y-90948110D01*
X66552560Y-91200000D01*
X63447440Y-91200000D01*
X63403162Y-90964683D01*
X63264090Y-90748559D01*
X63051890Y-90603569D01*
X62800000Y-90552560D01*
X61200000Y-90552560D01*
X60964683Y-90596838D01*
X60748559Y-90735910D01*
X60603569Y-90948110D01*
X60552560Y-91200000D01*
X53805129Y-91200000D01*
X53643765Y-91038355D01*
X53226756Y-90865197D01*
X53112151Y-90865097D01*
X53098888Y-90856235D01*
X52838675Y-90682367D01*
X52782484Y-90671190D01*
X52500000Y-90614999D01*
X52499995Y-90615000D01*
X45470276Y-90615000D01*
X45393765Y-90538355D01*
X44976756Y-90365197D01*
X44525225Y-90364803D01*
X44107914Y-90537233D01*
X43788355Y-90856235D01*
X43615197Y-91273244D01*
X43614803Y-91724775D01*
X20710000Y-91724775D01*
X20710000Y-90474775D01*
X38364803Y-90474775D01*
X38537233Y-90892086D01*
X38856235Y-91211645D01*
X39273244Y-91384803D01*
X39724775Y-91385197D01*
X40142086Y-91212767D01*
X40461645Y-90893765D01*
X40634803Y-90476756D01*
X40635197Y-90025225D01*
X40515659Y-89735921D01*
X40866477Y-89385103D01*
X40974775Y-89385197D01*
X41392086Y-89212767D01*
X41711645Y-88893765D01*
X41781816Y-88724775D01*
X50564803Y-88724775D01*
X50737233Y-89142086D01*
X51056235Y-89461645D01*
X51473244Y-89634803D01*
X51924775Y-89635197D01*
X52342086Y-89462767D01*
X52661645Y-89143765D01*
X52834803Y-88726756D01*
X52834899Y-88616681D01*
X53066413Y-88385167D01*
X55864838Y-88385167D01*
X56006883Y-88728943D01*
X56269673Y-88992192D01*
X56613201Y-89134838D01*
X56985167Y-89135162D01*
X57328943Y-88993117D01*
X57337074Y-88985000D01*
X58893178Y-88985000D01*
X59013201Y-89034838D01*
X59385167Y-89035162D01*
X59728943Y-88893117D01*
X59992192Y-88630327D01*
X60134838Y-88286799D01*
X60135162Y-87914833D01*
X59993117Y-87571057D01*
X59730327Y-87307808D01*
X59386799Y-87165162D01*
X59014833Y-87164838D01*
X58671057Y-87306883D01*
X58562751Y-87415000D01*
X57337506Y-87415000D01*
X57330327Y-87407808D01*
X56986799Y-87265162D01*
X56614833Y-87264838D01*
X56271057Y-87406883D01*
X56007808Y-87669673D01*
X55865162Y-88013201D01*
X55864838Y-88385167D01*
X53066413Y-88385167D01*
X53316477Y-88135103D01*
X53424775Y-88135197D01*
X53842086Y-87962767D01*
X54161645Y-87643765D01*
X54334803Y-87226756D01*
X54335022Y-86974775D01*
X78364803Y-86974775D01*
X78537233Y-87392086D01*
X78856235Y-87711645D01*
X79273244Y-87884803D01*
X79383319Y-87884899D01*
X80114897Y-88616477D01*
X80114803Y-88724775D01*
X80287233Y-89142086D01*
X80606235Y-89461645D01*
X81023244Y-89634803D01*
X81474775Y-89635197D01*
X81892086Y-89462767D01*
X82211645Y-89143765D01*
X82384803Y-88726756D01*
X82385197Y-88275225D01*
X82212767Y-87857914D01*
X81893765Y-87538355D01*
X81476756Y-87365197D01*
X81366680Y-87365101D01*
X80635103Y-86633523D01*
X80635197Y-86525225D01*
X80462767Y-86107914D01*
X80143765Y-85788355D01*
X79726756Y-85615197D01*
X79275225Y-85614803D01*
X78857914Y-85787233D01*
X78538355Y-86106235D01*
X78365197Y-86523244D01*
X78364803Y-86974775D01*
X54335022Y-86974775D01*
X54335197Y-86775225D01*
X54162767Y-86357914D01*
X53843765Y-86038355D01*
X53426756Y-85865197D01*
X52975225Y-85864803D01*
X52557914Y-86037233D01*
X52238355Y-86356235D01*
X52065197Y-86773244D01*
X52065101Y-86883320D01*
X51583523Y-87364897D01*
X51475225Y-87364803D01*
X51057914Y-87537233D01*
X50738355Y-87856235D01*
X50565197Y-88273244D01*
X50564803Y-88724775D01*
X41781816Y-88724775D01*
X41884803Y-88476756D01*
X41885197Y-88025225D01*
X41712767Y-87607914D01*
X41393765Y-87288355D01*
X40976756Y-87115197D01*
X40525225Y-87114803D01*
X40107914Y-87287233D01*
X39788355Y-87606235D01*
X39615197Y-88023244D01*
X39615101Y-88133320D01*
X38874210Y-88874210D01*
X38682367Y-89161325D01*
X38671190Y-89217516D01*
X38614999Y-89500000D01*
X38615000Y-89500005D01*
X38615000Y-89529724D01*
X38538355Y-89606235D01*
X38365197Y-90023244D01*
X38364803Y-90474775D01*
X20710000Y-90474775D01*
X20710000Y-87724775D01*
X35614803Y-87724775D01*
X35787233Y-88142086D01*
X36106235Y-88461645D01*
X36523244Y-88634803D01*
X36974775Y-88635197D01*
X37392086Y-88462767D01*
X37711645Y-88143765D01*
X37884803Y-87726756D01*
X37884899Y-87616681D01*
X38616477Y-86885103D01*
X38724775Y-86885197D01*
X39142086Y-86712767D01*
X39461645Y-86393765D01*
X39625189Y-85999910D01*
X39787233Y-86392086D01*
X40106235Y-86711645D01*
X40523244Y-86884803D01*
X40974775Y-86885197D01*
X41392086Y-86712767D01*
X41469989Y-86635000D01*
X46250000Y-86635000D01*
X46266036Y-86631810D01*
X46273244Y-86634803D01*
X46724775Y-86635197D01*
X46963474Y-86536568D01*
X46865197Y-86773244D01*
X46864803Y-87224775D01*
X47037233Y-87642086D01*
X47356235Y-87961645D01*
X47773244Y-88134803D01*
X48224775Y-88135197D01*
X48642086Y-87962767D01*
X48961645Y-87643765D01*
X49035374Y-87466205D01*
X50866477Y-85635103D01*
X50974775Y-85635197D01*
X51392086Y-85462767D01*
X51711645Y-85143765D01*
X51884803Y-84726756D01*
X51885197Y-84275225D01*
X51864352Y-84224775D01*
X81364803Y-84224775D01*
X81537233Y-84642086D01*
X81856235Y-84961645D01*
X82273244Y-85134803D01*
X82724775Y-85135197D01*
X82837175Y-85088754D01*
X83364897Y-85616477D01*
X83364803Y-85724775D01*
X83537233Y-86142086D01*
X83856235Y-86461645D01*
X84273244Y-86634803D01*
X84724775Y-86635197D01*
X85142086Y-86462767D01*
X85461645Y-86143765D01*
X85634803Y-85726756D01*
X85635197Y-85275225D01*
X85462767Y-84857914D01*
X85143765Y-84538355D01*
X84726756Y-84365197D01*
X84616680Y-84365101D01*
X83625790Y-83374210D01*
X83598888Y-83356235D01*
X83338675Y-83182367D01*
X83282484Y-83171190D01*
X83274853Y-83169672D01*
X83143765Y-83038355D01*
X82726756Y-82865197D01*
X82275225Y-82864803D01*
X81857914Y-83037233D01*
X81538355Y-83356235D01*
X81365197Y-83773244D01*
X81364803Y-84224775D01*
X51864352Y-84224775D01*
X51712767Y-83857914D01*
X51393765Y-83538355D01*
X50976756Y-83365197D01*
X50525225Y-83364803D01*
X50107914Y-83537233D01*
X49788355Y-83856235D01*
X49615197Y-84273244D01*
X49615101Y-84383320D01*
X48133305Y-85865115D01*
X47775225Y-85864803D01*
X47536526Y-85963432D01*
X47634803Y-85726756D01*
X47635197Y-85275225D01*
X47462767Y-84857914D01*
X47143765Y-84538355D01*
X46774447Y-84385000D01*
X47279724Y-84385000D01*
X47356235Y-84461645D01*
X47773244Y-84634803D01*
X48224775Y-84635197D01*
X48642086Y-84462767D01*
X48961645Y-84143765D01*
X49134803Y-83726756D01*
X49135197Y-83275225D01*
X48962767Y-82857914D01*
X48643765Y-82538355D01*
X48226756Y-82365197D01*
X47775225Y-82364803D01*
X47357914Y-82537233D01*
X47280011Y-82615000D01*
X46220276Y-82615000D01*
X46143765Y-82538355D01*
X45726756Y-82365197D01*
X45275225Y-82364803D01*
X44857914Y-82537233D01*
X44538355Y-82856235D01*
X44365197Y-83273244D01*
X44364803Y-83724775D01*
X44537233Y-84142086D01*
X44856235Y-84461645D01*
X45273244Y-84634803D01*
X45724775Y-84635197D01*
X45784500Y-84610519D01*
X45538355Y-84856235D01*
X45534715Y-84865000D01*
X41470276Y-84865000D01*
X41393765Y-84788355D01*
X40976756Y-84615197D01*
X40525225Y-84614803D01*
X40107914Y-84787233D01*
X39788355Y-85106235D01*
X39624811Y-85500090D01*
X39462767Y-85107914D01*
X39143765Y-84788355D01*
X38726756Y-84615197D01*
X38275225Y-84614803D01*
X37857914Y-84787233D01*
X37538355Y-85106235D01*
X37365197Y-85523244D01*
X37365101Y-85633320D01*
X36633523Y-86364897D01*
X36525225Y-86364803D01*
X36107914Y-86537233D01*
X35788355Y-86856235D01*
X35615197Y-87273244D01*
X35614803Y-87724775D01*
X20710000Y-87724775D01*
X20710000Y-52723795D01*
X44164716Y-52723795D01*
X44413106Y-53324943D01*
X44872637Y-53785278D01*
X45473352Y-54034716D01*
X46123795Y-54035284D01*
X46724943Y-53786894D01*
X47185278Y-53327363D01*
X47434716Y-52726648D01*
X47435284Y-52076205D01*
X47186894Y-51475057D01*
X46727363Y-51014722D01*
X46126648Y-50765284D01*
X45476205Y-50764716D01*
X44875057Y-51013106D01*
X44414722Y-51472637D01*
X44165284Y-52073352D01*
X44164716Y-52723795D01*
X20710000Y-52723795D01*
X20710000Y-46974775D01*
X48114803Y-46974775D01*
X48287233Y-47392086D01*
X48606235Y-47711645D01*
X49023244Y-47884803D01*
X49474775Y-47885197D01*
X49892086Y-47712767D01*
X50211645Y-47393765D01*
X50255000Y-47289355D01*
X50255000Y-52649784D01*
X50143765Y-52538355D01*
X49726756Y-52365197D01*
X49275225Y-52364803D01*
X48857914Y-52537233D01*
X48538355Y-52856235D01*
X48365197Y-53273244D01*
X48364803Y-53724775D01*
X48537233Y-54142086D01*
X48856235Y-54461645D01*
X49273244Y-54634803D01*
X49724775Y-54635197D01*
X50142086Y-54462767D01*
X50255000Y-54350050D01*
X50255000Y-74500000D01*
X50349770Y-74976441D01*
X50619652Y-75380348D01*
X51619652Y-76380348D01*
X52023560Y-76650230D01*
X52500000Y-76745000D01*
X52976441Y-76650230D01*
X53380348Y-76380348D01*
X53417480Y-76324775D01*
X63564803Y-76324775D01*
X63737233Y-76742086D01*
X63830123Y-76835139D01*
X63850112Y-77794586D01*
X63788355Y-77856235D01*
X63615197Y-78273244D01*
X63614803Y-78724775D01*
X63787233Y-79142086D01*
X64106235Y-79461645D01*
X64523244Y-79634803D01*
X64974775Y-79635197D01*
X65392086Y-79462767D01*
X65711645Y-79143765D01*
X65884803Y-78726756D01*
X65885197Y-78275225D01*
X65712767Y-77857914D01*
X65619877Y-77764861D01*
X65599888Y-76805414D01*
X65661645Y-76743765D01*
X65834803Y-76326756D01*
X65835197Y-75875225D01*
X65662767Y-75457914D01*
X65343765Y-75138355D01*
X64926756Y-74965197D01*
X64475225Y-74964803D01*
X64057914Y-75137233D01*
X63738355Y-75456235D01*
X63565197Y-75873244D01*
X63564803Y-76324775D01*
X53417480Y-76324775D01*
X53650230Y-75976441D01*
X53745000Y-75500000D01*
X53650230Y-75023560D01*
X53380348Y-74619652D01*
X52745000Y-73984304D01*
X52745000Y-68724775D01*
X62114803Y-68724775D01*
X62287233Y-69142086D01*
X62606235Y-69461645D01*
X63023244Y-69634803D01*
X63474775Y-69635197D01*
X63892086Y-69462767D01*
X63969989Y-69385000D01*
X66279724Y-69385000D01*
X66356235Y-69461645D01*
X66773244Y-69634803D01*
X67224775Y-69635197D01*
X67642086Y-69462767D01*
X67961645Y-69143765D01*
X68134803Y-68726756D01*
X68135197Y-68275225D01*
X67962767Y-67857914D01*
X67643765Y-67538355D01*
X67226756Y-67365197D01*
X66775225Y-67364803D01*
X66357914Y-67537233D01*
X66280011Y-67615000D01*
X63970276Y-67615000D01*
X63893765Y-67538355D01*
X63476756Y-67365197D01*
X63025225Y-67364803D01*
X62607914Y-67537233D01*
X62288355Y-67856235D01*
X62115197Y-68273244D01*
X62114803Y-68724775D01*
X52745000Y-68724775D01*
X52745000Y-54464103D01*
X53023559Y-54650230D01*
X53500000Y-54745000D01*
X53750000Y-54745000D01*
X54226441Y-54650230D01*
X54630348Y-54380348D01*
X54900230Y-53976441D01*
X54995000Y-53500000D01*
X54900230Y-53023559D01*
X54630348Y-52619652D01*
X54226441Y-52349770D01*
X53750000Y-52255000D01*
X53500000Y-52255000D01*
X53023559Y-52349770D01*
X52745000Y-52535897D01*
X52745000Y-47600216D01*
X52856235Y-47711645D01*
X53273244Y-47884803D01*
X53724775Y-47885197D01*
X54142086Y-47712767D01*
X54461645Y-47393765D01*
X54634803Y-46976756D01*
X54635197Y-46525225D01*
X54462767Y-46107914D01*
X54143765Y-45788355D01*
X53726756Y-45615197D01*
X53275225Y-45614803D01*
X52857914Y-45787233D01*
X52745000Y-45899950D01*
X52745000Y-44720421D01*
X52782757Y-44811800D01*
X53186077Y-45215824D01*
X53713309Y-45434750D01*
X54284187Y-45435248D01*
X54811800Y-45217243D01*
X55080583Y-44948928D01*
X55096838Y-45035317D01*
X55235910Y-45251441D01*
X55448110Y-45396431D01*
X55515959Y-45410171D01*
X55365197Y-45773244D01*
X55364803Y-46224775D01*
X55537233Y-46642086D01*
X55615000Y-46719989D01*
X55615000Y-50279724D01*
X55538355Y-50356235D01*
X55365197Y-50773244D01*
X55364803Y-51224775D01*
X55537233Y-51642086D01*
X55856235Y-51961645D01*
X56273244Y-52134803D01*
X56724775Y-52135197D01*
X57142086Y-51962767D01*
X57461645Y-51643765D01*
X57634803Y-51226756D01*
X57635197Y-50775225D01*
X57462767Y-50357914D01*
X57385000Y-50280011D01*
X57385000Y-46720276D01*
X57461645Y-46643765D01*
X57634803Y-46226756D01*
X57635197Y-45775225D01*
X57485348Y-45412564D01*
X57535317Y-45403162D01*
X57751441Y-45264090D01*
X57896431Y-45051890D01*
X57947440Y-44800000D01*
X57947440Y-43200000D01*
X57903162Y-42964683D01*
X57764090Y-42748559D01*
X57551890Y-42603569D01*
X57300000Y-42552560D01*
X55700000Y-42552560D01*
X55464683Y-42596838D01*
X55248559Y-42735910D01*
X55103569Y-42948110D01*
X55082320Y-43053041D01*
X54813923Y-42784176D01*
X54286691Y-42565250D01*
X53715813Y-42564752D01*
X53188200Y-42782757D01*
X52784176Y-43186077D01*
X52745000Y-43280423D01*
X52745000Y-35005696D01*
X63604176Y-45864872D01*
X63525225Y-45864803D01*
X63107914Y-46037233D01*
X62788355Y-46356235D01*
X62615197Y-46773244D01*
X62614803Y-47224775D01*
X62787233Y-47642086D01*
X63106235Y-47961645D01*
X63523244Y-48134803D01*
X63974775Y-48135197D01*
X64392086Y-47962767D01*
X64711645Y-47643765D01*
X64884803Y-47226756D01*
X64884874Y-47145570D01*
X67445212Y-49705908D01*
X67226756Y-49615197D01*
X66775225Y-49614803D01*
X66357914Y-49787233D01*
X66038355Y-50106235D01*
X65865197Y-50523244D01*
X65864803Y-50974775D01*
X66037233Y-51392086D01*
X66356235Y-51711645D01*
X66773244Y-51884803D01*
X67224775Y-51885197D01*
X67642086Y-51712767D01*
X67961645Y-51393765D01*
X68134803Y-50976756D01*
X68135197Y-50525225D01*
X68044129Y-50304825D01*
X70707268Y-52967964D01*
X70371057Y-53106883D01*
X70107808Y-53369673D01*
X69965162Y-53713201D01*
X69964838Y-54085167D01*
X70106883Y-54428943D01*
X70369673Y-54692192D01*
X70713201Y-54834838D01*
X71085167Y-54835162D01*
X71428943Y-54693117D01*
X71692192Y-54430327D01*
X71832275Y-54092971D01*
X86869652Y-69130348D01*
X87273559Y-69400230D01*
X87750000Y-69495000D01*
X87847291Y-69495000D01*
X87715162Y-69813201D01*
X87714838Y-70185167D01*
X87856883Y-70528943D01*
X88119673Y-70792192D01*
X88463201Y-70934838D01*
X88835167Y-70935162D01*
X89178943Y-70793117D01*
X89442192Y-70530327D01*
X89584838Y-70186799D01*
X89585162Y-69814833D01*
X89453010Y-69495000D01*
X92234304Y-69495000D01*
X99119652Y-76380348D01*
X99523559Y-76650230D01*
X100000000Y-76745000D01*
X100476441Y-76650230D01*
X100880348Y-76380348D01*
X101150230Y-75976441D01*
X101245000Y-75500000D01*
X101150230Y-75023559D01*
X100880348Y-74619652D01*
X93630348Y-67369652D01*
X93226441Y-67099770D01*
X92750000Y-67005000D01*
X89452709Y-67005000D01*
X89584838Y-66686799D01*
X89585162Y-66314833D01*
X89443117Y-65971057D01*
X89180327Y-65707808D01*
X88836799Y-65565162D01*
X88464833Y-65564838D01*
X88121057Y-65706883D01*
X87857808Y-65969673D01*
X87715162Y-66313201D01*
X87715039Y-66454343D01*
X73984491Y-52723795D01*
X100164716Y-52723795D01*
X100413106Y-53324943D01*
X100872637Y-53785278D01*
X101473352Y-54034716D01*
X102123795Y-54035284D01*
X102724943Y-53786894D01*
X103185278Y-53327363D01*
X103434716Y-52726648D01*
X103435284Y-52076205D01*
X103186894Y-51475057D01*
X102727363Y-51014722D01*
X102126648Y-50765284D01*
X101476205Y-50764716D01*
X100875057Y-51013106D01*
X100414722Y-51472637D01*
X100165284Y-52073352D01*
X100164716Y-52723795D01*
X73984491Y-52723795D01*
X73595824Y-52335128D01*
X73635167Y-52335162D01*
X73978943Y-52193117D01*
X74242192Y-51930327D01*
X74384838Y-51586799D01*
X74385162Y-51214833D01*
X74243117Y-50871057D01*
X73980327Y-50607808D01*
X73636799Y-50465162D01*
X73264833Y-50464838D01*
X72921057Y-50606883D01*
X72657808Y-50869673D01*
X72515162Y-51213201D01*
X72515126Y-51254430D01*
X70145824Y-48885128D01*
X70224775Y-48885197D01*
X70613024Y-48724775D01*
X72864803Y-48724775D01*
X73037233Y-49142086D01*
X73356235Y-49461645D01*
X73773244Y-49634803D01*
X74224775Y-49635197D01*
X74642086Y-49462767D01*
X74961645Y-49143765D01*
X75134803Y-48726756D01*
X75134899Y-48616681D01*
X77616477Y-46135103D01*
X77724775Y-46135197D01*
X78142086Y-45962767D01*
X78461645Y-45643765D01*
X78634803Y-45226756D01*
X78635197Y-44775225D01*
X78462767Y-44357914D01*
X78143765Y-44038355D01*
X77726756Y-43865197D01*
X77275225Y-43864803D01*
X76857914Y-44037233D01*
X76538355Y-44356235D01*
X76365197Y-44773244D01*
X76365101Y-44883320D01*
X73883523Y-47364897D01*
X73775225Y-47364803D01*
X73357914Y-47537233D01*
X73038355Y-47856235D01*
X72865197Y-48273244D01*
X72864803Y-48724775D01*
X70613024Y-48724775D01*
X70642086Y-48712767D01*
X70961645Y-48393765D01*
X71134803Y-47976756D01*
X71135197Y-47525225D01*
X70962767Y-47107914D01*
X70643765Y-46788355D01*
X70226756Y-46615197D01*
X69775225Y-46614803D01*
X69357914Y-46787233D01*
X69038355Y-47106235D01*
X68865197Y-47523244D01*
X68865126Y-47604430D01*
X66645824Y-45385128D01*
X66724775Y-45385197D01*
X67142086Y-45212767D01*
X67461645Y-44893765D01*
X67634803Y-44476756D01*
X67635197Y-44025225D01*
X67614352Y-43974775D01*
X68114803Y-43974775D01*
X68287233Y-44392086D01*
X68606235Y-44711645D01*
X69023244Y-44884803D01*
X69474775Y-44885197D01*
X69892086Y-44712767D01*
X70211645Y-44393765D01*
X70384803Y-43976756D01*
X70384899Y-43866681D01*
X72866477Y-41385103D01*
X72974775Y-41385197D01*
X73392086Y-41212767D01*
X73711645Y-40893765D01*
X73751752Y-40797175D01*
X74882430Y-40797175D01*
X75005565Y-41084788D01*
X75687734Y-41344707D01*
X76417443Y-41323786D01*
X76994435Y-41084788D01*
X77117570Y-40797175D01*
X76000000Y-39679605D01*
X74882430Y-40797175D01*
X73751752Y-40797175D01*
X73884803Y-40476756D01*
X73885197Y-40025225D01*
X73712767Y-39607914D01*
X73393765Y-39288355D01*
X73151444Y-39187734D01*
X74155293Y-39187734D01*
X74176214Y-39917443D01*
X74415212Y-40494435D01*
X74702825Y-40617570D01*
X75820395Y-39500000D01*
X76179605Y-39500000D01*
X77297175Y-40617570D01*
X77584788Y-40494435D01*
X77844707Y-39812266D01*
X77823786Y-39082557D01*
X77584788Y-38505565D01*
X77297175Y-38382430D01*
X76179605Y-39500000D01*
X75820395Y-39500000D01*
X74702825Y-38382430D01*
X74415212Y-38505565D01*
X74155293Y-39187734D01*
X73151444Y-39187734D01*
X72976756Y-39115197D01*
X72525225Y-39114803D01*
X72107914Y-39287233D01*
X71788355Y-39606235D01*
X71615197Y-40023244D01*
X71615101Y-40133320D01*
X69133523Y-42614897D01*
X69025225Y-42614803D01*
X68607914Y-42787233D01*
X68288355Y-43106235D01*
X68115197Y-43523244D01*
X68114803Y-43974775D01*
X67614352Y-43974775D01*
X67462767Y-43607914D01*
X67143765Y-43288355D01*
X66726756Y-43115197D01*
X66275225Y-43114803D01*
X65857914Y-43287233D01*
X65538355Y-43606235D01*
X65365197Y-44023244D01*
X65365126Y-44104430D01*
X59560696Y-38300000D01*
X66652560Y-38300000D01*
X66652560Y-40700000D01*
X66696838Y-40935317D01*
X66835910Y-41151441D01*
X67048110Y-41296431D01*
X67300000Y-41347440D01*
X69700000Y-41347440D01*
X69935317Y-41303162D01*
X70151441Y-41164090D01*
X70296431Y-40951890D01*
X70347440Y-40700000D01*
X70347440Y-38300000D01*
X70329156Y-38202825D01*
X74882430Y-38202825D01*
X76000000Y-39320395D01*
X77117570Y-38202825D01*
X76994435Y-37915212D01*
X76312266Y-37655293D01*
X75582557Y-37676214D01*
X75005565Y-37915212D01*
X74882430Y-38202825D01*
X70329156Y-38202825D01*
X70303162Y-38064683D01*
X70164090Y-37848559D01*
X69951890Y-37703569D01*
X69700000Y-37652560D01*
X67300000Y-37652560D01*
X67064683Y-37696838D01*
X66848559Y-37835910D01*
X66703569Y-38048110D01*
X66652560Y-38300000D01*
X59560696Y-38300000D01*
X57268441Y-36007745D01*
X86171861Y-36007745D01*
X86245995Y-36253864D01*
X86783223Y-36446965D01*
X87353454Y-36419778D01*
X87754005Y-36253864D01*
X87828139Y-36007745D01*
X87000000Y-35179605D01*
X86171861Y-36007745D01*
X57268441Y-36007745D01*
X56043919Y-34783223D01*
X85553035Y-34783223D01*
X85580222Y-35353454D01*
X85746136Y-35754005D01*
X85992255Y-35828139D01*
X86820395Y-35000000D01*
X87179605Y-35000000D01*
X88007745Y-35828139D01*
X88253864Y-35754005D01*
X88446965Y-35216777D01*
X88419778Y-34646546D01*
X88253864Y-34245995D01*
X88007745Y-34171861D01*
X87179605Y-35000000D01*
X86820395Y-35000000D01*
X85992255Y-34171861D01*
X85746136Y-34245995D01*
X85553035Y-34783223D01*
X56043919Y-34783223D01*
X55252951Y-33992255D01*
X86171861Y-33992255D01*
X87000000Y-34820395D01*
X87828139Y-33992255D01*
X87754005Y-33746136D01*
X87216777Y-33553035D01*
X86646546Y-33580222D01*
X86245995Y-33746136D01*
X86171861Y-33992255D01*
X55252951Y-33992255D01*
X53546446Y-32285750D01*
X57165000Y-32285750D01*
X57165000Y-33326310D01*
X57261673Y-33559699D01*
X57440302Y-33738327D01*
X57673691Y-33835000D01*
X58714250Y-33835000D01*
X58873000Y-33676250D01*
X58873000Y-32127000D01*
X59127000Y-32127000D01*
X59127000Y-33676250D01*
X59285750Y-33835000D01*
X60326309Y-33835000D01*
X60559698Y-33738327D01*
X60738327Y-33559699D01*
X60835000Y-33326310D01*
X60835000Y-32285750D01*
X60676250Y-32127000D01*
X59127000Y-32127000D01*
X58873000Y-32127000D01*
X57323750Y-32127000D01*
X57165000Y-32285750D01*
X53546446Y-32285750D01*
X53334936Y-32074240D01*
X53335318Y-31636597D01*
X53056545Y-30961914D01*
X52768824Y-30673690D01*
X57165000Y-30673690D01*
X57165000Y-31714250D01*
X57323750Y-31873000D01*
X58873000Y-31873000D01*
X58873000Y-30323750D01*
X59127000Y-30323750D01*
X59127000Y-31873000D01*
X60676250Y-31873000D01*
X60835000Y-31714250D01*
X60835000Y-30673690D01*
X60738327Y-30440301D01*
X60582213Y-30284187D01*
X85564752Y-30284187D01*
X85782757Y-30811800D01*
X86186077Y-31215824D01*
X86713309Y-31434750D01*
X87284187Y-31435248D01*
X87811800Y-31217243D01*
X88215824Y-30813923D01*
X88434750Y-30286691D01*
X88435248Y-29715813D01*
X88217243Y-29188200D01*
X87813923Y-28784176D01*
X87286691Y-28565250D01*
X86715813Y-28564752D01*
X86188200Y-28782757D01*
X85784176Y-29186077D01*
X85565250Y-29713309D01*
X85564752Y-30284187D01*
X60582213Y-30284187D01*
X60559698Y-30261673D01*
X60326309Y-30165000D01*
X59285750Y-30165000D01*
X59127000Y-30323750D01*
X58873000Y-30323750D01*
X58714250Y-30165000D01*
X57673691Y-30165000D01*
X57440302Y-30261673D01*
X57261673Y-30440301D01*
X57165000Y-30673690D01*
X52768824Y-30673690D01*
X52540801Y-30445270D01*
X51866605Y-30165319D01*
X51136597Y-30164682D01*
X50461914Y-30443455D01*
X49945270Y-30959199D01*
X49665319Y-31633395D01*
X49664682Y-32363403D01*
X49943455Y-33038086D01*
X50255000Y-33350175D01*
X50255000Y-46210125D01*
X50212767Y-46107914D01*
X49893765Y-45788355D01*
X49476756Y-45615197D01*
X49025225Y-45614803D01*
X48607914Y-45787233D01*
X48288355Y-46106235D01*
X48115197Y-46523244D01*
X48114803Y-46974775D01*
X20710000Y-46974775D01*
X20710000Y-36007745D01*
X30171861Y-36007745D01*
X30245995Y-36253864D01*
X30783223Y-36446965D01*
X31353454Y-36419778D01*
X31754005Y-36253864D01*
X31828139Y-36007745D01*
X31000000Y-35179605D01*
X30171861Y-36007745D01*
X20710000Y-36007745D01*
X20710000Y-34783223D01*
X29553035Y-34783223D01*
X29580222Y-35353454D01*
X29746136Y-35754005D01*
X29992255Y-35828139D01*
X30820395Y-35000000D01*
X31179605Y-35000000D01*
X32007745Y-35828139D01*
X32253864Y-35754005D01*
X32446965Y-35216777D01*
X32419778Y-34646546D01*
X32253864Y-34245995D01*
X32007745Y-34171861D01*
X31179605Y-35000000D01*
X30820395Y-35000000D01*
X29992255Y-34171861D01*
X29746136Y-34245995D01*
X29553035Y-34783223D01*
X20710000Y-34783223D01*
X20710000Y-33992255D01*
X30171861Y-33992255D01*
X31000000Y-34820395D01*
X31828139Y-33992255D01*
X31754005Y-33746136D01*
X31216777Y-33553035D01*
X30646546Y-33580222D01*
X30245995Y-33746136D01*
X30171861Y-33992255D01*
X20710000Y-33992255D01*
X20710000Y-30284187D01*
X29564752Y-30284187D01*
X29782757Y-30811800D01*
X30186077Y-31215824D01*
X30713309Y-31434750D01*
X31284187Y-31435248D01*
X31811800Y-31217243D01*
X32215824Y-30813923D01*
X32434750Y-30286691D01*
X32435248Y-29715813D01*
X32217243Y-29188200D01*
X31813923Y-28784176D01*
X31286691Y-28565250D01*
X30715813Y-28564752D01*
X30188200Y-28782757D01*
X29784176Y-29186077D01*
X29565250Y-29713309D01*
X29564752Y-30284187D01*
X20710000Y-30284187D01*
X20710000Y-27584187D01*
X70364752Y-27584187D01*
X70582757Y-28111800D01*
X70986077Y-28515824D01*
X71513309Y-28734750D01*
X72084187Y-28735248D01*
X72611800Y-28517243D01*
X72876187Y-28253317D01*
X72961673Y-28459699D01*
X73140302Y-28638327D01*
X73373691Y-28735000D01*
X74014250Y-28735000D01*
X74173000Y-28576250D01*
X74173000Y-27427000D01*
X74427000Y-27427000D01*
X74427000Y-28576250D01*
X74585750Y-28735000D01*
X75226309Y-28735000D01*
X75459698Y-28638327D01*
X75638327Y-28459699D01*
X75701268Y-28307745D01*
X78371861Y-28307745D01*
X78445995Y-28553864D01*
X78983223Y-28746965D01*
X79553454Y-28719778D01*
X79954005Y-28553864D01*
X80028139Y-28307745D01*
X79200000Y-27479605D01*
X78371861Y-28307745D01*
X75701268Y-28307745D01*
X75735000Y-28226310D01*
X75735000Y-27585750D01*
X75576250Y-27427000D01*
X74427000Y-27427000D01*
X74173000Y-27427000D01*
X74153000Y-27427000D01*
X74153000Y-27173000D01*
X74173000Y-27173000D01*
X74173000Y-26023750D01*
X74427000Y-26023750D01*
X74427000Y-27173000D01*
X75576250Y-27173000D01*
X75666027Y-27083223D01*
X77753035Y-27083223D01*
X77780222Y-27653454D01*
X77946136Y-28054005D01*
X78192255Y-28128139D01*
X79020395Y-27300000D01*
X79379605Y-27300000D01*
X80207745Y-28128139D01*
X80255167Y-28113855D01*
X80296838Y-28335317D01*
X80435910Y-28551441D01*
X80648110Y-28696431D01*
X80900000Y-28747440D01*
X82500000Y-28747440D01*
X82735317Y-28703162D01*
X82951441Y-28564090D01*
X83096431Y-28351890D01*
X83147440Y-28100000D01*
X83147440Y-26500000D01*
X83103162Y-26264683D01*
X82964090Y-26048559D01*
X82781492Y-25923795D01*
X88564716Y-25923795D01*
X88813106Y-26524943D01*
X89272637Y-26985278D01*
X89873352Y-27234716D01*
X90523795Y-27235284D01*
X91124943Y-26986894D01*
X91585278Y-26527363D01*
X91834716Y-25926648D01*
X91835284Y-25276205D01*
X91586894Y-24675057D01*
X91127363Y-24214722D01*
X90526648Y-23965284D01*
X89876205Y-23964716D01*
X89275057Y-24213106D01*
X88814722Y-24672637D01*
X88565284Y-25273352D01*
X88564716Y-25923795D01*
X82781492Y-25923795D01*
X82751890Y-25903569D01*
X82500000Y-25852560D01*
X80900000Y-25852560D01*
X80664683Y-25896838D01*
X80448559Y-26035910D01*
X80303569Y-26248110D01*
X80255354Y-26486201D01*
X80207745Y-26471861D01*
X79379605Y-27300000D01*
X79020395Y-27300000D01*
X78192255Y-26471861D01*
X77946136Y-26545995D01*
X77753035Y-27083223D01*
X75666027Y-27083223D01*
X75735000Y-27014250D01*
X75735000Y-26373690D01*
X75701269Y-26292255D01*
X78371861Y-26292255D01*
X79200000Y-27120395D01*
X80028139Y-26292255D01*
X79954005Y-26046136D01*
X79416777Y-25853035D01*
X78846546Y-25880222D01*
X78445995Y-26046136D01*
X78371861Y-26292255D01*
X75701269Y-26292255D01*
X75638327Y-26140301D01*
X75459698Y-25961673D01*
X75226309Y-25865000D01*
X74585750Y-25865000D01*
X74427000Y-26023750D01*
X74173000Y-26023750D01*
X74014250Y-25865000D01*
X73373691Y-25865000D01*
X73140302Y-25961673D01*
X72961673Y-26140301D01*
X72876124Y-26346835D01*
X72613923Y-26084176D01*
X72086691Y-25865250D01*
X71515813Y-25864752D01*
X70988200Y-26082757D01*
X70584176Y-26486077D01*
X70365250Y-27013309D01*
X70364752Y-27584187D01*
X20710000Y-27584187D01*
X20710000Y-25923795D01*
X32564716Y-25923795D01*
X32813106Y-26524943D01*
X33272637Y-26985278D01*
X33873352Y-27234716D01*
X34523795Y-27235284D01*
X35124943Y-26986894D01*
X35585278Y-26527363D01*
X35834716Y-25926648D01*
X35835284Y-25276205D01*
X35586894Y-24675057D01*
X35127363Y-24214722D01*
X34526648Y-23965284D01*
X33876205Y-23964716D01*
X33275057Y-24213106D01*
X32814722Y-24672637D01*
X32565284Y-25273352D01*
X32564716Y-25923795D01*
X20710000Y-25923795D01*
X20710000Y-21442619D01*
X22764613Y-21442619D01*
X23104155Y-22264372D01*
X23732321Y-22893636D01*
X24553481Y-23234611D01*
X25442619Y-23235387D01*
X26264372Y-22895845D01*
X26893636Y-22267679D01*
X27234611Y-21446519D01*
X27234614Y-21442619D01*
X102764613Y-21442619D01*
X103104155Y-22264372D01*
X103732321Y-22893636D01*
X104553481Y-23234611D01*
X105442619Y-23235387D01*
X106264372Y-22895845D01*
X106893636Y-22267679D01*
X107234611Y-21446519D01*
X107235387Y-20557381D01*
X106895845Y-19735628D01*
X106267679Y-19106364D01*
X105446519Y-18765389D01*
X104557381Y-18764613D01*
X103735628Y-19104155D01*
X103106364Y-19732321D01*
X102765389Y-20553481D01*
X102764613Y-21442619D01*
X27234614Y-21442619D01*
X27235387Y-20557381D01*
X27217450Y-20513970D01*
X36585635Y-20513970D01*
X36745418Y-20832739D01*
X37536187Y-21142723D01*
X38385387Y-21126497D01*
X39094582Y-20832739D01*
X39254365Y-20513970D01*
X37920000Y-19179605D01*
X36585635Y-20513970D01*
X27217450Y-20513970D01*
X26895845Y-19735628D01*
X26267679Y-19106364D01*
X25446519Y-18765389D01*
X24557381Y-18764613D01*
X23735628Y-19104155D01*
X23106364Y-19732321D01*
X22765389Y-20553481D01*
X22764613Y-21442619D01*
X20710000Y-21442619D01*
X20710000Y-21069931D01*
X21049408Y-19363610D01*
X21548820Y-18616187D01*
X35777277Y-18616187D01*
X35793503Y-19465387D01*
X36087261Y-20174582D01*
X36406030Y-20334365D01*
X37740395Y-19000000D01*
X38099605Y-19000000D01*
X39433970Y-20334365D01*
X39752739Y-20174582D01*
X40062723Y-19383813D01*
X40046497Y-18534613D01*
X39752739Y-17825418D01*
X39433970Y-17665635D01*
X38099605Y-19000000D01*
X37740395Y-19000000D01*
X36406030Y-17665635D01*
X36087261Y-17825418D01*
X35777277Y-18616187D01*
X21548820Y-18616187D01*
X21976349Y-17976346D01*
X22710158Y-17486030D01*
X36585635Y-17486030D01*
X37920000Y-18820395D01*
X39240395Y-17500000D01*
X40852560Y-17500000D01*
X40852560Y-20500000D01*
X40896838Y-20735317D01*
X41035910Y-20951441D01*
X41248110Y-21096431D01*
X41500000Y-21147440D01*
X44500000Y-21147440D01*
X44735317Y-21103162D01*
X44951441Y-20964090D01*
X45096431Y-20751890D01*
X45147440Y-20500000D01*
X45147440Y-19422815D01*
X47624630Y-19422815D01*
X47948980Y-20207800D01*
X48549041Y-20808909D01*
X49333459Y-21134628D01*
X50182815Y-21135370D01*
X50967800Y-20811020D01*
X51568909Y-20210959D01*
X51894628Y-19426541D01*
X51894631Y-19422815D01*
X52704630Y-19422815D01*
X53028980Y-20207800D01*
X53629041Y-20808909D01*
X54413459Y-21134628D01*
X55262815Y-21135370D01*
X56047800Y-20811020D01*
X56345368Y-20513970D01*
X58585635Y-20513970D01*
X58745418Y-20832739D01*
X59536187Y-21142723D01*
X60385387Y-21126497D01*
X61094582Y-20832739D01*
X61254365Y-20513970D01*
X59920000Y-19179605D01*
X58585635Y-20513970D01*
X56345368Y-20513970D01*
X56648909Y-20210959D01*
X56974628Y-19426541D01*
X56975335Y-18616187D01*
X57777277Y-18616187D01*
X57793503Y-19465387D01*
X58087261Y-20174582D01*
X58406030Y-20334365D01*
X59740395Y-19000000D01*
X60099605Y-19000000D01*
X61433970Y-20334365D01*
X61752739Y-20174582D01*
X62062723Y-19383813D01*
X62046497Y-18534613D01*
X61752739Y-17825418D01*
X61433970Y-17665635D01*
X60099605Y-19000000D01*
X59740395Y-19000000D01*
X58406030Y-17665635D01*
X58087261Y-17825418D01*
X57777277Y-18616187D01*
X56975335Y-18616187D01*
X56975370Y-18577185D01*
X56651020Y-17792200D01*
X56345384Y-17486030D01*
X58585635Y-17486030D01*
X59920000Y-18820395D01*
X61240395Y-17500000D01*
X62852560Y-17500000D01*
X62852560Y-20500000D01*
X62896838Y-20735317D01*
X63035910Y-20951441D01*
X63248110Y-21096431D01*
X63500000Y-21147440D01*
X66500000Y-21147440D01*
X66735317Y-21103162D01*
X66951441Y-20964090D01*
X67096431Y-20751890D01*
X67147440Y-20500000D01*
X67147440Y-19422815D01*
X69704630Y-19422815D01*
X70028980Y-20207800D01*
X70629041Y-20808909D01*
X71413459Y-21134628D01*
X72262815Y-21135370D01*
X73047800Y-20811020D01*
X73345368Y-20513970D01*
X75585635Y-20513970D01*
X75745418Y-20832739D01*
X76536187Y-21142723D01*
X77385387Y-21126497D01*
X78094582Y-20832739D01*
X78254365Y-20513970D01*
X76920000Y-19179605D01*
X75585635Y-20513970D01*
X73345368Y-20513970D01*
X73648909Y-20210959D01*
X73974628Y-19426541D01*
X73975335Y-18616187D01*
X74777277Y-18616187D01*
X74793503Y-19465387D01*
X75087261Y-20174582D01*
X75406030Y-20334365D01*
X76740395Y-19000000D01*
X77099605Y-19000000D01*
X78433970Y-20334365D01*
X78752739Y-20174582D01*
X79062723Y-19383813D01*
X79046497Y-18534613D01*
X78752739Y-17825418D01*
X78433970Y-17665635D01*
X77099605Y-19000000D01*
X76740395Y-19000000D01*
X75406030Y-17665635D01*
X75087261Y-17825418D01*
X74777277Y-18616187D01*
X73975335Y-18616187D01*
X73975370Y-18577185D01*
X73651020Y-17792200D01*
X73345384Y-17486030D01*
X75585635Y-17486030D01*
X76920000Y-18820395D01*
X78240395Y-17500000D01*
X79852560Y-17500000D01*
X79852560Y-20500000D01*
X79896838Y-20735317D01*
X80035910Y-20951441D01*
X80248110Y-21096431D01*
X80500000Y-21147440D01*
X83500000Y-21147440D01*
X83735317Y-21103162D01*
X83951441Y-20964090D01*
X84096431Y-20751890D01*
X84144611Y-20513970D01*
X87585635Y-20513970D01*
X87745418Y-20832739D01*
X88536187Y-21142723D01*
X89385387Y-21126497D01*
X90094582Y-20832739D01*
X90254365Y-20513970D01*
X88920000Y-19179605D01*
X87585635Y-20513970D01*
X84144611Y-20513970D01*
X84147440Y-20500000D01*
X84147440Y-18616187D01*
X86777277Y-18616187D01*
X86793503Y-19465387D01*
X87087261Y-20174582D01*
X87406030Y-20334365D01*
X88740395Y-19000000D01*
X89099605Y-19000000D01*
X90433970Y-20334365D01*
X90752739Y-20174582D01*
X91062723Y-19383813D01*
X91046497Y-18534613D01*
X90752739Y-17825418D01*
X90433970Y-17665635D01*
X89099605Y-19000000D01*
X88740395Y-19000000D01*
X87406030Y-17665635D01*
X87087261Y-17825418D01*
X86777277Y-18616187D01*
X84147440Y-18616187D01*
X84147440Y-17500000D01*
X84144812Y-17486030D01*
X87585635Y-17486030D01*
X88920000Y-18820395D01*
X90240395Y-17500000D01*
X91852560Y-17500000D01*
X91852560Y-20500000D01*
X91896838Y-20735317D01*
X92035910Y-20951441D01*
X92248110Y-21096431D01*
X92500000Y-21147440D01*
X95500000Y-21147440D01*
X95735317Y-21103162D01*
X95951441Y-20964090D01*
X96096431Y-20751890D01*
X96147440Y-20500000D01*
X96147440Y-17500000D01*
X96103162Y-17264683D01*
X95964090Y-17048559D01*
X95751890Y-16903569D01*
X95500000Y-16852560D01*
X92500000Y-16852560D01*
X92264683Y-16896838D01*
X92048559Y-17035910D01*
X91903569Y-17248110D01*
X91852560Y-17500000D01*
X90240395Y-17500000D01*
X90254365Y-17486030D01*
X90094582Y-17167261D01*
X89303813Y-16857277D01*
X88454613Y-16873503D01*
X87745418Y-17167261D01*
X87585635Y-17486030D01*
X84144812Y-17486030D01*
X84103162Y-17264683D01*
X83964090Y-17048559D01*
X83751890Y-16903569D01*
X83500000Y-16852560D01*
X80500000Y-16852560D01*
X80264683Y-16896838D01*
X80048559Y-17035910D01*
X79903569Y-17248110D01*
X79852560Y-17500000D01*
X78240395Y-17500000D01*
X78254365Y-17486030D01*
X78094582Y-17167261D01*
X77303813Y-16857277D01*
X76454613Y-16873503D01*
X75745418Y-17167261D01*
X75585635Y-17486030D01*
X73345384Y-17486030D01*
X73050959Y-17191091D01*
X72266541Y-16865372D01*
X71417185Y-16864630D01*
X70632200Y-17188980D01*
X70031091Y-17789041D01*
X69705372Y-18573459D01*
X69704630Y-19422815D01*
X67147440Y-19422815D01*
X67147440Y-17500000D01*
X67103162Y-17264683D01*
X66964090Y-17048559D01*
X66751890Y-16903569D01*
X66500000Y-16852560D01*
X63500000Y-16852560D01*
X63264683Y-16896838D01*
X63048559Y-17035910D01*
X62903569Y-17248110D01*
X62852560Y-17500000D01*
X61240395Y-17500000D01*
X61254365Y-17486030D01*
X61094582Y-17167261D01*
X60303813Y-16857277D01*
X59454613Y-16873503D01*
X58745418Y-17167261D01*
X58585635Y-17486030D01*
X56345384Y-17486030D01*
X56050959Y-17191091D01*
X55266541Y-16865372D01*
X54417185Y-16864630D01*
X53632200Y-17188980D01*
X53031091Y-17789041D01*
X52705372Y-18573459D01*
X52704630Y-19422815D01*
X51894631Y-19422815D01*
X51895370Y-18577185D01*
X51571020Y-17792200D01*
X50970959Y-17191091D01*
X50186541Y-16865372D01*
X49337185Y-16864630D01*
X48552200Y-17188980D01*
X47951091Y-17789041D01*
X47625372Y-18573459D01*
X47624630Y-19422815D01*
X45147440Y-19422815D01*
X45147440Y-17500000D01*
X45103162Y-17264683D01*
X44964090Y-17048559D01*
X44751890Y-16903569D01*
X44500000Y-16852560D01*
X41500000Y-16852560D01*
X41264683Y-16896838D01*
X41048559Y-17035910D01*
X40903569Y-17248110D01*
X40852560Y-17500000D01*
X39240395Y-17500000D01*
X39254365Y-17486030D01*
X39094582Y-17167261D01*
X38303813Y-16857277D01*
X37454613Y-16873503D01*
X36745418Y-17167261D01*
X36585635Y-17486030D01*
X22710158Y-17486030D01*
X23363610Y-17049408D01*
X25069931Y-16710000D01*
X104930069Y-16710000D01*
X106636390Y-17049408D01*
M02*
