%TF.GenerationSoftware,KiCad,Pcbnew,4.0.7-e2-6376~58~ubuntu16.04.1*%
%TF.CreationDate,2017-12-27T15:38:07+01:00*%
%TF.ProjectId,Class_D_Amp,436C6173735F445F416D702E6B696361,rev?*%
%TF.FileFunction,Soldermask,Bot*%
%FSLAX46Y46*%
G04 Gerber Fmt 4.6, Leading zero omitted, Abs format (unit mm)*
G04 Created by KiCad (PCBNEW 4.0.7-e2-6376~58~ubuntu16.04.1) date Wed Dec 27 15:38:07 2017*
%MOMM*%
%LPD*%
G01*
G04 APERTURE LIST*
%ADD10C,0.150000*%
%ADD11C,3.400000*%
%ADD12R,3.400000X3.400000*%
%ADD13R,2.000000X2.000000*%
%ADD14C,2.000000*%
%ADD15R,2.800000X2.800000*%
%ADD16C,2.800000*%
%ADD17C,2.400000*%
%ADD18O,2.600000X4.400000*%
%ADD19O,4.400000X2.600000*%
%ADD20C,3.600000*%
G04 APERTURE END LIST*
D10*
X110000000Y-21000000D02*
X110000000Y-110000000D01*
X20000000Y-21000000D02*
X20000000Y-110000000D01*
X105000000Y-16000000D02*
X25000000Y-16000000D01*
X25000000Y-115000000D02*
X105000000Y-115000000D01*
X20000000Y-110000000D02*
G75*
G03X25000000Y-115000000I5000000J0D01*
G01*
X25000000Y-16000000D02*
G75*
G03X20000000Y-21000000I0J-5000000D01*
G01*
X110000000Y-21000000D02*
G75*
G03X105000000Y-16000000I-5000000J0D01*
G01*
X105000000Y-115000000D02*
G75*
G03X110000000Y-110000000I0J5000000D01*
G01*
D11*
X59920000Y-19000000D03*
X54840000Y-19000000D03*
D12*
X65000000Y-19000000D03*
D11*
X49760000Y-19000000D03*
D13*
X81700000Y-27300000D03*
D14*
X79200000Y-27300000D03*
D13*
X74300000Y-27300000D03*
D14*
X71800000Y-27300000D03*
X87000000Y-30000000D03*
X87000000Y-35000000D03*
D15*
X68500000Y-39500000D03*
D16*
X76000000Y-39500000D03*
D15*
X59000000Y-32000000D03*
D16*
X51500000Y-32000000D03*
D14*
X31000000Y-30000000D03*
X31000000Y-35000000D03*
D13*
X68000000Y-92000000D03*
D14*
X68000000Y-94000000D03*
D13*
X62000000Y-92000000D03*
D14*
X62000000Y-94000000D03*
D13*
X56500000Y-44000000D03*
D14*
X54000000Y-44000000D03*
D17*
X90200000Y-25600000D03*
X101800000Y-52400000D03*
X34200000Y-25600000D03*
X45800000Y-52400000D03*
D12*
X94000000Y-19000000D03*
D11*
X88920000Y-19000000D03*
D12*
X43000000Y-19000000D03*
D11*
X37920000Y-19000000D03*
D12*
X82000000Y-19000000D03*
D11*
X76920000Y-19000000D03*
X71840000Y-19000000D03*
D18*
X69500000Y-109000000D03*
D19*
X69000000Y-101700000D03*
D18*
X62400000Y-106100000D03*
X59700000Y-104900000D03*
D19*
X64900000Y-112900000D03*
D20*
X105000000Y-21000000D03*
X105000000Y-110000000D03*
X25000000Y-110000000D03*
X25000000Y-21000000D03*
M02*
